G04*
G04 #@! TF.GenerationSoftware,Altium Limited,Altium Designer,18.1.9 (240)*
G04*
G04 Layer_Physical_Order=2*
G04 Layer_Color=16711680*
%FSAX25Y25*%
%MOIN*%
G70*
G01*
G75*
%ADD12C,0.01000*%
%ADD41C,0.02000*%
%ADD42C,0.01575*%
%ADD43R,0.05906X0.05906*%
%ADD44C,0.05906*%
%ADD45C,0.23622*%
%ADD46C,0.06496*%
%ADD47C,0.13110*%
%ADD48C,0.13504*%
%ADD49C,0.03819*%
%ADD50R,0.06496X0.06496*%
%ADD51C,0.05906*%
%ADD52C,0.05910*%
%ADD53R,0.05906X0.05906*%
%ADD54C,0.05000*%
%ADD55C,0.03150*%
G36*
X0631055Y0413824D02*
X0631152Y0413333D01*
X0630694Y0413144D01*
X0629029Y0412123D01*
X0627543Y0410854D01*
X0626275Y0409369D01*
X0625254Y0407703D01*
X0624506Y0405898D01*
X0624050Y0403999D01*
X0623897Y0402051D01*
X0624050Y0400104D01*
X0624506Y0398204D01*
X0625254Y0396399D01*
X0626275Y0394734D01*
X0627543Y0393248D01*
X0629029Y0391979D01*
X0630694Y0390959D01*
X0632499Y0390211D01*
X0634399Y0389755D01*
X0636346Y0389602D01*
X0638294Y0389755D01*
X0640194Y0390211D01*
X0641998Y0390959D01*
X0643664Y0391979D01*
X0645150Y0393248D01*
X0646418Y0394734D01*
X0647439Y0396399D01*
X0647629Y0396857D01*
X0648119Y0396760D01*
Y0316792D01*
X0647629Y0316694D01*
X0647439Y0317152D01*
X0646418Y0318818D01*
X0645150Y0320303D01*
X0643664Y0321572D01*
X0641998Y0322592D01*
X0640194Y0323340D01*
X0638294Y0323796D01*
X0636346Y0323949D01*
X0634399Y0323796D01*
X0632499Y0323340D01*
X0630694Y0322592D01*
X0629029Y0321572D01*
X0627543Y0320303D01*
X0626275Y0318818D01*
X0625254Y0317152D01*
X0624506Y0315347D01*
X0624050Y0313447D01*
X0623897Y0311500D01*
X0624050Y0309553D01*
X0624506Y0307653D01*
X0625254Y0305848D01*
X0626275Y0304182D01*
X0627543Y0302697D01*
X0629029Y0301428D01*
X0630694Y0300408D01*
X0631152Y0300218D01*
X0631055Y0299728D01*
X0487008Y0299728D01*
X0486996Y0299725D01*
X0486983Y0299727D01*
X0486211Y0299718D01*
X0486093Y0299693D01*
X0485973Y0299701D01*
X0484442Y0299499D01*
X0484316Y0299457D01*
X0484184Y0299448D01*
X0482692Y0299048D01*
X0482573Y0298990D01*
X0482443Y0298964D01*
X0481016Y0298372D01*
X0480906Y0298299D01*
X0480781Y0298256D01*
X0479443Y0297484D01*
X0479343Y0297396D01*
X0479224Y0297338D01*
X0477998Y0296397D01*
X0477911Y0296298D01*
X0477801Y0296224D01*
X0476709Y0295132D01*
X0476635Y0295022D01*
X0476536Y0294935D01*
X0475595Y0293709D01*
X0475536Y0293590D01*
X0475449Y0293491D01*
X0474677Y0292153D01*
X0474634Y0292027D01*
X0474561Y0291917D01*
X0473969Y0290490D01*
X0473944Y0290360D01*
X0473885Y0290241D01*
X0473485Y0288749D01*
X0473477Y0288617D01*
X0473434Y0288491D01*
X0473232Y0286960D01*
X0473239Y0286860D01*
X0473216Y0286763D01*
X0473191Y0285991D01*
X0473196Y0285958D01*
X0473190Y0285925D01*
Y0239075D01*
X0473190Y0238432D01*
X0473022Y0237158D01*
X0472689Y0235917D01*
X0472198Y0234729D01*
X0471555Y0233616D01*
X0470773Y0232597D01*
X0469864Y0231688D01*
X0468844Y0230906D01*
X0467731Y0230263D01*
X0466544Y0229771D01*
X0465303Y0229438D01*
X0464028Y0229271D01*
X0463386Y0229271D01*
X0405389D01*
X0404115Y0229438D01*
X0402873Y0229771D01*
X0401686Y0230263D01*
X0400573Y0230906D01*
X0399553Y0231688D01*
X0398645Y0232597D01*
X0397862Y0233616D01*
X0397220Y0234729D01*
X0396728Y0235917D01*
X0396395Y0237158D01*
X0396228Y0238432D01*
Y0239075D01*
Y0306208D01*
X0396718Y0306306D01*
X0396907Y0305848D01*
X0397928Y0304182D01*
X0399197Y0302697D01*
X0400682Y0301428D01*
X0402348Y0300408D01*
X0404153Y0299660D01*
X0406052Y0299204D01*
X0408000Y0299051D01*
X0409947Y0299204D01*
X0411847Y0299660D01*
X0413652Y0300408D01*
X0415318Y0301428D01*
X0416803Y0302697D01*
X0418072Y0304182D01*
X0419093Y0305848D01*
X0419840Y0307653D01*
X0420296Y0309553D01*
X0420449Y0311500D01*
X0420296Y0313447D01*
X0419840Y0315347D01*
X0419093Y0317152D01*
X0418072Y0318818D01*
X0416803Y0320303D01*
X0415318Y0321572D01*
X0413652Y0322592D01*
X0411847Y0323340D01*
X0409947Y0323796D01*
X0408000Y0323949D01*
Y0389602D01*
X0409947Y0389755D01*
X0411847Y0390211D01*
X0413652Y0390959D01*
X0415318Y0391979D01*
X0416803Y0393248D01*
X0418072Y0394734D01*
X0419093Y0396399D01*
X0419840Y0398204D01*
X0420296Y0400104D01*
X0420449Y0402051D01*
X0420296Y0403999D01*
X0419840Y0405898D01*
X0419093Y0407703D01*
X0418072Y0409369D01*
X0416803Y0410854D01*
X0415318Y0412123D01*
X0413652Y0413144D01*
X0413194Y0413333D01*
X0413292Y0413824D01*
X0631055Y0413824D01*
D02*
G37*
%LPC*%
G36*
X0617264Y0410769D02*
X0616336Y0410646D01*
X0615472Y0410288D01*
X0614730Y0409719D01*
X0614160Y0408977D01*
X0613802Y0408112D01*
X0613680Y0407185D01*
X0613802Y0406258D01*
X0614160Y0405393D01*
X0614730Y0404651D01*
X0615472Y0404082D01*
X0616336Y0403724D01*
X0617264Y0403602D01*
X0618191Y0403724D01*
X0619056Y0404082D01*
X0619798Y0404651D01*
X0620367Y0405393D01*
X0620725Y0406258D01*
X0620847Y0407185D01*
X0620725Y0408112D01*
X0620367Y0408977D01*
X0619798Y0409719D01*
X0619056Y0410288D01*
X0618191Y0410646D01*
X0617264Y0410769D01*
D02*
G37*
G36*
X0607264D02*
X0606336Y0410646D01*
X0605472Y0410288D01*
X0604730Y0409719D01*
X0604160Y0408977D01*
X0603802Y0408112D01*
X0603680Y0407185D01*
X0603802Y0406258D01*
X0604160Y0405393D01*
X0604730Y0404651D01*
X0605472Y0404082D01*
X0606336Y0403724D01*
X0607264Y0403602D01*
X0608191Y0403724D01*
X0609056Y0404082D01*
X0609798Y0404651D01*
X0610367Y0405393D01*
X0610725Y0406258D01*
X0610847Y0407185D01*
X0610725Y0408112D01*
X0610367Y0408977D01*
X0609798Y0409719D01*
X0609056Y0410288D01*
X0608191Y0410646D01*
X0607264Y0410769D01*
D02*
G37*
G36*
X0597264D02*
X0596336Y0410646D01*
X0595472Y0410288D01*
X0594730Y0409719D01*
X0594161Y0408977D01*
X0593802Y0408112D01*
X0593680Y0407185D01*
X0593802Y0406258D01*
X0594161Y0405393D01*
X0594730Y0404651D01*
X0595472Y0404082D01*
X0596336Y0403724D01*
X0597264Y0403602D01*
X0598191Y0403724D01*
X0599055Y0404082D01*
X0599798Y0404651D01*
X0600367Y0405393D01*
X0600725Y0406258D01*
X0600847Y0407185D01*
X0600725Y0408112D01*
X0600367Y0408977D01*
X0599798Y0409719D01*
X0599055Y0410288D01*
X0598191Y0410646D01*
X0597264Y0410769D01*
D02*
G37*
G36*
X0577264D02*
X0576336Y0410646D01*
X0575472Y0410288D01*
X0574730Y0409719D01*
X0574160Y0408977D01*
X0573803Y0408112D01*
X0573680Y0407185D01*
X0573803Y0406258D01*
X0574160Y0405393D01*
X0574730Y0404651D01*
X0575472Y0404082D01*
X0576336Y0403724D01*
X0577264Y0403602D01*
X0578191Y0403724D01*
X0579056Y0404082D01*
X0579798Y0404651D01*
X0580367Y0405393D01*
X0580725Y0406258D01*
X0580847Y0407185D01*
X0580725Y0408112D01*
X0580367Y0408977D01*
X0579798Y0409719D01*
X0579056Y0410288D01*
X0578191Y0410646D01*
X0577264Y0410769D01*
D02*
G37*
G36*
X0557264D02*
X0556336Y0410646D01*
X0555472Y0410288D01*
X0554730Y0409719D01*
X0554160Y0408977D01*
X0553802Y0408112D01*
X0553680Y0407185D01*
X0553802Y0406258D01*
X0554160Y0405393D01*
X0554730Y0404651D01*
X0555472Y0404082D01*
X0556336Y0403724D01*
X0557264Y0403602D01*
X0558191Y0403724D01*
X0559056Y0404082D01*
X0559798Y0404651D01*
X0560367Y0405393D01*
X0560725Y0406258D01*
X0560847Y0407185D01*
X0560725Y0408112D01*
X0560367Y0408977D01*
X0559798Y0409719D01*
X0559056Y0410288D01*
X0558191Y0410646D01*
X0557264Y0410769D01*
D02*
G37*
G36*
X0547264D02*
X0546336Y0410646D01*
X0545472Y0410288D01*
X0544730Y0409719D01*
X0544161Y0408977D01*
X0543802Y0408112D01*
X0543680Y0407185D01*
X0543802Y0406258D01*
X0544161Y0405393D01*
X0544730Y0404651D01*
X0545472Y0404082D01*
X0546336Y0403724D01*
X0547264Y0403602D01*
X0548191Y0403724D01*
X0549055Y0404082D01*
X0549798Y0404651D01*
X0550367Y0405393D01*
X0550725Y0406258D01*
X0550847Y0407185D01*
X0550725Y0408112D01*
X0550367Y0408977D01*
X0549798Y0409719D01*
X0549055Y0410288D01*
X0548191Y0410646D01*
X0547264Y0410769D01*
D02*
G37*
G36*
X0537264D02*
X0536336Y0410646D01*
X0535472Y0410288D01*
X0534730Y0409719D01*
X0534161Y0408977D01*
X0533803Y0408112D01*
X0533680Y0407185D01*
X0533803Y0406258D01*
X0534161Y0405393D01*
X0534730Y0404651D01*
X0535472Y0404082D01*
X0536336Y0403724D01*
X0537264Y0403602D01*
X0538191Y0403724D01*
X0539055Y0404082D01*
X0539798Y0404651D01*
X0540367Y0405393D01*
X0540725Y0406258D01*
X0540847Y0407185D01*
X0540725Y0408112D01*
X0540367Y0408977D01*
X0539798Y0409719D01*
X0539055Y0410288D01*
X0538191Y0410646D01*
X0537264Y0410769D01*
D02*
G37*
G36*
X0527264D02*
X0526336Y0410646D01*
X0525472Y0410288D01*
X0524730Y0409719D01*
X0524160Y0408977D01*
X0523803Y0408112D01*
X0523680Y0407185D01*
X0523803Y0406258D01*
X0524160Y0405393D01*
X0524730Y0404651D01*
X0525472Y0404082D01*
X0526336Y0403724D01*
X0527264Y0403602D01*
X0528191Y0403724D01*
X0529056Y0404082D01*
X0529798Y0404651D01*
X0530367Y0405393D01*
X0530725Y0406258D01*
X0530847Y0407185D01*
X0530725Y0408112D01*
X0530367Y0408977D01*
X0529798Y0409719D01*
X0529056Y0410288D01*
X0528191Y0410646D01*
X0527264Y0410769D01*
D02*
G37*
G36*
X0507264D02*
X0506336Y0410646D01*
X0505472Y0410288D01*
X0504730Y0409719D01*
X0504160Y0408977D01*
X0503802Y0408112D01*
X0503680Y0407185D01*
X0503802Y0406258D01*
X0504160Y0405393D01*
X0504730Y0404651D01*
X0505472Y0404082D01*
X0506336Y0403724D01*
X0507264Y0403602D01*
X0508191Y0403724D01*
X0509056Y0404082D01*
X0509798Y0404651D01*
X0510367Y0405393D01*
X0510725Y0406258D01*
X0510847Y0407185D01*
X0510725Y0408112D01*
X0510367Y0408977D01*
X0509798Y0409719D01*
X0509056Y0410288D01*
X0508191Y0410646D01*
X0507264Y0410769D01*
D02*
G37*
G36*
X0497264D02*
X0496336Y0410646D01*
X0495472Y0410288D01*
X0494730Y0409719D01*
X0494161Y0408977D01*
X0493802Y0408112D01*
X0493680Y0407185D01*
X0493802Y0406258D01*
X0494161Y0405393D01*
X0494730Y0404651D01*
X0495472Y0404082D01*
X0496336Y0403724D01*
X0497264Y0403602D01*
X0498191Y0403724D01*
X0499055Y0404082D01*
X0499798Y0404651D01*
X0500367Y0405393D01*
X0500725Y0406258D01*
X0500847Y0407185D01*
X0500725Y0408112D01*
X0500367Y0408977D01*
X0499798Y0409719D01*
X0499055Y0410288D01*
X0498191Y0410646D01*
X0497264Y0410769D01*
D02*
G37*
G36*
X0477264D02*
X0476336Y0410646D01*
X0475472Y0410288D01*
X0474730Y0409719D01*
X0474160Y0408977D01*
X0473803Y0408112D01*
X0473680Y0407185D01*
X0473803Y0406258D01*
X0474160Y0405393D01*
X0474730Y0404651D01*
X0475472Y0404082D01*
X0476336Y0403724D01*
X0477264Y0403602D01*
X0478191Y0403724D01*
X0479056Y0404082D01*
X0479798Y0404651D01*
X0480367Y0405393D01*
X0480725Y0406258D01*
X0480847Y0407185D01*
X0480725Y0408112D01*
X0480367Y0408977D01*
X0479798Y0409719D01*
X0479056Y0410288D01*
X0478191Y0410646D01*
X0477264Y0410769D01*
D02*
G37*
G36*
X0437264D02*
X0436336Y0410646D01*
X0435472Y0410288D01*
X0434730Y0409719D01*
X0434161Y0408977D01*
X0433803Y0408112D01*
X0433680Y0407185D01*
X0433803Y0406258D01*
X0434161Y0405393D01*
X0434730Y0404651D01*
X0435472Y0404082D01*
X0436336Y0403724D01*
X0437264Y0403602D01*
X0438191Y0403724D01*
X0439055Y0404082D01*
X0439798Y0404651D01*
X0440367Y0405393D01*
X0440725Y0406258D01*
X0440847Y0407185D01*
X0440725Y0408112D01*
X0440367Y0408977D01*
X0439798Y0409719D01*
X0439055Y0410288D01*
X0438191Y0410646D01*
X0437264Y0410769D01*
D02*
G37*
G36*
X0427264D02*
X0426336Y0410646D01*
X0425472Y0410288D01*
X0424730Y0409719D01*
X0424160Y0408977D01*
X0423803Y0408112D01*
X0423680Y0407185D01*
X0423803Y0406258D01*
X0424160Y0405393D01*
X0424730Y0404651D01*
X0425472Y0404082D01*
X0426336Y0403724D01*
X0427264Y0403602D01*
X0428191Y0403724D01*
X0429056Y0404082D01*
X0429798Y0404651D01*
X0430367Y0405393D01*
X0430725Y0406258D01*
X0430847Y0407185D01*
X0430725Y0408112D01*
X0430367Y0408977D01*
X0429798Y0409719D01*
X0429056Y0410288D01*
X0428191Y0410646D01*
X0427264Y0410769D01*
D02*
G37*
G36*
X0430817Y0400738D02*
X0423711D01*
Y0393632D01*
X0430817D01*
Y0400738D01*
D02*
G37*
G36*
X0607264Y0400768D02*
X0606336Y0400646D01*
X0605472Y0400288D01*
X0604730Y0399719D01*
X0604160Y0398977D01*
X0603802Y0398113D01*
X0603680Y0397185D01*
X0603802Y0396258D01*
X0604160Y0395393D01*
X0604730Y0394651D01*
X0605472Y0394082D01*
X0606336Y0393724D01*
X0607264Y0393602D01*
X0608191Y0393724D01*
X0609056Y0394082D01*
X0609798Y0394651D01*
X0610367Y0395393D01*
X0610725Y0396258D01*
X0610847Y0397185D01*
X0610725Y0398113D01*
X0610367Y0398977D01*
X0609798Y0399719D01*
X0609056Y0400288D01*
X0608191Y0400646D01*
X0607264Y0400768D01*
D02*
G37*
G36*
X0597264D02*
X0596336Y0400646D01*
X0595472Y0400288D01*
X0594730Y0399719D01*
X0594161Y0398977D01*
X0593802Y0398113D01*
X0593680Y0397185D01*
X0593802Y0396258D01*
X0594161Y0395393D01*
X0594730Y0394651D01*
X0595472Y0394082D01*
X0596336Y0393724D01*
X0597264Y0393602D01*
X0598191Y0393724D01*
X0599055Y0394082D01*
X0599798Y0394651D01*
X0600367Y0395393D01*
X0600725Y0396258D01*
X0600847Y0397185D01*
X0600725Y0398113D01*
X0600367Y0398977D01*
X0599798Y0399719D01*
X0599055Y0400288D01*
X0598191Y0400646D01*
X0597264Y0400768D01*
D02*
G37*
G36*
X0587264D02*
X0586336Y0400646D01*
X0585472Y0400288D01*
X0584730Y0399719D01*
X0584161Y0398977D01*
X0583803Y0398113D01*
X0583680Y0397185D01*
X0583803Y0396258D01*
X0584161Y0395393D01*
X0584730Y0394651D01*
X0585472Y0394082D01*
X0586336Y0393724D01*
X0587264Y0393602D01*
X0588191Y0393724D01*
X0589055Y0394082D01*
X0589798Y0394651D01*
X0590367Y0395393D01*
X0590725Y0396258D01*
X0590847Y0397185D01*
X0590725Y0398113D01*
X0590367Y0398977D01*
X0589798Y0399719D01*
X0589055Y0400288D01*
X0588191Y0400646D01*
X0587264Y0400768D01*
D02*
G37*
G36*
X0577264D02*
X0576336Y0400646D01*
X0575472Y0400288D01*
X0574730Y0399719D01*
X0574160Y0398977D01*
X0573803Y0398113D01*
X0573680Y0397185D01*
X0573803Y0396258D01*
X0574160Y0395393D01*
X0574730Y0394651D01*
X0575472Y0394082D01*
X0576336Y0393724D01*
X0577264Y0393602D01*
X0578191Y0393724D01*
X0579056Y0394082D01*
X0579798Y0394651D01*
X0580367Y0395393D01*
X0580725Y0396258D01*
X0580847Y0397185D01*
X0580725Y0398113D01*
X0580367Y0398977D01*
X0579798Y0399719D01*
X0579056Y0400288D01*
X0578191Y0400646D01*
X0577264Y0400768D01*
D02*
G37*
G36*
X0567264D02*
X0566336Y0400646D01*
X0565472Y0400288D01*
X0564730Y0399719D01*
X0564160Y0398977D01*
X0563802Y0398113D01*
X0563680Y0397185D01*
X0563802Y0396258D01*
X0564160Y0395393D01*
X0564730Y0394651D01*
X0565472Y0394082D01*
X0566336Y0393724D01*
X0567264Y0393602D01*
X0568191Y0393724D01*
X0569056Y0394082D01*
X0569798Y0394651D01*
X0570367Y0395393D01*
X0570725Y0396258D01*
X0570847Y0397185D01*
X0570725Y0398113D01*
X0570367Y0398977D01*
X0569798Y0399719D01*
X0569056Y0400288D01*
X0568191Y0400646D01*
X0567264Y0400768D01*
D02*
G37*
G36*
X0557264D02*
X0556336Y0400646D01*
X0555472Y0400288D01*
X0554730Y0399719D01*
X0554160Y0398977D01*
X0553802Y0398113D01*
X0553680Y0397185D01*
X0553802Y0396258D01*
X0554160Y0395393D01*
X0554730Y0394651D01*
X0555472Y0394082D01*
X0556336Y0393724D01*
X0557264Y0393602D01*
X0558191Y0393724D01*
X0559056Y0394082D01*
X0559798Y0394651D01*
X0560367Y0395393D01*
X0560725Y0396258D01*
X0560847Y0397185D01*
X0560725Y0398113D01*
X0560367Y0398977D01*
X0559798Y0399719D01*
X0559056Y0400288D01*
X0558191Y0400646D01*
X0557264Y0400768D01*
D02*
G37*
G36*
X0537264D02*
X0536336Y0400646D01*
X0535472Y0400288D01*
X0534730Y0399719D01*
X0534161Y0398977D01*
X0533803Y0398113D01*
X0533680Y0397185D01*
X0533803Y0396258D01*
X0534161Y0395393D01*
X0534730Y0394651D01*
X0535472Y0394082D01*
X0536336Y0393724D01*
X0537264Y0393602D01*
X0538191Y0393724D01*
X0539055Y0394082D01*
X0539798Y0394651D01*
X0540367Y0395393D01*
X0540725Y0396258D01*
X0540847Y0397185D01*
X0540725Y0398113D01*
X0540367Y0398977D01*
X0539798Y0399719D01*
X0539055Y0400288D01*
X0538191Y0400646D01*
X0537264Y0400768D01*
D02*
G37*
G36*
X0527264D02*
X0526336Y0400646D01*
X0525472Y0400288D01*
X0524730Y0399719D01*
X0524160Y0398977D01*
X0523803Y0398113D01*
X0523680Y0397185D01*
X0523803Y0396258D01*
X0524160Y0395393D01*
X0524730Y0394651D01*
X0525472Y0394082D01*
X0526336Y0393724D01*
X0527264Y0393602D01*
X0528191Y0393724D01*
X0529056Y0394082D01*
X0529798Y0394651D01*
X0530367Y0395393D01*
X0530725Y0396258D01*
X0530847Y0397185D01*
X0530725Y0398113D01*
X0530367Y0398977D01*
X0529798Y0399719D01*
X0529056Y0400288D01*
X0528191Y0400646D01*
X0527264Y0400768D01*
D02*
G37*
G36*
X0517264D02*
X0516336Y0400646D01*
X0515472Y0400288D01*
X0514730Y0399719D01*
X0514160Y0398977D01*
X0513802Y0398113D01*
X0513680Y0397185D01*
X0513802Y0396258D01*
X0514160Y0395393D01*
X0514730Y0394651D01*
X0515472Y0394082D01*
X0516336Y0393724D01*
X0517264Y0393602D01*
X0518191Y0393724D01*
X0519056Y0394082D01*
X0519798Y0394651D01*
X0520367Y0395393D01*
X0520725Y0396258D01*
X0520847Y0397185D01*
X0520725Y0398113D01*
X0520367Y0398977D01*
X0519798Y0399719D01*
X0519056Y0400288D01*
X0518191Y0400646D01*
X0517264Y0400768D01*
D02*
G37*
G36*
X0507264D02*
X0506336Y0400646D01*
X0505472Y0400288D01*
X0504730Y0399719D01*
X0504160Y0398977D01*
X0503802Y0398113D01*
X0503680Y0397185D01*
X0503802Y0396258D01*
X0504160Y0395393D01*
X0504730Y0394651D01*
X0505472Y0394082D01*
X0506336Y0393724D01*
X0507264Y0393602D01*
X0508191Y0393724D01*
X0509056Y0394082D01*
X0509798Y0394651D01*
X0510367Y0395393D01*
X0510725Y0396258D01*
X0510847Y0397185D01*
X0510725Y0398113D01*
X0510367Y0398977D01*
X0509798Y0399719D01*
X0509056Y0400288D01*
X0508191Y0400646D01*
X0507264Y0400768D01*
D02*
G37*
G36*
X0497264D02*
X0496336Y0400646D01*
X0495472Y0400288D01*
X0494730Y0399719D01*
X0494161Y0398977D01*
X0493802Y0398113D01*
X0493680Y0397185D01*
X0493802Y0396258D01*
X0494161Y0395393D01*
X0494730Y0394651D01*
X0495472Y0394082D01*
X0496336Y0393724D01*
X0497264Y0393602D01*
X0498191Y0393724D01*
X0499055Y0394082D01*
X0499798Y0394651D01*
X0500367Y0395393D01*
X0500725Y0396258D01*
X0500847Y0397185D01*
X0500725Y0398113D01*
X0500367Y0398977D01*
X0499798Y0399719D01*
X0499055Y0400288D01*
X0498191Y0400646D01*
X0497264Y0400768D01*
D02*
G37*
G36*
X0487264D02*
X0486336Y0400646D01*
X0485472Y0400288D01*
X0484730Y0399719D01*
X0484161Y0398977D01*
X0483803Y0398113D01*
X0483680Y0397185D01*
X0483803Y0396258D01*
X0484161Y0395393D01*
X0484730Y0394651D01*
X0485472Y0394082D01*
X0486336Y0393724D01*
X0487264Y0393602D01*
X0488191Y0393724D01*
X0489055Y0394082D01*
X0489798Y0394651D01*
X0490367Y0395393D01*
X0490725Y0396258D01*
X0490847Y0397185D01*
X0490725Y0398113D01*
X0490367Y0398977D01*
X0489798Y0399719D01*
X0489055Y0400288D01*
X0488191Y0400646D01*
X0487264Y0400768D01*
D02*
G37*
G36*
X0467264Y0410769D02*
X0466336Y0410646D01*
X0465472Y0410288D01*
X0464730Y0409719D01*
X0464160Y0408977D01*
X0463802Y0408112D01*
X0463680Y0407185D01*
X0463802Y0406258D01*
X0464160Y0405393D01*
X0464730Y0404651D01*
X0465472Y0404082D01*
X0466336Y0403724D01*
X0467264Y0403602D01*
X0467689Y0403658D01*
X0471221Y0400126D01*
Y0376870D01*
X0471221Y0376870D01*
X0471277Y0376587D01*
X0470821Y0376336D01*
X0463326Y0383831D01*
Y0400630D01*
X0463241Y0401059D01*
X0462998Y0401423D01*
X0462998Y0401423D01*
X0459796Y0404625D01*
X0459798Y0404651D01*
X0460367Y0405393D01*
X0460725Y0406258D01*
X0460847Y0407185D01*
X0460725Y0408112D01*
X0460367Y0408977D01*
X0459798Y0409719D01*
X0459056Y0410288D01*
X0458191Y0410646D01*
X0457264Y0410769D01*
X0456336Y0410646D01*
X0455472Y0410288D01*
X0454730Y0409719D01*
X0454160Y0408977D01*
X0453802Y0408112D01*
X0453680Y0407185D01*
X0453802Y0406258D01*
X0454160Y0405393D01*
X0454730Y0404651D01*
X0455472Y0404082D01*
X0456336Y0403724D01*
X0457264Y0403602D01*
X0457602Y0403646D01*
X0461083Y0400165D01*
Y0398555D01*
X0460583Y0398455D01*
X0460367Y0398977D01*
X0459798Y0399719D01*
X0459056Y0400288D01*
X0458191Y0400646D01*
X0457264Y0400768D01*
X0456336Y0400646D01*
X0455472Y0400288D01*
X0454730Y0399719D01*
X0454160Y0398977D01*
X0453802Y0398113D01*
X0453680Y0397185D01*
X0453802Y0396258D01*
X0454160Y0395393D01*
X0454730Y0394651D01*
X0455472Y0394082D01*
X0456336Y0393724D01*
X0457264Y0393602D01*
X0458191Y0393724D01*
X0459056Y0394082D01*
X0459798Y0394651D01*
X0460367Y0395393D01*
X0460583Y0395915D01*
X0461083Y0395815D01*
Y0383366D01*
X0461083Y0383366D01*
X0461168Y0382937D01*
X0461412Y0382573D01*
X0475683Y0368302D01*
X0475683Y0368301D01*
X0476047Y0368058D01*
X0476476Y0367973D01*
X0476476Y0367973D01*
X0582252D01*
X0589660Y0360565D01*
X0589660Y0360565D01*
X0590024Y0360322D01*
X0590453Y0360237D01*
X0606093D01*
X0606311Y0359952D01*
X0607115Y0359336D01*
X0608051Y0358948D01*
X0609055Y0358816D01*
X0610060Y0358948D01*
X0610996Y0359336D01*
X0611800Y0359952D01*
X0612416Y0360756D01*
X0612650Y0361320D01*
X0613150Y0361221D01*
Y0358535D01*
X0610879Y0356264D01*
X0610060Y0356603D01*
X0609055Y0356736D01*
X0608051Y0356603D01*
X0607115Y0356216D01*
X0606311Y0355599D01*
X0605694Y0354795D01*
X0605306Y0353859D01*
X0605174Y0352854D01*
X0605306Y0351850D01*
X0605694Y0350914D01*
X0606311Y0350110D01*
X0607115Y0349493D01*
X0608051Y0349105D01*
X0609055Y0348973D01*
X0610060Y0349105D01*
X0610996Y0349493D01*
X0611800Y0350110D01*
X0612416Y0350914D01*
X0612804Y0351850D01*
X0612936Y0352854D01*
X0612804Y0353859D01*
X0612465Y0354678D01*
X0615065Y0357278D01*
X0615065Y0357278D01*
X0615308Y0357642D01*
X0615393Y0358071D01*
X0615393Y0358071D01*
Y0364764D01*
X0615308Y0365193D01*
X0615065Y0365557D01*
X0615065Y0365557D01*
X0612430Y0368191D01*
X0612637Y0368691D01*
X0612903D01*
Y0371125D01*
X0631585D01*
Y0368691D01*
X0639281D01*
Y0376387D01*
X0631585D01*
Y0373954D01*
X0612903D01*
Y0376387D01*
X0607162D01*
X0606841Y0376602D01*
X0606299Y0376710D01*
X0545289D01*
X0545227Y0376859D01*
X0544731Y0377506D01*
X0544083Y0378003D01*
X0543329Y0378315D01*
X0542520Y0378422D01*
X0541710Y0378315D01*
X0541562Y0378254D01*
X0535941Y0383874D01*
X0535482Y0384181D01*
X0534941Y0384289D01*
X0526884D01*
X0526822Y0384437D01*
X0526325Y0385085D01*
X0525677Y0385582D01*
X0524923Y0385894D01*
X0524114Y0386001D01*
X0523305Y0385894D01*
X0523156Y0385833D01*
X0521177Y0387811D01*
X0520718Y0388118D01*
X0520177Y0388226D01*
X0499915D01*
X0499854Y0388374D01*
X0499357Y0389022D01*
X0498709Y0389519D01*
X0497955Y0389831D01*
X0497146Y0389938D01*
X0496336Y0389831D01*
X0495582Y0389519D01*
X0494935Y0389022D01*
X0494438Y0388374D01*
X0494126Y0387620D01*
X0494019Y0386811D01*
X0494126Y0386002D01*
X0494438Y0385248D01*
X0494935Y0384600D01*
X0495582Y0384103D01*
X0496336Y0383791D01*
X0497146Y0383684D01*
X0497955Y0383791D01*
X0498709Y0384103D01*
X0499357Y0384600D01*
X0499854Y0385248D01*
X0499915Y0385396D01*
X0519591D01*
X0521156Y0383832D01*
X0521094Y0383683D01*
X0520987Y0382874D01*
X0521094Y0382065D01*
X0521406Y0381311D01*
X0521903Y0380663D01*
X0522551Y0380166D01*
X0523305Y0379854D01*
X0524114Y0379747D01*
X0524923Y0379854D01*
X0525677Y0380166D01*
X0526325Y0380663D01*
X0526822Y0381311D01*
X0526884Y0381459D01*
X0534355D01*
X0539561Y0376253D01*
X0539500Y0376104D01*
X0539393Y0375295D01*
X0539500Y0374486D01*
X0539812Y0373732D01*
X0540309Y0373084D01*
X0540527Y0372917D01*
X0540357Y0372417D01*
X0478382D01*
X0473464Y0377335D01*
Y0395768D01*
X0473964Y0395867D01*
X0474160Y0395393D01*
X0474730Y0394651D01*
X0475472Y0394082D01*
X0476336Y0393724D01*
X0477264Y0393602D01*
X0478191Y0393724D01*
X0479056Y0394082D01*
X0479798Y0394651D01*
X0480367Y0395393D01*
X0480725Y0396258D01*
X0480847Y0397185D01*
X0480725Y0398113D01*
X0480367Y0398977D01*
X0479798Y0399719D01*
X0479056Y0400288D01*
X0478191Y0400646D01*
X0477264Y0400768D01*
X0476336Y0400646D01*
X0475472Y0400288D01*
X0474730Y0399719D01*
X0474160Y0398977D01*
X0473964Y0398503D01*
X0473464Y0398602D01*
Y0400591D01*
X0473379Y0401020D01*
X0473136Y0401384D01*
X0473136Y0401384D01*
X0469828Y0404691D01*
X0470367Y0405393D01*
X0470725Y0406258D01*
X0470847Y0407185D01*
X0470725Y0408112D01*
X0470367Y0408977D01*
X0469798Y0409719D01*
X0469056Y0410288D01*
X0468191Y0410646D01*
X0467264Y0410769D01*
D02*
G37*
G36*
X0447264Y0400768D02*
X0446336Y0400646D01*
X0445472Y0400288D01*
X0444730Y0399719D01*
X0444161Y0398977D01*
X0443802Y0398113D01*
X0443680Y0397185D01*
X0443802Y0396258D01*
X0444161Y0395393D01*
X0444252Y0395273D01*
Y0369696D01*
X0444252Y0369696D01*
X0444338Y0369267D01*
X0444581Y0368903D01*
X0459990Y0353494D01*
X0460289Y0353295D01*
X0460284Y0353036D01*
X0460205Y0352795D01*
X0459618D01*
X0443352Y0369061D01*
Y0392218D01*
X0443352Y0392218D01*
X0443266Y0392648D01*
X0443023Y0393012D01*
X0443023Y0393012D01*
X0440448Y0395587D01*
X0440725Y0396258D01*
X0440847Y0397185D01*
X0440725Y0398113D01*
X0440367Y0398977D01*
X0439798Y0399719D01*
X0439055Y0400288D01*
X0438191Y0400646D01*
X0437264Y0400768D01*
X0436336Y0400646D01*
X0435472Y0400288D01*
X0434730Y0399719D01*
X0434161Y0398977D01*
X0433803Y0398113D01*
X0433680Y0397185D01*
X0433803Y0396258D01*
X0434161Y0395393D01*
X0434730Y0394651D01*
X0435472Y0394082D01*
X0436336Y0393724D01*
X0437264Y0393602D01*
X0438191Y0393724D01*
X0438861Y0394001D01*
X0441109Y0391754D01*
Y0368597D01*
X0441109Y0368597D01*
X0441194Y0368167D01*
X0441437Y0367803D01*
X0458360Y0350880D01*
X0458360Y0350880D01*
X0458724Y0350637D01*
X0459154Y0350552D01*
X0459154Y0350552D01*
X0573650D01*
X0593597Y0330605D01*
X0593597Y0330605D01*
X0593961Y0330362D01*
X0594390Y0330276D01*
X0631594D01*
X0631595Y0330276D01*
X0632024Y0330362D01*
X0632388Y0330605D01*
X0642329Y0340546D01*
X0642329Y0340546D01*
X0642572Y0340909D01*
X0642657Y0341339D01*
Y0356594D01*
X0642657Y0356594D01*
X0642572Y0357024D01*
X0642329Y0357388D01*
X0638843Y0360873D01*
X0639182Y0361692D01*
X0639314Y0362697D01*
X0639182Y0363701D01*
X0638794Y0364637D01*
X0638177Y0365441D01*
X0637374Y0366058D01*
X0636438Y0366446D01*
X0635433Y0366578D01*
X0634429Y0366446D01*
X0633493Y0366058D01*
X0632689Y0365441D01*
X0632072Y0364637D01*
X0631684Y0363701D01*
X0631552Y0362697D01*
X0631684Y0361692D01*
X0632072Y0360756D01*
X0632689Y0359952D01*
X0633493Y0359336D01*
X0634429Y0358948D01*
X0635433Y0358816D01*
X0636438Y0358948D01*
X0637257Y0359287D01*
X0640414Y0356130D01*
Y0341803D01*
X0631130Y0332519D01*
X0594854D01*
X0574907Y0352466D01*
X0574609Y0352666D01*
X0574613Y0352924D01*
X0574692Y0353166D01*
X0577059D01*
X0596471Y0333754D01*
X0596471Y0333754D01*
X0596835Y0333511D01*
X0597264Y0333426D01*
X0617126D01*
X0617126Y0333426D01*
X0617555Y0333511D01*
X0617919Y0333754D01*
X0633609Y0349445D01*
X0634429Y0349105D01*
X0635433Y0348973D01*
X0636438Y0349105D01*
X0637374Y0349493D01*
X0638177Y0350110D01*
X0638794Y0350914D01*
X0639182Y0351850D01*
X0639314Y0352854D01*
X0639182Y0353859D01*
X0638794Y0354795D01*
X0638177Y0355599D01*
X0637374Y0356216D01*
X0636438Y0356603D01*
X0635433Y0356736D01*
X0634429Y0356603D01*
X0633493Y0356216D01*
X0632689Y0355599D01*
X0632072Y0354795D01*
X0631684Y0353859D01*
X0631552Y0352854D01*
X0631684Y0351850D01*
X0632023Y0351031D01*
X0616661Y0335669D01*
X0597728D01*
X0578317Y0355080D01*
X0577953Y0355323D01*
X0577524Y0355409D01*
X0577524Y0355409D01*
X0461248D01*
X0446496Y0370161D01*
Y0393324D01*
X0446872Y0393653D01*
X0447264Y0393602D01*
X0448191Y0393724D01*
X0449055Y0394082D01*
X0449798Y0394651D01*
X0450367Y0395393D01*
X0450725Y0396258D01*
X0450847Y0397185D01*
X0450725Y0398113D01*
X0450367Y0398977D01*
X0449798Y0399719D01*
X0449055Y0400288D01*
X0448191Y0400646D01*
X0447264Y0400768D01*
D02*
G37*
G36*
X0554075Y0332757D02*
X0553147Y0332634D01*
X0552283Y0332277D01*
X0551541Y0331707D01*
X0550972Y0330965D01*
X0550613Y0330101D01*
X0550491Y0329173D01*
X0550613Y0328246D01*
X0550972Y0327381D01*
X0551541Y0326639D01*
X0552283Y0326070D01*
X0553147Y0325712D01*
X0554075Y0325590D01*
X0555002Y0325712D01*
X0555866Y0326070D01*
X0556609Y0326639D01*
X0557178Y0327381D01*
X0557536Y0328246D01*
X0557658Y0329173D01*
X0557536Y0330101D01*
X0557178Y0330965D01*
X0556609Y0331707D01*
X0555866Y0332277D01*
X0555002Y0332634D01*
X0554075Y0332757D01*
D02*
G37*
G36*
X0418701Y0374485D02*
X0417892Y0374378D01*
X0417137Y0374066D01*
X0416490Y0373569D01*
X0415993Y0372922D01*
X0415681Y0372167D01*
X0415574Y0371358D01*
X0415681Y0370549D01*
X0415993Y0369795D01*
X0416490Y0369147D01*
X0417069Y0368703D01*
Y0328051D01*
X0417194Y0327427D01*
X0417547Y0326898D01*
X0424255Y0320190D01*
Y0308957D01*
X0424379Y0308332D01*
X0424732Y0307803D01*
X0434673Y0297862D01*
X0435203Y0297509D01*
X0435827Y0297384D01*
X0465650D01*
X0466274Y0297509D01*
X0466803Y0297862D01*
X0474396Y0305455D01*
X0477593D01*
X0477642Y0304955D01*
X0477132Y0304854D01*
X0476602Y0304500D01*
X0467055Y0294953D01*
X0466702Y0294424D01*
X0466577Y0293799D01*
Y0280302D01*
X0459068Y0272793D01*
X0446988D01*
X0446364Y0272669D01*
X0445835Y0272315D01*
X0441155Y0267635D01*
X0440945Y0267677D01*
X0439966Y0267482D01*
X0439136Y0266927D01*
X0438581Y0266097D01*
X0438386Y0265118D01*
X0438581Y0264139D01*
X0439136Y0263309D01*
X0439184Y0263277D01*
Y0259819D01*
X0438684Y0259667D01*
X0438542Y0259880D01*
X0437711Y0260435D01*
X0436732Y0260630D01*
X0435753Y0260435D01*
X0434923Y0259880D01*
X0434368Y0259050D01*
X0434174Y0258071D01*
X0434368Y0257092D01*
X0434923Y0256262D01*
X0435753Y0255707D01*
X0436732Y0255512D01*
X0437711Y0255707D01*
X0438542Y0256262D01*
X0438684Y0256474D01*
X0439184Y0256323D01*
Y0255369D01*
X0437612Y0253797D01*
X0433747D01*
X0430843Y0256701D01*
X0431104Y0257092D01*
X0431299Y0258071D01*
X0431104Y0259050D01*
X0430549Y0259880D01*
X0429719Y0260435D01*
X0428740Y0260630D01*
X0427761Y0260435D01*
X0426931Y0259880D01*
X0426376Y0259050D01*
X0426182Y0258071D01*
X0426376Y0257092D01*
X0426931Y0256262D01*
X0427190Y0256089D01*
X0427233Y0255872D01*
X0427587Y0255343D01*
X0431917Y0251012D01*
X0432447Y0250658D01*
X0433071Y0250534D01*
X0438287D01*
X0438912Y0250658D01*
X0439441Y0251012D01*
X0441968Y0253539D01*
X0442322Y0254069D01*
X0442446Y0254693D01*
Y0256119D01*
X0442593Y0256164D01*
X0442946Y0256241D01*
X0443745Y0255707D01*
X0444724Y0255512D01*
X0445704Y0255707D01*
X0446534Y0256262D01*
X0447088Y0257092D01*
X0447283Y0258071D01*
X0447088Y0259050D01*
X0446534Y0259880D01*
X0445704Y0260435D01*
X0444724Y0260630D01*
X0443745Y0260435D01*
X0442946Y0259901D01*
X0442593Y0259978D01*
X0442446Y0260022D01*
Y0263103D01*
X0442754Y0263309D01*
X0443309Y0264139D01*
X0443504Y0265118D01*
X0443462Y0265328D01*
X0447664Y0269530D01*
X0459744D01*
X0460368Y0269654D01*
X0460898Y0270008D01*
X0469362Y0278472D01*
X0469716Y0279002D01*
X0469840Y0279626D01*
X0469840Y0279626D01*
Y0293124D01*
X0478432Y0301715D01*
X0510827D01*
X0511451Y0301839D01*
X0511980Y0302193D01*
X0524455Y0314668D01*
X0525975D01*
Y0312747D01*
X0533080D01*
Y0317545D01*
X0551601Y0336066D01*
X0569206D01*
X0572443Y0332828D01*
Y0332306D01*
X0572282Y0332239D01*
X0571539Y0331669D01*
X0570970Y0330927D01*
X0570611Y0330062D01*
X0570489Y0329134D01*
X0570611Y0328206D01*
X0570970Y0327341D01*
X0571539Y0326599D01*
X0572282Y0326029D01*
X0573147Y0325671D01*
X0574075Y0325548D01*
X0575003Y0325671D01*
X0575868Y0326029D01*
X0576610Y0326599D01*
X0577180Y0327341D01*
X0577538Y0328206D01*
X0577660Y0329134D01*
X0577538Y0330062D01*
X0577180Y0330927D01*
X0576610Y0331669D01*
X0575868Y0332239D01*
X0575706Y0332306D01*
Y0333504D01*
X0575582Y0334128D01*
X0575228Y0334658D01*
X0571035Y0338850D01*
X0570506Y0339204D01*
X0569882Y0339328D01*
X0550925D01*
X0550301Y0339204D01*
X0549772Y0338850D01*
X0530773Y0319852D01*
X0525975D01*
Y0317931D01*
X0523779D01*
X0523155Y0317806D01*
X0522626Y0317453D01*
X0510151Y0304978D01*
X0507249D01*
X0507200Y0305478D01*
X0507711Y0305579D01*
X0508240Y0305933D01*
X0530105Y0327798D01*
X0530809D01*
X0531254Y0327218D01*
X0531901Y0326721D01*
X0532655Y0326409D01*
X0533465Y0326302D01*
X0534274Y0326409D01*
X0535028Y0326721D01*
X0535675Y0327218D01*
X0536172Y0327866D01*
X0536485Y0328620D01*
X0536591Y0329429D01*
X0536485Y0330238D01*
X0536172Y0330993D01*
X0535675Y0331640D01*
X0535028Y0332137D01*
X0534274Y0332449D01*
X0533465Y0332556D01*
X0532655Y0332449D01*
X0531901Y0332137D01*
X0531254Y0331640D01*
X0530809Y0331061D01*
X0529429D01*
X0528805Y0330936D01*
X0528276Y0330583D01*
X0506411Y0308718D01*
X0473721D01*
X0473096Y0308594D01*
X0472567Y0308240D01*
X0464974Y0300647D01*
X0436503D01*
X0427517Y0309632D01*
Y0320866D01*
X0427393Y0321490D01*
X0427039Y0322020D01*
X0420332Y0328727D01*
Y0368703D01*
X0420912Y0369147D01*
X0421409Y0369795D01*
X0421721Y0370549D01*
X0421828Y0371358D01*
X0421721Y0372167D01*
X0421409Y0372922D01*
X0420912Y0373569D01*
X0420264Y0374066D01*
X0419510Y0374378D01*
X0418701Y0374485D01*
D02*
G37*
G36*
X0585305Y0309557D02*
X0578199D01*
Y0302451D01*
X0585305D01*
Y0309557D01*
D02*
G37*
G36*
X0563553D02*
X0556447D01*
Y0302451D01*
X0563553D01*
Y0309557D01*
D02*
G37*
G36*
X0456309D02*
X0449203D01*
Y0302451D01*
X0456309D01*
Y0309557D01*
D02*
G37*
G36*
X0442756Y0309587D02*
X0441828Y0309465D01*
X0440964Y0309107D01*
X0440222Y0308538D01*
X0439653Y0307796D01*
X0439295Y0306931D01*
X0439173Y0306004D01*
X0439295Y0305077D01*
X0439653Y0304212D01*
X0440222Y0303470D01*
X0440964Y0302901D01*
X0441828Y0302543D01*
X0442756Y0302420D01*
X0443683Y0302543D01*
X0444548Y0302901D01*
X0445290Y0303470D01*
X0445859Y0304212D01*
X0446217Y0305077D01*
X0446339Y0306004D01*
X0446217Y0306931D01*
X0445859Y0307796D01*
X0445290Y0308538D01*
X0444548Y0309107D01*
X0443683Y0309465D01*
X0442756Y0309587D01*
D02*
G37*
G36*
X0448937Y0267677D02*
X0447958Y0267482D01*
X0447128Y0266927D01*
X0446573Y0266097D01*
X0446378Y0265118D01*
X0446573Y0264139D01*
X0447128Y0263309D01*
X0447958Y0262754D01*
X0448937Y0262560D01*
X0449916Y0262754D01*
X0450746Y0263309D01*
X0451301Y0264139D01*
X0451496Y0265118D01*
X0451301Y0266097D01*
X0450746Y0266927D01*
X0449916Y0267482D01*
X0448937Y0267677D01*
D02*
G37*
G36*
X0432953D02*
X0431974Y0267482D01*
X0431144Y0266927D01*
X0430589Y0266097D01*
X0430394Y0265118D01*
X0430589Y0264139D01*
X0431144Y0263309D01*
X0431974Y0262754D01*
X0432953Y0262560D01*
X0433932Y0262754D01*
X0434762Y0263309D01*
X0435317Y0264139D01*
X0435511Y0265118D01*
X0435317Y0266097D01*
X0434762Y0266927D01*
X0433932Y0267482D01*
X0432953Y0267677D01*
D02*
G37*
G36*
X0467244Y0265456D02*
X0466240Y0265324D01*
X0465304Y0264936D01*
X0464500Y0264319D01*
X0463883Y0263515D01*
X0463495Y0262579D01*
X0463363Y0261575D01*
X0463495Y0260570D01*
X0463883Y0259634D01*
X0464500Y0258830D01*
X0465304Y0258214D01*
X0466240Y0257826D01*
X0467244Y0257694D01*
X0468249Y0257826D01*
X0469185Y0258214D01*
X0469988Y0258830D01*
X0470605Y0259634D01*
X0470993Y0260570D01*
X0471125Y0261575D01*
X0470993Y0262579D01*
X0470605Y0263515D01*
X0469988Y0264319D01*
X0469185Y0264936D01*
X0468249Y0265324D01*
X0467244Y0265456D01*
D02*
G37*
G36*
X0402441D02*
X0401436Y0265324D01*
X0400500Y0264936D01*
X0399696Y0264319D01*
X0399080Y0263515D01*
X0398692Y0262579D01*
X0398560Y0261575D01*
X0398692Y0260570D01*
X0399080Y0259634D01*
X0399696Y0258830D01*
X0400500Y0258214D01*
X0401436Y0257826D01*
X0402441Y0257694D01*
X0403445Y0257826D01*
X0404382Y0258214D01*
X0405185Y0258830D01*
X0405802Y0259634D01*
X0406190Y0260570D01*
X0406322Y0261575D01*
X0406190Y0262579D01*
X0405802Y0263515D01*
X0405185Y0264319D01*
X0404382Y0264936D01*
X0403445Y0265324D01*
X0402441Y0265456D01*
D02*
G37*
G36*
X0409921Y0255300D02*
X0408519Y0255162D01*
X0407170Y0254753D01*
X0405927Y0254088D01*
X0404837Y0253194D01*
X0403943Y0252105D01*
X0403279Y0250862D01*
X0402870Y0249513D01*
X0402732Y0248110D01*
X0402870Y0246708D01*
X0403279Y0245359D01*
X0403943Y0244116D01*
X0404837Y0243026D01*
X0405927Y0242132D01*
X0407170Y0241468D01*
X0408519Y0241059D01*
X0409921Y0240920D01*
X0411324Y0241059D01*
X0412673Y0241468D01*
X0413916Y0242132D01*
X0415005Y0243026D01*
X0415899Y0244116D01*
X0416564Y0245359D01*
X0416973Y0246708D01*
X0417111Y0248110D01*
X0416973Y0249513D01*
X0416564Y0250862D01*
X0415899Y0252105D01*
X0415005Y0253194D01*
X0413916Y0254088D01*
X0412673Y0254753D01*
X0411324Y0255162D01*
X0409921Y0255300D01*
D02*
G37*
G36*
X0459764Y0255183D02*
X0458322Y0255041D01*
X0456937Y0254621D01*
X0455659Y0253938D01*
X0454540Y0253019D01*
X0453621Y0251900D01*
X0452939Y0250622D01*
X0452518Y0249236D01*
X0452376Y0247795D01*
X0452518Y0246354D01*
X0452939Y0244968D01*
X0453621Y0243691D01*
X0454540Y0242571D01*
X0455659Y0241653D01*
X0456937Y0240970D01*
X0458322Y0240550D01*
X0459764Y0240408D01*
X0461205Y0240550D01*
X0462591Y0240970D01*
X0463868Y0241653D01*
X0464988Y0242571D01*
X0465906Y0243691D01*
X0466589Y0244968D01*
X0467009Y0246354D01*
X0467151Y0247795D01*
X0467009Y0249236D01*
X0466589Y0250622D01*
X0465906Y0251900D01*
X0464988Y0253019D01*
X0463868Y0253938D01*
X0462591Y0254621D01*
X0461205Y0255041D01*
X0459764Y0255183D01*
D02*
G37*
%LPD*%
D12*
X0472342Y0376870D02*
X0477917Y0371295D01*
X0544176D01*
X0544240Y0371358D02*
X0596358D01*
X0544176Y0371295D02*
X0544240Y0371358D01*
X0459154Y0351673D02*
X0574114D01*
X0442230Y0368597D02*
X0459154Y0351673D01*
X0442230Y0368597D02*
Y0392218D01*
X0574114Y0351673D02*
X0594390Y0331398D01*
X0635433Y0362697D02*
X0641535Y0356594D01*
Y0341339D02*
Y0356594D01*
X0631595Y0331398D02*
X0641535Y0341339D01*
X0594390Y0331398D02*
X0631595D01*
X0617126Y0334547D02*
X0635433Y0352854D01*
X0597264Y0334547D02*
X0617126D01*
X0577524Y0354287D02*
X0597264Y0334547D01*
X0609055Y0352854D02*
X0614272Y0358071D01*
Y0364764D01*
X0611417Y0367618D02*
X0614272Y0364764D01*
X0600098Y0367618D02*
X0611417D01*
X0596358Y0371358D02*
X0600098Y0367618D01*
X0607717Y0361358D02*
X0609055Y0362697D01*
X0590453Y0361358D02*
X0607717D01*
X0582717Y0369094D02*
X0590453Y0361358D01*
X0476476Y0369094D02*
X0582717D01*
X0462205Y0383366D02*
X0476476Y0369094D01*
X0462205Y0383366D02*
Y0400630D01*
X0472342Y0376870D02*
Y0400591D01*
X0457264Y0405571D02*
X0462205Y0400630D01*
X0457264Y0405571D02*
Y0407185D01*
X0467264Y0405669D02*
X0472342Y0400591D01*
X0467264Y0405669D02*
Y0407185D01*
X0445374Y0395295D02*
X0447264Y0397185D01*
X0445374Y0369696D02*
Y0395295D01*
Y0369696D02*
X0460783Y0354287D01*
X0437264Y0397185D02*
X0442230Y0392218D01*
X0460783Y0354287D02*
X0577524D01*
X0449311Y0376673D02*
Y0377165D01*
X0462697Y0338681D02*
Y0338976D01*
D41*
X0529429Y0329429D02*
X0533465D01*
X0507087Y0307087D02*
X0529429Y0329429D01*
X0473721Y0307087D02*
X0507087D01*
X0465650Y0299016D02*
X0473721Y0307087D01*
X0435827Y0299016D02*
X0465650D01*
X0425886Y0308957D02*
X0435827Y0299016D01*
X0425886Y0308957D02*
Y0320866D01*
X0418701Y0328051D02*
X0425886Y0320866D01*
X0418701Y0328051D02*
Y0371358D01*
X0428740Y0256496D02*
X0433071Y0252165D01*
X0440815Y0254693D02*
Y0265118D01*
X0438287Y0252165D02*
X0440815Y0254693D01*
X0433071Y0252165D02*
X0438287D01*
X0428740Y0256496D02*
Y0258071D01*
X0574075Y0329134D02*
Y0333504D01*
X0569882Y0337697D02*
X0574075Y0333504D01*
X0550925Y0337697D02*
X0569882D01*
X0529528Y0316299D02*
X0550925Y0337697D01*
X0523779Y0316299D02*
X0529528D01*
X0510827Y0303346D02*
X0523779Y0316299D01*
X0477756Y0303346D02*
X0510827D01*
X0468209Y0293799D02*
X0477756Y0303346D01*
X0468209Y0279626D02*
Y0293799D01*
X0459744Y0271161D02*
X0468209Y0279626D01*
X0446988Y0271161D02*
X0459744D01*
X0440945Y0265118D02*
X0446988Y0271161D01*
X0440815Y0265118D02*
X0440945D01*
D42*
X0609055Y0372539D02*
X0635433D01*
X0606299Y0375295D02*
X0609055Y0372539D01*
X0542520Y0375295D02*
X0606299D01*
X0534941Y0382874D02*
X0542520Y0375295D01*
X0524114Y0382874D02*
X0534941D01*
X0520177Y0386811D02*
X0524114Y0382874D01*
X0497146Y0386811D02*
X0520177D01*
D43*
X0452756Y0306004D02*
D03*
X0427264Y0397185D02*
D03*
X0581752Y0306004D02*
D03*
X0560000D02*
D03*
D44*
X0442756D02*
D03*
X0617264Y0407185D02*
D03*
Y0397185D02*
D03*
X0607264Y0407185D02*
D03*
Y0397185D02*
D03*
X0597264Y0407185D02*
D03*
Y0397185D02*
D03*
X0587264Y0407185D02*
D03*
Y0397185D02*
D03*
X0577264Y0407185D02*
D03*
Y0397185D02*
D03*
X0567264Y0407185D02*
D03*
Y0397185D02*
D03*
X0557264Y0407185D02*
D03*
Y0397185D02*
D03*
X0547264Y0407185D02*
D03*
Y0397185D02*
D03*
X0537264Y0407185D02*
D03*
Y0397185D02*
D03*
X0527264Y0407185D02*
D03*
Y0397185D02*
D03*
X0517264Y0407185D02*
D03*
Y0397185D02*
D03*
X0507264Y0407185D02*
D03*
Y0397185D02*
D03*
X0497264Y0407185D02*
D03*
Y0397185D02*
D03*
X0487264Y0407185D02*
D03*
Y0397185D02*
D03*
X0477264Y0407185D02*
D03*
Y0397185D02*
D03*
X0467264Y0407185D02*
D03*
Y0397185D02*
D03*
X0457264Y0407185D02*
D03*
Y0397185D02*
D03*
X0447264Y0407185D02*
D03*
Y0397185D02*
D03*
X0437264Y0407185D02*
D03*
Y0397185D02*
D03*
X0427264Y0407185D02*
D03*
X0571752Y0306004D02*
D03*
X0550000D02*
D03*
X0529528Y0306299D02*
D03*
D45*
X0636346Y0402051D02*
D03*
Y0311500D02*
D03*
X0408000D02*
D03*
Y0402051D02*
D03*
D46*
X0402441Y0261575D02*
D03*
X0467244D02*
D03*
X0609055Y0343012D02*
D03*
Y0352854D02*
D03*
Y0362697D02*
D03*
X0635433Y0343012D02*
D03*
Y0352854D02*
D03*
Y0362697D02*
D03*
D47*
X0409921Y0248110D02*
D03*
D48*
X0459764Y0247795D02*
D03*
D49*
X0424961Y0265079D02*
D03*
X0432953Y0265118D02*
D03*
X0440945D02*
D03*
X0448937D02*
D03*
X0420748Y0258071D02*
D03*
X0428740D02*
D03*
X0436732D02*
D03*
X0444724D02*
D03*
D50*
X0609055Y0372539D02*
D03*
X0635433D02*
D03*
D51*
X0554075Y0329173D02*
D03*
D52*
X0564075Y0329134D02*
D03*
X0574075D02*
D03*
D53*
X0529528Y0316299D02*
D03*
D54*
X0542520Y0375295D02*
D03*
X0524114Y0382874D02*
D03*
X0497146Y0386811D02*
D03*
X0497244Y0311910D02*
D03*
X0533465Y0329429D02*
D03*
X0418701Y0371358D02*
D03*
D55*
X0533957Y0387402D02*
D03*
X0449311Y0377165D02*
D03*
X0443504Y0358661D02*
D03*
X0486713Y0340433D02*
D03*
X0462697Y0338976D02*
D03*
M02*
