G04*
G04 #@! TF.GenerationSoftware,Altium Limited,Altium Designer,18.1.9 (240)*
G04*
G04 Layer_Color=16711935*
%FSAX25Y25*%
%MOIN*%
G70*
G01*
G75*
%ADD12C,0.01000*%
%ADD13C,0.00394*%
%ADD56C,0.00600*%
D12*
X0650126Y0405217D02*
Y0432496D01*
X0394220Y0405217D02*
Y0432496D01*
X0535669Y0431496D02*
X0650126D01*
X0394220D02*
X0505478D01*
X0644126Y0433496D02*
X0650126Y0431496D01*
X0644126Y0429496D02*
X0650126Y0431496D01*
X0394220D02*
X0400220Y0429496D01*
X0394220Y0431496D02*
X0400220Y0433496D01*
X0369866Y0227264D02*
X0404835D01*
X0369866Y0415831D02*
X0404835D01*
X0370866Y0227264D02*
Y0304852D01*
Y0335043D02*
Y0415831D01*
Y0227264D02*
X0372866Y0233264D01*
X0368866D02*
X0370866Y0227264D01*
X0368866Y0409831D02*
X0370866Y0415831D01*
X0372866Y0409831D01*
D13*
X0487008Y0297736D02*
G03*
X0475197Y0285925I0000000J-0011811D01*
G01*
X0463386Y0227264D02*
G03*
X0475197Y0239075I0000000J0011811D01*
G01*
X0394220Y0239075D02*
G03*
X0406032Y0227264I0011811J0000000D01*
G01*
X0650126Y0404020D02*
G03*
X0638315Y0415831I-0011811J0000000D01*
G01*
Y0297721D02*
G03*
X0650126Y0309531I0000000J0011811D01*
G01*
X0406032Y0415831D02*
G03*
X0394220Y0404020I0000000J-0011811D01*
G01*
X0475197Y0239075D02*
Y0285925D01*
X0394220Y0239075D02*
Y0404020D01*
X0406032Y0227264D02*
X0463386D01*
X0650126Y0309531D02*
Y0404020D01*
X0487008Y0297721D02*
X0638315Y0297721D01*
X0406032Y0415831D02*
X0638315Y0415831D01*
D56*
X0511076Y0433895D02*
X0509077Y0432895D01*
X0507078Y0430896D01*
Y0428897D01*
X0508077Y0427897D01*
X0510077D01*
X0511076Y0428897D01*
Y0429896D01*
X0510077Y0430896D01*
X0507078D01*
X0517074Y0433895D02*
X0513076D01*
Y0430896D01*
X0515075Y0431896D01*
X0516075D01*
X0517074Y0430896D01*
Y0428897D01*
X0516075Y0427897D01*
X0514075D01*
X0513076Y0428897D01*
X0519074Y0427897D02*
Y0428897D01*
X0520073D01*
Y0427897D01*
X0519074D01*
X0524072Y0432895D02*
X0525072Y0433895D01*
X0527071D01*
X0528071Y0432895D01*
Y0428897D01*
X0527071Y0427897D01*
X0525072D01*
X0524072Y0428897D01*
Y0432895D01*
X0530070D02*
X0531070Y0433895D01*
X0533069D01*
X0534069Y0432895D01*
Y0428897D01*
X0533069Y0427897D01*
X0531070D01*
X0530070Y0428897D01*
Y0432895D01*
X0374465Y0309451D02*
X0368467D01*
X0371466Y0306452D01*
Y0310450D01*
X0368467Y0312450D02*
Y0316448D01*
X0369467D01*
X0373465Y0312450D01*
X0374465D01*
Y0318448D02*
X0373465D01*
Y0319447D01*
X0374465D01*
Y0318448D01*
X0373465Y0323446D02*
X0374465Y0324446D01*
Y0326445D01*
X0373465Y0327445D01*
X0369467D01*
X0368467Y0326445D01*
Y0324446D01*
X0369467Y0323446D01*
X0370466D01*
X0371466Y0324446D01*
Y0327445D01*
X0369467Y0329444D02*
X0368467Y0330444D01*
Y0332443D01*
X0369467Y0333443D01*
X0373465D01*
X0374465Y0332443D01*
Y0330444D01*
X0373465Y0329444D01*
X0369467D01*
M02*
