G04*
G04 #@! TF.GenerationSoftware,Altium Limited,Altium Designer,18.1.9 (240)*
G04*
G04 Layer_Color=32896*
%FSAX25Y25*%
%MOIN*%
G70*
G01*
G75*
%ADD12C,0.01000*%
%ADD14C,0.00787*%
D12*
X0407677Y0289173D02*
Y0295171D01*
X0404678D01*
X0403679Y0294172D01*
Y0292172D01*
X0404678Y0291173D01*
X0407677D01*
X0397680Y0289173D02*
X0401679D01*
X0397680Y0293172D01*
Y0294172D01*
X0398680Y0295171D01*
X0400679D01*
X0401679Y0294172D01*
D14*
X0402992Y0227402D02*
X0405118D01*
X0402992D02*
Y0287165D01*
X0466575D01*
X0405118Y0227402D02*
X0466575D01*
Y0287165D01*
X0517913Y0344782D02*
X0515552Y0340059D01*
X0513191Y0344782D01*
X0510829Y0345963D02*
X0509648Y0347143D01*
X0507287D01*
X0506106Y0345963D01*
Y0341240D01*
X0507287Y0340059D01*
X0509648D01*
X0510829Y0341240D01*
Y0345963D01*
X0503745Y0340059D02*
Y0341240D01*
X0502564D01*
Y0340059D01*
X0503745D01*
X0497841D02*
X0495480D01*
X0496660D01*
Y0347143D01*
X0497841Y0345963D01*
X0518307Y0352953D02*
Y0360037D01*
X0514765D01*
X0513584Y0358856D01*
Y0356495D01*
X0514765Y0355314D01*
X0518307D01*
X0515946D02*
X0513584Y0352953D01*
X0511223D02*
Y0360037D01*
X0507681D01*
X0506500Y0358856D01*
Y0356495D01*
X0507681Y0355314D01*
X0511223D01*
X0504139Y0352953D02*
X0501777D01*
X0502958D01*
Y0357676D01*
X0504139D01*
X0498235Y0356495D02*
X0493512D01*
X0486428Y0358856D02*
X0487608Y0360037D01*
X0489970D01*
X0491151Y0358856D01*
Y0354134D01*
X0489970Y0352953D01*
X0487608D01*
X0486428Y0354134D01*
X0484066Y0352953D02*
Y0357676D01*
X0481705Y0360037D01*
X0479343Y0357676D01*
Y0352953D01*
Y0356495D01*
X0484066D01*
X0476982Y0352953D02*
Y0360037D01*
X0472259Y0352953D01*
Y0360037D01*
X0469898Y0356495D02*
X0465175D01*
X0462813Y0360037D02*
Y0352953D01*
Y0356495D01*
X0458090D01*
Y0360037D01*
Y0352953D01*
X0455729D02*
Y0357676D01*
X0453368Y0360037D01*
X0451006Y0357676D01*
Y0352953D01*
Y0356495D01*
X0455729D01*
X0448645Y0360037D02*
X0443922D01*
X0446283D01*
Y0352953D01*
X0516634Y0364272D02*
X0514272D01*
X0515453D01*
Y0368994D01*
X0516634D01*
X0510730D02*
Y0364272D01*
Y0366633D01*
X0509550Y0367814D01*
X0508369Y0368994D01*
X0507188D01*
X0503646Y0364272D02*
Y0368994D01*
X0500104D01*
X0498923Y0367814D01*
Y0364272D01*
X0495381Y0368994D02*
X0493019D01*
X0491839Y0367814D01*
Y0364272D01*
X0495381D01*
X0496562Y0365452D01*
X0495381Y0366633D01*
X0491839D01*
X0489477Y0364272D02*
X0485935D01*
X0484754Y0365452D01*
X0485935Y0366633D01*
X0488297D01*
X0489477Y0367814D01*
X0488297Y0368994D01*
X0484754D01*
X0482393Y0364272D02*
Y0365452D01*
X0481212D01*
Y0364272D01*
X0482393D01*
X0472947D02*
X0475309D01*
X0476489Y0365452D01*
Y0367814D01*
X0475309Y0368994D01*
X0472947D01*
X0471767Y0367814D01*
Y0366633D01*
X0476489D01*
X0469405Y0368994D02*
Y0365452D01*
X0468224Y0364272D01*
X0464682D01*
Y0368994D01*
M02*
