G04*
G04 #@! TF.GenerationSoftware,Altium Limited,Altium Designer,18.1.9 (240)*
G04*
G04 Layer_Color=8388736*
%FSAX25Y25*%
%MOIN*%
G70*
G01*
G75*
%ADD23R,0.03162X0.04343*%
%ADD24R,0.03162X0.06706*%
%ADD25R,0.08280X0.03359*%
%ADD26R,0.07887X0.05524*%
%ADD27R,0.03950X0.03950*%
%ADD28R,0.03950X0.03950*%
%ADD29R,0.04343X0.03162*%
%ADD30R,0.06706X0.06706*%
%ADD31C,0.06706*%
%ADD32C,0.24422*%
%ADD33C,0.07296*%
%ADD34C,0.13910*%
%ADD35C,0.14304*%
%ADD36C,0.04619*%
%ADD37R,0.07296X0.07296*%
%ADD38C,0.06706*%
%ADD39C,0.06710*%
%ADD40R,0.06706X0.06706*%
D23*
X0450787Y0323819D02*
D03*
X0444882D02*
D03*
X0438878Y0385335D02*
D03*
X0444783D02*
D03*
X0580807Y0317323D02*
D03*
X0574902D02*
D03*
X0557087Y0316831D02*
D03*
X0551181D02*
D03*
D24*
X0448937Y0364665D02*
D03*
X0443937D02*
D03*
X0438937D02*
D03*
X0433937D02*
D03*
X0448937Y0343406D02*
D03*
X0443937D02*
D03*
X0438937D02*
D03*
X0433937D02*
D03*
D25*
X0517224Y0340433D02*
D03*
Y0345433D02*
D03*
Y0350433D02*
D03*
Y0355433D02*
D03*
Y0360433D02*
D03*
Y0365433D02*
D03*
Y0370433D02*
D03*
Y0375433D02*
D03*
Y0380433D02*
D03*
X0479823Y0340433D02*
D03*
Y0345433D02*
D03*
Y0350433D02*
D03*
Y0355433D02*
D03*
Y0360433D02*
D03*
Y0365433D02*
D03*
Y0370433D02*
D03*
Y0375433D02*
D03*
Y0380433D02*
D03*
D26*
X0490100Y0327372D02*
D03*
Y0317923D02*
D03*
X0474352Y0327372D02*
D03*
Y0317923D02*
D03*
D27*
X0529035Y0386614D02*
D03*
Y0380709D02*
D03*
X0500394Y0325492D02*
D03*
Y0319587D02*
D03*
D28*
X0444488Y0374508D02*
D03*
X0438583D02*
D03*
X0479134Y0309842D02*
D03*
X0485039D02*
D03*
D29*
X0536221Y0367421D02*
D03*
Y0361516D02*
D03*
Y0373524D02*
D03*
Y0379429D02*
D03*
X0535925Y0344291D02*
D03*
Y0350197D02*
D03*
X0457480Y0345079D02*
D03*
Y0339173D02*
D03*
X0419095Y0384547D02*
D03*
Y0378642D02*
D03*
D30*
X0452756Y0306004D02*
D03*
X0427264Y0397185D02*
D03*
X0581752Y0306004D02*
D03*
X0560000D02*
D03*
D31*
X0442756D02*
D03*
X0617264Y0407185D02*
D03*
Y0397185D02*
D03*
X0607264Y0407185D02*
D03*
Y0397185D02*
D03*
X0597264Y0407185D02*
D03*
Y0397185D02*
D03*
X0587264Y0407185D02*
D03*
Y0397185D02*
D03*
X0577264Y0407185D02*
D03*
Y0397185D02*
D03*
X0567264Y0407185D02*
D03*
Y0397185D02*
D03*
X0557264Y0407185D02*
D03*
Y0397185D02*
D03*
X0547264Y0407185D02*
D03*
Y0397185D02*
D03*
X0537264Y0407185D02*
D03*
Y0397185D02*
D03*
X0527264Y0407185D02*
D03*
Y0397185D02*
D03*
X0517264Y0407185D02*
D03*
Y0397185D02*
D03*
X0507264Y0407185D02*
D03*
Y0397185D02*
D03*
X0497264Y0407185D02*
D03*
Y0397185D02*
D03*
X0487264Y0407185D02*
D03*
Y0397185D02*
D03*
X0477264Y0407185D02*
D03*
Y0397185D02*
D03*
X0467264Y0407185D02*
D03*
Y0397185D02*
D03*
X0457264Y0407185D02*
D03*
Y0397185D02*
D03*
X0447264Y0407185D02*
D03*
Y0397185D02*
D03*
X0437264Y0407185D02*
D03*
Y0397185D02*
D03*
X0427264Y0407185D02*
D03*
X0571752Y0306004D02*
D03*
X0550000D02*
D03*
X0529528Y0306299D02*
D03*
D32*
X0636346Y0402051D02*
D03*
Y0311500D02*
D03*
X0408000D02*
D03*
Y0402051D02*
D03*
D33*
X0402441Y0261575D02*
D03*
X0467244D02*
D03*
X0609055Y0343012D02*
D03*
Y0352854D02*
D03*
Y0362697D02*
D03*
X0635433Y0343012D02*
D03*
Y0352854D02*
D03*
Y0362697D02*
D03*
D34*
X0409921Y0248110D02*
D03*
D35*
X0459764Y0247795D02*
D03*
D36*
X0424961Y0265079D02*
D03*
X0432953Y0265118D02*
D03*
X0440945D02*
D03*
X0448937D02*
D03*
X0420748Y0258071D02*
D03*
X0428740D02*
D03*
X0436732D02*
D03*
X0444724D02*
D03*
D37*
X0609055Y0372539D02*
D03*
X0635433D02*
D03*
D38*
X0554075Y0329173D02*
D03*
D39*
X0564075Y0329134D02*
D03*
X0574075D02*
D03*
D40*
X0529528Y0316299D02*
D03*
M02*
