G04*
G04 #@! TF.GenerationSoftware,Altium Limited,Altium Designer,18.1.9 (240)*
G04*
G04 Layer_Color=16711935*
%FSAX25Y25*%
%MOIN*%
G70*
G01*
G75*
%ADD13C,0.00394*%
%ADD57C,0.00591*%
D13*
X0449508Y0358169D02*
G03*
X0449508Y0358169I-0001969J0000000D01*
G01*
X0489075Y0379921D02*
G03*
X0489075Y0379921I-0001969J0000000D01*
G01*
X0442323Y0320866D02*
Y0326772D01*
Y0320866D02*
X0453346D01*
Y0326772D01*
X0442323D02*
X0453346D01*
X0403031Y0287008D02*
X0403228Y0287205D01*
X0466614D01*
Y0227874D02*
Y0287205D01*
X0403031Y0227874D02*
Y0287008D01*
Y0227874D02*
X0466614D01*
X0431791Y0361713D02*
X0451083D01*
X0431791Y0346358D02*
X0451083D01*
X0431791D02*
Y0361713D01*
X0451083Y0346358D02*
Y0361713D01*
X0483563Y0383465D02*
X0513484D01*
X0483563Y0337402D02*
X0513484D01*
Y0383465D01*
X0483563Y0337402D02*
Y0383465D01*
X0599874Y0382161D02*
X0622394D01*
X0599835Y0382122D02*
X0599874Y0382161D01*
X0599835Y0333382D02*
Y0382122D01*
Y0333382D02*
X0599874Y0333343D01*
X0622315D01*
X0622433Y0333461D01*
Y0382122D01*
X0622394Y0382161D02*
X0622433Y0382122D01*
X0626252Y0382161D02*
X0648772D01*
X0626213Y0382122D02*
X0626252Y0382161D01*
X0626213Y0333382D02*
Y0382122D01*
Y0333382D02*
X0626252Y0333343D01*
X0648693D01*
X0648811Y0333461D01*
Y0382122D01*
X0648772Y0382161D02*
X0648811Y0382122D01*
X0469376Y0314147D02*
X0494876D01*
X0469376Y0331147D02*
X0494876D01*
Y0314147D02*
Y0331147D01*
X0469376Y0314147D02*
Y0331147D01*
X0526285Y0377911D02*
X0531785D01*
Y0389411D01*
X0526285D02*
X0531785D01*
X0526285Y0377911D02*
Y0389411D01*
X0447342Y0382382D02*
Y0388287D01*
X0436319D02*
X0447342D01*
X0436319Y0382382D02*
Y0388287D01*
Y0382382D02*
X0447342D01*
X0435785Y0371758D02*
Y0377258D01*
Y0371758D02*
X0447285D01*
Y0377258D01*
X0435785D02*
X0447285D01*
X0533268Y0358957D02*
X0539173D01*
Y0369980D01*
X0533268D02*
X0539173D01*
X0533268Y0358957D02*
Y0369980D01*
Y0381988D02*
X0539173D01*
X0533268Y0370965D02*
Y0381988D01*
Y0370965D02*
X0539173D01*
Y0381988D01*
X0532972Y0352756D02*
X0538878D01*
X0532972Y0341732D02*
Y0352756D01*
Y0341732D02*
X0538878D01*
Y0352756D01*
X0454528Y0336614D02*
X0460433D01*
Y0347638D01*
X0454528D02*
X0460433D01*
X0454528Y0336614D02*
Y0347638D01*
X0497644Y0316789D02*
X0503144D01*
Y0328289D01*
X0497644D02*
X0503144D01*
X0497644Y0316789D02*
Y0328289D01*
X0487837Y0307092D02*
Y0312593D01*
X0476337D02*
X0487837D01*
X0476337Y0307092D02*
Y0312593D01*
Y0307092D02*
X0487837D01*
X0542224Y0323228D02*
X0556496D01*
X0585925Y0345276D02*
Y0372441D01*
X0542224Y0390158D02*
X0585925D01*
X0542224Y0323228D02*
Y0390158D01*
X0585925Y0372441D02*
Y0390158D01*
X0556496Y0323228D02*
X0578839D01*
X0585925Y0323228D02*
Y0345276D01*
X0578839Y0323228D02*
X0585925Y0323228D01*
X0572342Y0314370D02*
Y0320276D01*
Y0314370D02*
X0583366D01*
Y0320276D01*
X0572342D02*
X0583366D01*
X0548622Y0313878D02*
Y0319783D01*
Y0313878D02*
X0559646D01*
Y0319783D01*
X0548622D02*
X0559646D01*
X0416142Y0376083D02*
X0422047D01*
Y0387106D01*
X0416142D02*
X0422047D01*
X0416142Y0376083D02*
Y0387106D01*
X0443504Y0322244D02*
Y0324605D01*
X0444685D01*
X0445078Y0324212D01*
Y0323425D01*
X0444685Y0323031D01*
X0443504D01*
X0444291D02*
X0445078Y0322244D01*
X0447440Y0324605D02*
X0446653Y0324212D01*
X0445865Y0323425D01*
Y0322638D01*
X0446259Y0322244D01*
X0447046D01*
X0447440Y0322638D01*
Y0323031D01*
X0447046Y0323425D01*
X0445865D01*
X0454488Y0234095D02*
Y0238030D01*
X0452520D01*
X0451864Y0237374D01*
Y0236062D01*
X0452520Y0235406D01*
X0454488D01*
X0447929Y0234095D02*
X0450553D01*
X0447929Y0236718D01*
Y0237374D01*
X0448585Y0238030D01*
X0449896D01*
X0450553Y0237374D01*
X0474576Y0325583D02*
X0477199Y0321647D01*
Y0325583D02*
X0474576Y0321647D01*
X0478511D02*
X0479823D01*
X0479167D01*
Y0325583D01*
X0478511Y0324927D01*
X0528068Y0381486D02*
X0527674Y0381092D01*
Y0380305D01*
X0528068Y0379911D01*
X0529642D01*
X0530035Y0380305D01*
Y0381092D01*
X0529642Y0381486D01*
X0530035Y0382273D02*
Y0383060D01*
Y0382666D01*
X0527674D01*
X0528068Y0382273D01*
X0446161Y0386910D02*
Y0384548D01*
X0444981D01*
X0444587Y0384942D01*
Y0385729D01*
X0444981Y0386122D01*
X0446161D01*
X0445374D02*
X0444587Y0386910D01*
X0443800D02*
X0443013D01*
X0443406D01*
Y0384548D01*
X0443800Y0384942D01*
X0439360Y0375476D02*
X0438966Y0375869D01*
X0438179D01*
X0437785Y0375476D01*
Y0373901D01*
X0438179Y0373508D01*
X0438966D01*
X0439360Y0373901D01*
X0441721Y0373508D02*
X0440147D01*
X0441721Y0375082D01*
Y0375476D01*
X0441328Y0375869D01*
X0440540D01*
X0440147Y0375476D01*
X0537795Y0360138D02*
X0535434D01*
Y0361318D01*
X0535827Y0361712D01*
X0536615D01*
X0537008Y0361318D01*
Y0360138D01*
Y0360925D02*
X0537795Y0361712D01*
X0535827Y0362499D02*
X0535434Y0362893D01*
Y0363680D01*
X0535827Y0364073D01*
X0536221D01*
X0536615Y0363680D01*
Y0363286D01*
Y0363680D01*
X0537008Y0364073D01*
X0537402D01*
X0537795Y0363680D01*
Y0362893D01*
X0537402Y0362499D01*
X0534646Y0380807D02*
X0537007D01*
Y0379626D01*
X0536614Y0379233D01*
X0535826D01*
X0535433Y0379626D01*
Y0380807D01*
Y0380020D02*
X0534646Y0379233D01*
Y0376871D02*
Y0378446D01*
X0536220Y0376871D01*
X0536614D01*
X0537007Y0377265D01*
Y0378052D01*
X0536614Y0378446D01*
X0534350Y0351575D02*
X0536712D01*
Y0350394D01*
X0536318Y0350001D01*
X0535531D01*
X0535138Y0350394D01*
Y0351575D01*
Y0350788D02*
X0534350Y0350001D01*
Y0348033D02*
X0536712D01*
X0535531Y0349213D01*
Y0347639D01*
X0459055Y0337795D02*
X0456694D01*
Y0338976D01*
X0457087Y0339370D01*
X0457874D01*
X0458268Y0338976D01*
Y0337795D01*
Y0338582D02*
X0459055Y0339370D01*
X0456694Y0341731D02*
Y0340157D01*
X0457874D01*
X0457481Y0340944D01*
Y0341337D01*
X0457874Y0341731D01*
X0458662D01*
X0459055Y0341337D01*
Y0340550D01*
X0458662Y0340157D01*
X0499426Y0320364D02*
X0499032Y0319970D01*
Y0319183D01*
X0499426Y0318789D01*
X0501000D01*
X0501394Y0319183D01*
Y0319970D01*
X0501000Y0320364D01*
X0501394Y0322332D02*
X0499032D01*
X0500213Y0321151D01*
Y0322725D01*
X0484262Y0308875D02*
X0484656Y0308481D01*
X0485443D01*
X0485837Y0308875D01*
Y0310449D01*
X0485443Y0310842D01*
X0484656D01*
X0484262Y0310449D01*
X0483475Y0308875D02*
X0483082Y0308481D01*
X0482294D01*
X0481901Y0308875D01*
Y0309268D01*
X0482294Y0309662D01*
X0482688D01*
X0482294D01*
X0481901Y0310055D01*
Y0310449D01*
X0482294Y0310842D01*
X0483082D01*
X0483475Y0310449D01*
X0573524Y0315748D02*
Y0318109D01*
X0574704D01*
X0575098Y0317716D01*
Y0316929D01*
X0574704Y0316535D01*
X0573524D01*
X0574311D02*
X0575098Y0315748D01*
X0575885Y0318109D02*
X0577459D01*
Y0317716D01*
X0575885Y0316142D01*
Y0315748D01*
X0549803Y0315256D02*
Y0317617D01*
X0550984D01*
X0551377Y0317224D01*
Y0316437D01*
X0550984Y0316043D01*
X0549803D01*
X0550590D02*
X0551377Y0315256D01*
X0552165Y0317224D02*
X0552558Y0317617D01*
X0553345D01*
X0553739Y0317224D01*
Y0316830D01*
X0553345Y0316437D01*
X0553739Y0316043D01*
Y0315650D01*
X0553345Y0315256D01*
X0552558D01*
X0552165Y0315650D01*
Y0316043D01*
X0552558Y0316437D01*
X0552165Y0316830D01*
Y0317224D01*
X0552558Y0316437D02*
X0553345D01*
X0420669Y0377264D02*
X0418308D01*
Y0378445D01*
X0418701Y0378838D01*
X0419489D01*
X0419882Y0378445D01*
Y0377264D01*
Y0378051D02*
X0420669Y0378838D01*
X0420276Y0379625D02*
X0420669Y0380019D01*
Y0380806D01*
X0420276Y0381200D01*
X0418701D01*
X0418308Y0380806D01*
Y0380019D01*
X0418701Y0379625D01*
X0419095D01*
X0419489Y0380019D01*
Y0381200D01*
D57*
X0432972Y0356888D02*
Y0352953D01*
X0433760Y0352165D01*
X0435334D01*
X0436121Y0352953D01*
Y0356888D01*
X0440844Y0352165D02*
X0437695D01*
X0440844Y0355314D01*
Y0356101D01*
X0440057Y0356888D01*
X0438483D01*
X0437695Y0356101D01*
X0494727Y0341496D02*
X0501287D01*
X0502598Y0342808D01*
Y0345432D01*
X0501287Y0346744D01*
X0494727D01*
X0502598Y0349367D02*
Y0351991D01*
Y0350679D01*
X0494727D01*
X0496039Y0349367D01*
X0612472Y0378618D02*
X0620344D01*
Y0374682D01*
X0619032Y0373371D01*
X0616408D01*
X0615096Y0374682D01*
Y0378618D01*
X0620344Y0365499D02*
Y0370747D01*
X0616408D01*
X0617720Y0368123D01*
Y0366811D01*
X0616408Y0365499D01*
X0613784D01*
X0612472Y0366811D01*
Y0369435D01*
X0613784Y0370747D01*
X0638850Y0378618D02*
X0646722D01*
Y0374682D01*
X0645410Y0373371D01*
X0642786D01*
X0641474Y0374682D01*
Y0378618D01*
X0638850Y0366811D02*
X0646722D01*
X0642786Y0370747D01*
Y0365499D01*
X0547342Y0375983D02*
Y0373688D01*
X0547802Y0373228D01*
X0548720D01*
X0549179Y0373688D01*
Y0375983D01*
X0550098Y0375524D02*
X0550557Y0375983D01*
X0551475D01*
X0551934Y0375524D01*
Y0375065D01*
X0551475Y0374606D01*
X0551016D01*
X0551475D01*
X0551934Y0374147D01*
Y0373688D01*
X0551475Y0373228D01*
X0550557D01*
X0550098Y0373688D01*
M02*
