G04*
G04 #@! TF.GenerationSoftware,Altium Limited,Altium Designer,18.1.9 (240)*
G04*
G04 Layer_Color=65535*
%FSAX25Y25*%
%MOIN*%
G70*
G01*
G75*
%ADD10C,0.00984*%
%ADD11C,0.02362*%
%ADD12C,0.01000*%
%ADD13C,0.00394*%
%ADD14C,0.00787*%
%ADD15C,0.00709*%
G36*
X0565252Y0389427D02*
X0565279Y0389418D01*
X0565314Y0389405D01*
X0565353Y0389392D01*
X0565401Y0389374D01*
X0565454Y0389353D01*
X0565510Y0389326D01*
X0565633Y0389265D01*
X0565755Y0389187D01*
X0565816Y0389138D01*
X0565877Y0389090D01*
X0565930Y0389038D01*
X0565982Y0388977D01*
X0565987Y0388972D01*
X0565995Y0388964D01*
X0566004Y0388942D01*
X0566022Y0388920D01*
X0566044Y0388885D01*
X0566065Y0388850D01*
X0566087Y0388802D01*
X0566109Y0388754D01*
X0566135Y0388697D01*
X0566157Y0388636D01*
X0566179Y0388570D01*
X0566201Y0388500D01*
X0566218Y0388426D01*
X0566227Y0388348D01*
X0566236Y0388264D01*
X0566240Y0388177D01*
Y0388129D01*
X0566236Y0388094D01*
Y0388055D01*
X0566231Y0388007D01*
X0566223Y0387954D01*
X0566214Y0387893D01*
X0566192Y0387766D01*
X0566157Y0387635D01*
X0566109Y0387504D01*
X0566079Y0387443D01*
X0566044Y0387382D01*
X0566039Y0387377D01*
X0566035Y0387369D01*
X0566022Y0387351D01*
X0566004Y0387334D01*
X0565987Y0387307D01*
X0565961Y0387277D01*
X0565930Y0387242D01*
X0565895Y0387207D01*
X0565856Y0387172D01*
X0565816Y0387133D01*
X0565716Y0387054D01*
X0565598Y0386980D01*
X0565467Y0386914D01*
X0565462D01*
X0565449Y0386905D01*
X0565427Y0386901D01*
X0565401Y0386888D01*
X0565366Y0386879D01*
X0565322Y0386866D01*
X0565274Y0386849D01*
X0565222Y0386835D01*
X0565165Y0386822D01*
X0565100Y0386805D01*
X0564964Y0386783D01*
X0564811Y0386766D01*
X0564654Y0386757D01*
X0564649D01*
X0564632D01*
X0564606D01*
X0564575Y0386761D01*
X0564532D01*
X0564488Y0386766D01*
X0564431Y0386770D01*
X0564374Y0386779D01*
X0564247Y0386801D01*
X0564108Y0386831D01*
X0563968Y0386875D01*
X0563832Y0386936D01*
X0563828Y0386940D01*
X0563815Y0386945D01*
X0563797Y0386953D01*
X0563775Y0386971D01*
X0563745Y0386988D01*
X0563710Y0387010D01*
X0563631Y0387067D01*
X0563544Y0387141D01*
X0563456Y0387229D01*
X0563369Y0387329D01*
X0563295Y0387447D01*
X0563290Y0387452D01*
X0563286Y0387465D01*
X0563277Y0387482D01*
X0563264Y0387504D01*
X0563251Y0387539D01*
X0563238Y0387574D01*
X0563221Y0387618D01*
X0563203Y0387666D01*
X0563186Y0387718D01*
X0563168Y0387775D01*
X0563142Y0387897D01*
X0563120Y0388037D01*
X0563111Y0388181D01*
Y0388225D01*
X0563116Y0388256D01*
X0563120Y0388295D01*
X0563124Y0388343D01*
X0563129Y0388391D01*
X0563142Y0388448D01*
X0563168Y0388566D01*
X0563207Y0388697D01*
X0563234Y0388763D01*
X0563264Y0388824D01*
X0563304Y0388885D01*
X0563343Y0388946D01*
X0563347Y0388950D01*
X0563352Y0388959D01*
X0563365Y0388977D01*
X0563386Y0388999D01*
X0563408Y0389020D01*
X0563439Y0389051D01*
X0563474Y0389082D01*
X0563509Y0389117D01*
X0563553Y0389152D01*
X0563605Y0389187D01*
X0563658Y0389226D01*
X0563714Y0389261D01*
X0563780Y0389291D01*
X0563845Y0389326D01*
X0563915Y0389353D01*
X0563994Y0389379D01*
X0564086Y0388985D01*
X0564081D01*
X0564073Y0388981D01*
X0564055Y0388972D01*
X0564033Y0388964D01*
X0564007Y0388955D01*
X0563972Y0388942D01*
X0563902Y0388907D01*
X0563824Y0388863D01*
X0563745Y0388811D01*
X0563671Y0388745D01*
X0563605Y0388675D01*
X0563596Y0388667D01*
X0563579Y0388640D01*
X0563557Y0388597D01*
X0563526Y0388540D01*
X0563500Y0388465D01*
X0563474Y0388382D01*
X0563456Y0388282D01*
X0563452Y0388173D01*
Y0388138D01*
X0563456Y0388116D01*
Y0388085D01*
X0563461Y0388050D01*
X0563474Y0387967D01*
X0563491Y0387876D01*
X0563522Y0387779D01*
X0563566Y0387679D01*
X0563623Y0387587D01*
Y0387583D01*
X0563631Y0387578D01*
X0563653Y0387548D01*
X0563688Y0387508D01*
X0563740Y0387460D01*
X0563806Y0387403D01*
X0563880Y0387351D01*
X0563972Y0387303D01*
X0564073Y0387259D01*
X0564077D01*
X0564086Y0387255D01*
X0564099Y0387251D01*
X0564121Y0387246D01*
X0564147Y0387238D01*
X0564178Y0387229D01*
X0564252Y0387216D01*
X0564339Y0387198D01*
X0564435Y0387181D01*
X0564540Y0387172D01*
X0564654Y0387168D01*
X0564658D01*
X0564671D01*
X0564693D01*
X0564719D01*
X0564750Y0387172D01*
X0564789D01*
X0564833Y0387176D01*
X0564881Y0387181D01*
X0564986Y0387194D01*
X0565100Y0387216D01*
X0565213Y0387242D01*
X0565327Y0387277D01*
X0565331D01*
X0565340Y0387281D01*
X0565353Y0387290D01*
X0565375Y0387299D01*
X0565427Y0387325D01*
X0565488Y0387364D01*
X0565558Y0387412D01*
X0565633Y0387474D01*
X0565698Y0387543D01*
X0565760Y0387626D01*
Y0387631D01*
X0565764Y0387639D01*
X0565773Y0387653D01*
X0565781Y0387670D01*
X0565790Y0387692D01*
X0565803Y0387718D01*
X0565829Y0387779D01*
X0565856Y0387858D01*
X0565877Y0387945D01*
X0565895Y0388042D01*
X0565899Y0388142D01*
Y0388173D01*
X0565895Y0388199D01*
Y0388229D01*
X0565891Y0388260D01*
X0565873Y0388339D01*
X0565851Y0388431D01*
X0565816Y0388522D01*
X0565768Y0388618D01*
X0565742Y0388667D01*
X0565707Y0388710D01*
X0565703Y0388715D01*
X0565698Y0388719D01*
X0565685Y0388732D01*
X0565672Y0388750D01*
X0565650Y0388767D01*
X0565624Y0388789D01*
X0565598Y0388815D01*
X0565563Y0388837D01*
X0565523Y0388863D01*
X0565480Y0388894D01*
X0565436Y0388920D01*
X0565384Y0388946D01*
X0565327Y0388968D01*
X0565266Y0388990D01*
X0565200Y0389012D01*
X0565130Y0389029D01*
X0565231Y0389431D01*
X0565235D01*
X0565252Y0389427D01*
D02*
G37*
G36*
X0565279Y0385271D02*
X0564907D01*
Y0386420D01*
X0565279D01*
Y0385271D01*
D02*
G37*
G36*
X0566188Y0384397D02*
X0564763D01*
Y0382833D01*
X0566188D01*
Y0382431D01*
X0563164D01*
Y0382833D01*
X0564405D01*
Y0384397D01*
X0563164D01*
Y0384799D01*
X0566188D01*
Y0384397D01*
D02*
G37*
G36*
X0565283Y0381893D02*
X0565309D01*
X0565379Y0381880D01*
X0565462Y0381867D01*
X0565550Y0381845D01*
X0565646Y0381814D01*
X0565738Y0381771D01*
X0565742D01*
X0565746Y0381766D01*
X0565760Y0381757D01*
X0565777Y0381749D01*
X0565821Y0381723D01*
X0565877Y0381683D01*
X0565939Y0381635D01*
X0566000Y0381578D01*
X0566061Y0381508D01*
X0566113Y0381434D01*
Y0381430D01*
X0566118Y0381425D01*
X0566126Y0381412D01*
X0566131Y0381395D01*
X0566153Y0381351D01*
X0566175Y0381294D01*
X0566201Y0381220D01*
X0566218Y0381137D01*
X0566236Y0381045D01*
X0566240Y0380945D01*
Y0380923D01*
X0566236Y0380901D01*
Y0380866D01*
X0566231Y0380827D01*
X0566223Y0380783D01*
X0566210Y0380731D01*
X0566196Y0380678D01*
X0566179Y0380617D01*
X0566157Y0380556D01*
X0566131Y0380495D01*
X0566096Y0380429D01*
X0566057Y0380368D01*
X0566013Y0380307D01*
X0565961Y0380245D01*
X0565899Y0380189D01*
X0565895Y0380184D01*
X0565882Y0380176D01*
X0565864Y0380163D01*
X0565834Y0380145D01*
X0565794Y0380119D01*
X0565751Y0380097D01*
X0565694Y0380071D01*
X0565633Y0380045D01*
X0565558Y0380014D01*
X0565475Y0379988D01*
X0565384Y0379966D01*
X0565283Y0379944D01*
X0565169Y0379922D01*
X0565047Y0379909D01*
X0564916Y0379900D01*
X0564776Y0379896D01*
X0564772D01*
X0564768D01*
X0564754D01*
X0564737D01*
X0564693Y0379900D01*
X0564632D01*
X0564562Y0379905D01*
X0564479Y0379913D01*
X0564387Y0379922D01*
X0564287Y0379935D01*
X0564186Y0379953D01*
X0564077Y0379975D01*
X0563972Y0380001D01*
X0563867Y0380031D01*
X0563767Y0380071D01*
X0563671Y0380114D01*
X0563579Y0380163D01*
X0563500Y0380219D01*
X0563496Y0380224D01*
X0563487Y0380232D01*
X0563470Y0380250D01*
X0563443Y0380272D01*
X0563417Y0380298D01*
X0563391Y0380333D01*
X0563356Y0380377D01*
X0563325Y0380420D01*
X0563295Y0380473D01*
X0563260Y0380529D01*
X0563234Y0380595D01*
X0563203Y0380661D01*
X0563181Y0380735D01*
X0563164Y0380814D01*
X0563155Y0380897D01*
X0563151Y0380984D01*
Y0381019D01*
X0563155Y0381045D01*
Y0381076D01*
X0563159Y0381111D01*
X0563177Y0381194D01*
X0563199Y0381286D01*
X0563234Y0381382D01*
X0563286Y0381478D01*
X0563317Y0381526D01*
X0563352Y0381570D01*
X0563356Y0381574D01*
X0563360Y0381578D01*
X0563373Y0381591D01*
X0563386Y0381605D01*
X0563408Y0381626D01*
X0563435Y0381644D01*
X0563496Y0381692D01*
X0563575Y0381740D01*
X0563671Y0381784D01*
X0563780Y0381823D01*
X0563902Y0381849D01*
X0563933Y0381478D01*
X0563928D01*
X0563924Y0381473D01*
X0563898Y0381469D01*
X0563859Y0381456D01*
X0563810Y0381438D01*
X0563758Y0381421D01*
X0563706Y0381395D01*
X0563658Y0381364D01*
X0563618Y0381334D01*
X0563609Y0381325D01*
X0563592Y0381307D01*
X0563566Y0381277D01*
X0563535Y0381233D01*
X0563509Y0381176D01*
X0563483Y0381115D01*
X0563465Y0381041D01*
X0563456Y0380962D01*
Y0380932D01*
X0563461Y0380897D01*
X0563470Y0380857D01*
X0563483Y0380805D01*
X0563500Y0380752D01*
X0563522Y0380700D01*
X0563557Y0380647D01*
X0563561Y0380639D01*
X0563579Y0380617D01*
X0563609Y0380586D01*
X0563653Y0380547D01*
X0563706Y0380503D01*
X0563767Y0380455D01*
X0563845Y0380412D01*
X0563933Y0380368D01*
X0563937D01*
X0563946Y0380363D01*
X0563959Y0380359D01*
X0563976Y0380350D01*
X0564003Y0380346D01*
X0564033Y0380337D01*
X0564068Y0380328D01*
X0564112Y0380320D01*
X0564160Y0380307D01*
X0564213Y0380298D01*
X0564269Y0380289D01*
X0564330Y0380285D01*
X0564400Y0380276D01*
X0564470Y0380272D01*
X0564549Y0380267D01*
X0564628D01*
X0564623Y0380272D01*
X0564597Y0380289D01*
X0564562Y0380320D01*
X0564518Y0380359D01*
X0564466Y0380403D01*
X0564418Y0380460D01*
X0564370Y0380521D01*
X0564326Y0380591D01*
Y0380595D01*
X0564322Y0380599D01*
X0564309Y0380626D01*
X0564295Y0380665D01*
X0564274Y0380717D01*
X0564256Y0380779D01*
X0564243Y0380849D01*
X0564230Y0380923D01*
X0564226Y0381001D01*
Y0381036D01*
X0564230Y0381063D01*
X0564234Y0381098D01*
X0564239Y0381133D01*
X0564247Y0381176D01*
X0564260Y0381220D01*
X0564291Y0381321D01*
X0564313Y0381373D01*
X0564344Y0381425D01*
X0564374Y0381478D01*
X0564409Y0381535D01*
X0564453Y0381587D01*
X0564501Y0381635D01*
X0564505Y0381640D01*
X0564514Y0381648D01*
X0564527Y0381661D01*
X0564549Y0381675D01*
X0564580Y0381696D01*
X0564610Y0381718D01*
X0564649Y0381740D01*
X0564693Y0381766D01*
X0564741Y0381792D01*
X0564794Y0381814D01*
X0564855Y0381836D01*
X0564916Y0381858D01*
X0564982Y0381871D01*
X0565056Y0381884D01*
X0565130Y0381893D01*
X0565209Y0381897D01*
X0565213D01*
X0565222D01*
X0565235D01*
X0565257D01*
X0565283Y0381893D01*
D02*
G37*
G36*
X0565362Y0379542D02*
X0565397Y0379538D01*
X0565436Y0379529D01*
X0565480Y0379520D01*
X0565528Y0379511D01*
X0565633Y0379476D01*
X0565690Y0379450D01*
X0565742Y0379424D01*
X0565799Y0379389D01*
X0565856Y0379350D01*
X0565912Y0379306D01*
X0565965Y0379254D01*
X0565969Y0379249D01*
X0565978Y0379240D01*
X0565991Y0379223D01*
X0566009Y0379201D01*
X0566030Y0379175D01*
X0566052Y0379140D01*
X0566079Y0379101D01*
X0566100Y0379052D01*
X0566126Y0379004D01*
X0566153Y0378948D01*
X0566175Y0378891D01*
X0566196Y0378825D01*
X0566214Y0378755D01*
X0566227Y0378681D01*
X0566236Y0378607D01*
X0566240Y0378524D01*
Y0378484D01*
X0566236Y0378458D01*
X0566231Y0378423D01*
X0566227Y0378384D01*
X0566218Y0378340D01*
X0566210Y0378292D01*
X0566183Y0378187D01*
X0566140Y0378078D01*
X0566113Y0378021D01*
X0566083Y0377969D01*
X0566044Y0377916D01*
X0566004Y0377864D01*
X0566000Y0377859D01*
X0565991Y0377851D01*
X0565978Y0377838D01*
X0565961Y0377824D01*
X0565939Y0377803D01*
X0565908Y0377781D01*
X0565877Y0377755D01*
X0565838Y0377728D01*
X0565794Y0377702D01*
X0565751Y0377676D01*
X0565646Y0377628D01*
X0565523Y0377589D01*
X0565458Y0377575D01*
X0565388Y0377567D01*
X0565340Y0377938D01*
X0565344D01*
X0565353Y0377942D01*
X0565371Y0377947D01*
X0565392Y0377951D01*
X0565419Y0377956D01*
X0565449Y0377964D01*
X0565515Y0377986D01*
X0565593Y0378017D01*
X0565668Y0378056D01*
X0565738Y0378100D01*
X0565799Y0378152D01*
X0565803Y0378161D01*
X0565821Y0378179D01*
X0565842Y0378213D01*
X0565864Y0378257D01*
X0565891Y0378310D01*
X0565912Y0378375D01*
X0565930Y0378449D01*
X0565934Y0378528D01*
Y0378554D01*
X0565930Y0378572D01*
X0565926Y0378620D01*
X0565912Y0378681D01*
X0565891Y0378751D01*
X0565860Y0378825D01*
X0565816Y0378900D01*
X0565755Y0378970D01*
X0565746Y0378978D01*
X0565720Y0379000D01*
X0565681Y0379026D01*
X0565628Y0379061D01*
X0565563Y0379096D01*
X0565488Y0379122D01*
X0565401Y0379144D01*
X0565305Y0379153D01*
X0565301D01*
X0565292D01*
X0565279D01*
X0565261Y0379149D01*
X0565213Y0379144D01*
X0565156Y0379131D01*
X0565087Y0379114D01*
X0565017Y0379083D01*
X0564947Y0379039D01*
X0564881Y0378983D01*
X0564872Y0378974D01*
X0564855Y0378952D01*
X0564829Y0378917D01*
X0564798Y0378869D01*
X0564768Y0378808D01*
X0564741Y0378733D01*
X0564724Y0378650D01*
X0564715Y0378559D01*
Y0378519D01*
X0564719Y0378489D01*
X0564724Y0378449D01*
X0564733Y0378406D01*
X0564741Y0378353D01*
X0564754Y0378296D01*
X0564427Y0378340D01*
Y0378362D01*
X0564431Y0378380D01*
Y0378436D01*
X0564422Y0378484D01*
X0564413Y0378541D01*
X0564400Y0378607D01*
X0564378Y0378681D01*
X0564348Y0378751D01*
X0564309Y0378825D01*
Y0378830D01*
X0564304Y0378834D01*
X0564287Y0378856D01*
X0564256Y0378886D01*
X0564217Y0378921D01*
X0564160Y0378956D01*
X0564094Y0378987D01*
X0564020Y0379009D01*
X0563976Y0379017D01*
X0563928D01*
X0563924D01*
X0563920D01*
X0563894D01*
X0563859Y0379009D01*
X0563810Y0379000D01*
X0563758Y0378983D01*
X0563701Y0378961D01*
X0563644Y0378926D01*
X0563592Y0378878D01*
X0563588Y0378873D01*
X0563570Y0378852D01*
X0563548Y0378821D01*
X0563522Y0378782D01*
X0563500Y0378729D01*
X0563478Y0378668D01*
X0563461Y0378598D01*
X0563456Y0378519D01*
Y0378484D01*
X0563465Y0378445D01*
X0563474Y0378393D01*
X0563491Y0378336D01*
X0563513Y0378279D01*
X0563548Y0378218D01*
X0563592Y0378161D01*
X0563596Y0378157D01*
X0563618Y0378139D01*
X0563649Y0378113D01*
X0563693Y0378082D01*
X0563749Y0378052D01*
X0563819Y0378021D01*
X0563902Y0377995D01*
X0563998Y0377977D01*
X0563933Y0377606D01*
X0563928D01*
X0563915Y0377610D01*
X0563898Y0377615D01*
X0563872Y0377619D01*
X0563841Y0377628D01*
X0563806Y0377641D01*
X0563723Y0377667D01*
X0563627Y0377711D01*
X0563531Y0377763D01*
X0563439Y0377829D01*
X0563356Y0377912D01*
X0563352Y0377916D01*
X0563347Y0377925D01*
X0563339Y0377938D01*
X0563325Y0377956D01*
X0563308Y0377977D01*
X0563290Y0378008D01*
X0563273Y0378039D01*
X0563251Y0378078D01*
X0563216Y0378165D01*
X0563181Y0378266D01*
X0563159Y0378384D01*
X0563151Y0378445D01*
Y0378554D01*
X0563155Y0378602D01*
X0563164Y0378659D01*
X0563177Y0378729D01*
X0563199Y0378808D01*
X0563225Y0378886D01*
X0563260Y0378965D01*
Y0378970D01*
X0563264Y0378974D01*
X0563277Y0379000D01*
X0563304Y0379039D01*
X0563334Y0379083D01*
X0563378Y0379135D01*
X0563426Y0379188D01*
X0563483Y0379240D01*
X0563548Y0379284D01*
X0563557Y0379289D01*
X0563579Y0379302D01*
X0563618Y0379319D01*
X0563666Y0379341D01*
X0563723Y0379363D01*
X0563789Y0379380D01*
X0563863Y0379393D01*
X0563937Y0379398D01*
X0563946D01*
X0563972D01*
X0564007Y0379393D01*
X0564055Y0379385D01*
X0564112Y0379372D01*
X0564173Y0379350D01*
X0564234Y0379323D01*
X0564295Y0379289D01*
X0564304Y0379284D01*
X0564322Y0379271D01*
X0564352Y0379245D01*
X0564387Y0379210D01*
X0564427Y0379166D01*
X0564470Y0379114D01*
X0564510Y0379052D01*
X0564549Y0378978D01*
Y0378983D01*
X0564553Y0378991D01*
X0564558Y0379004D01*
X0564562Y0379022D01*
X0564580Y0379070D01*
X0564606Y0379131D01*
X0564641Y0379201D01*
X0564684Y0379271D01*
X0564741Y0379337D01*
X0564807Y0379398D01*
X0564816Y0379402D01*
X0564842Y0379420D01*
X0564886Y0379446D01*
X0564942Y0379472D01*
X0565012Y0379498D01*
X0565095Y0379524D01*
X0565191Y0379542D01*
X0565296Y0379546D01*
X0565301D01*
X0565314D01*
X0565336D01*
X0565362Y0379542D01*
D02*
G37*
G36*
X0566188Y0376509D02*
Y0376116D01*
X0563885Y0375482D01*
X0563880D01*
X0563872Y0375478D01*
X0563859Y0375473D01*
X0563837Y0375469D01*
X0563789Y0375456D01*
X0563732Y0375443D01*
X0563671Y0375425D01*
X0563614Y0375408D01*
X0563566Y0375395D01*
X0563544Y0375390D01*
X0563531Y0375386D01*
X0563535D01*
X0563540Y0375382D01*
X0563566Y0375377D01*
X0563605Y0375369D01*
X0563653Y0375356D01*
X0563706Y0375342D01*
X0563767Y0375325D01*
X0563828Y0375312D01*
X0563885Y0375294D01*
X0566188Y0374656D01*
Y0374237D01*
X0563164Y0373446D01*
Y0373861D01*
X0565148Y0374311D01*
X0565152D01*
X0565161Y0374315D01*
X0565178Y0374320D01*
X0565200Y0374324D01*
X0565231Y0374328D01*
X0565261Y0374337D01*
X0565301Y0374346D01*
X0565344Y0374355D01*
X0565436Y0374377D01*
X0565541Y0374398D01*
X0565655Y0374420D01*
X0565768Y0374442D01*
X0565764D01*
X0565746Y0374447D01*
X0565725Y0374455D01*
X0565690Y0374460D01*
X0565655Y0374468D01*
X0565611Y0374482D01*
X0565515Y0374503D01*
X0565419Y0374530D01*
X0565371Y0374538D01*
X0565327Y0374551D01*
X0565287Y0374560D01*
X0565252Y0374569D01*
X0565226Y0374578D01*
X0565209Y0374582D01*
X0563164Y0375154D01*
Y0375640D01*
X0564698Y0376068D01*
X0564702D01*
X0564724Y0376077D01*
X0564754Y0376085D01*
X0564794Y0376094D01*
X0564846Y0376107D01*
X0564903Y0376125D01*
X0564968Y0376142D01*
X0565043Y0376160D01*
X0565126Y0376181D01*
X0565209Y0376199D01*
X0565388Y0376238D01*
X0565576Y0376277D01*
X0565768Y0376308D01*
X0565764D01*
X0565755Y0376312D01*
X0565738D01*
X0565716Y0376321D01*
X0565690Y0376326D01*
X0565659Y0376334D01*
X0565620Y0376339D01*
X0565576Y0376352D01*
X0565480Y0376374D01*
X0565366Y0376400D01*
X0565244Y0376426D01*
X0565108Y0376461D01*
X0563164Y0376933D01*
Y0377339D01*
X0566188Y0376509D01*
D02*
G37*
G36*
X0565279Y0372122D02*
X0564907D01*
Y0373271D01*
X0565279D01*
Y0372122D01*
D02*
G37*
G36*
X0565235Y0371816D02*
X0565270Y0371811D01*
X0565309Y0371807D01*
X0565357Y0371798D01*
X0565406Y0371790D01*
X0565519Y0371763D01*
X0565637Y0371720D01*
X0565698Y0371693D01*
X0565755Y0371658D01*
X0565816Y0371623D01*
X0565873Y0371580D01*
X0565877Y0371575D01*
X0565891Y0371567D01*
X0565908Y0371549D01*
X0565930Y0371527D01*
X0565956Y0371497D01*
X0565991Y0371462D01*
X0566022Y0371418D01*
X0566057Y0371370D01*
X0566092Y0371318D01*
X0566122Y0371256D01*
X0566153Y0371191D01*
X0566183Y0371121D01*
X0566205Y0371047D01*
X0566223Y0370964D01*
X0566236Y0370876D01*
X0566240Y0370784D01*
Y0370745D01*
X0566236Y0370714D01*
X0566231Y0370680D01*
X0566227Y0370640D01*
X0566223Y0370592D01*
X0566210Y0370544D01*
X0566183Y0370435D01*
X0566144Y0370326D01*
X0566118Y0370269D01*
X0566087Y0370212D01*
X0566052Y0370160D01*
X0566013Y0370107D01*
X0566009Y0370103D01*
X0566004Y0370094D01*
X0565987Y0370085D01*
X0565969Y0370068D01*
X0565947Y0370046D01*
X0565921Y0370024D01*
X0565886Y0369998D01*
X0565847Y0369976D01*
X0565807Y0369950D01*
X0565760Y0369923D01*
X0565655Y0369876D01*
X0565532Y0369836D01*
X0565467Y0369823D01*
X0565397Y0369814D01*
X0565366Y0370203D01*
X0565371D01*
X0565379D01*
X0565392Y0370208D01*
X0565414Y0370212D01*
X0565462Y0370225D01*
X0565528Y0370243D01*
X0565593Y0370269D01*
X0565668Y0370304D01*
X0565733Y0370347D01*
X0565794Y0370400D01*
X0565799Y0370409D01*
X0565816Y0370426D01*
X0565838Y0370461D01*
X0565864Y0370509D01*
X0565891Y0370562D01*
X0565912Y0370627D01*
X0565930Y0370701D01*
X0565934Y0370784D01*
Y0370811D01*
X0565930Y0370828D01*
X0565926Y0370881D01*
X0565908Y0370942D01*
X0565886Y0371016D01*
X0565851Y0371090D01*
X0565799Y0371169D01*
X0565768Y0371204D01*
X0565733Y0371239D01*
X0565729Y0371243D01*
X0565725Y0371248D01*
X0565711Y0371256D01*
X0565698Y0371269D01*
X0565650Y0371300D01*
X0565589Y0371335D01*
X0565515Y0371366D01*
X0565423Y0371396D01*
X0565314Y0371418D01*
X0565257Y0371427D01*
X0565196D01*
X0565191D01*
X0565183D01*
X0565165D01*
X0565143Y0371423D01*
X0565117D01*
X0565087Y0371418D01*
X0565017Y0371405D01*
X0564933Y0371383D01*
X0564851Y0371353D01*
X0564772Y0371309D01*
X0564698Y0371248D01*
X0564693D01*
X0564689Y0371239D01*
X0564667Y0371217D01*
X0564636Y0371178D01*
X0564601Y0371125D01*
X0564571Y0371055D01*
X0564540Y0370977D01*
X0564518Y0370885D01*
X0564510Y0370832D01*
Y0370749D01*
X0564514Y0370714D01*
X0564518Y0370671D01*
X0564532Y0370618D01*
X0564545Y0370566D01*
X0564566Y0370509D01*
X0564593Y0370452D01*
X0564597Y0370448D01*
X0564606Y0370430D01*
X0564628Y0370404D01*
X0564649Y0370369D01*
X0564680Y0370334D01*
X0564719Y0370299D01*
X0564759Y0370260D01*
X0564807Y0370229D01*
X0564759Y0369880D01*
X0563203Y0370173D01*
Y0371676D01*
X0563557D01*
Y0370465D01*
X0564374Y0370304D01*
X0564370Y0370308D01*
X0564365Y0370317D01*
X0564357Y0370330D01*
X0564344Y0370352D01*
X0564330Y0370378D01*
X0564313Y0370409D01*
X0564278Y0370479D01*
X0564243Y0370566D01*
X0564213Y0370662D01*
X0564191Y0370767D01*
X0564182Y0370819D01*
Y0370916D01*
X0564186Y0370942D01*
X0564191Y0370977D01*
X0564195Y0371016D01*
X0564204Y0371060D01*
X0564217Y0371108D01*
X0564247Y0371213D01*
X0564269Y0371269D01*
X0564300Y0371326D01*
X0564330Y0371383D01*
X0564365Y0371440D01*
X0564409Y0371492D01*
X0564457Y0371545D01*
X0564462Y0371549D01*
X0564470Y0371558D01*
X0564483Y0371571D01*
X0564505Y0371588D01*
X0564536Y0371610D01*
X0564566Y0371632D01*
X0564606Y0371658D01*
X0564649Y0371685D01*
X0564698Y0371707D01*
X0564750Y0371733D01*
X0564811Y0371755D01*
X0564872Y0371776D01*
X0564938Y0371794D01*
X0565012Y0371807D01*
X0565087Y0371816D01*
X0565165Y0371820D01*
X0565169D01*
X0565183D01*
X0565204D01*
X0565235Y0371816D01*
D02*
G37*
G36*
X0566188Y0368848D02*
X0565764D01*
Y0369272D01*
X0566188D01*
Y0368848D01*
D02*
G37*
G36*
Y0367315D02*
X0563824D01*
X0563828Y0367310D01*
X0563845Y0367288D01*
X0563872Y0367262D01*
X0563902Y0367218D01*
X0563941Y0367170D01*
X0563985Y0367109D01*
X0564033Y0367039D01*
X0564081Y0366961D01*
Y0366956D01*
X0564086Y0366952D01*
X0564103Y0366926D01*
X0564125Y0366882D01*
X0564151Y0366830D01*
X0564182Y0366768D01*
X0564213Y0366703D01*
X0564243Y0366637D01*
X0564269Y0366572D01*
X0563911D01*
Y0366576D01*
X0563902Y0366585D01*
X0563898Y0366602D01*
X0563885Y0366624D01*
X0563872Y0366650D01*
X0563854Y0366681D01*
X0563810Y0366755D01*
X0563762Y0366843D01*
X0563701Y0366930D01*
X0563631Y0367022D01*
X0563557Y0367114D01*
X0563553Y0367118D01*
X0563548Y0367122D01*
X0563535Y0367136D01*
X0563522Y0367153D01*
X0563478Y0367192D01*
X0563426Y0367245D01*
X0563365Y0367297D01*
X0563295Y0367354D01*
X0563225Y0367402D01*
X0563151Y0367446D01*
Y0367686D01*
X0566188D01*
Y0367315D01*
D02*
G37*
G36*
X0566240Y0365234D02*
Y0364937D01*
X0563111Y0365816D01*
Y0366113D01*
X0566240Y0365234D01*
D02*
G37*
G36*
X0565235Y0364763D02*
X0565270Y0364758D01*
X0565309Y0364754D01*
X0565357Y0364745D01*
X0565406Y0364736D01*
X0565519Y0364710D01*
X0565637Y0364666D01*
X0565698Y0364640D01*
X0565755Y0364605D01*
X0565816Y0364570D01*
X0565873Y0364527D01*
X0565877Y0364522D01*
X0565891Y0364513D01*
X0565908Y0364496D01*
X0565930Y0364474D01*
X0565956Y0364444D01*
X0565991Y0364409D01*
X0566022Y0364365D01*
X0566057Y0364317D01*
X0566092Y0364264D01*
X0566122Y0364203D01*
X0566153Y0364138D01*
X0566183Y0364068D01*
X0566205Y0363994D01*
X0566223Y0363910D01*
X0566236Y0363823D01*
X0566240Y0363731D01*
Y0363692D01*
X0566236Y0363661D01*
X0566231Y0363626D01*
X0566227Y0363587D01*
X0566223Y0363539D01*
X0566210Y0363491D01*
X0566183Y0363382D01*
X0566144Y0363272D01*
X0566118Y0363216D01*
X0566087Y0363159D01*
X0566052Y0363106D01*
X0566013Y0363054D01*
X0566009Y0363050D01*
X0566004Y0363041D01*
X0565987Y0363032D01*
X0565969Y0363015D01*
X0565947Y0362993D01*
X0565921Y0362971D01*
X0565886Y0362945D01*
X0565847Y0362923D01*
X0565807Y0362897D01*
X0565760Y0362870D01*
X0565655Y0362822D01*
X0565532Y0362783D01*
X0565467Y0362770D01*
X0565397Y0362761D01*
X0565366Y0363150D01*
X0565371D01*
X0565379D01*
X0565392Y0363154D01*
X0565414Y0363159D01*
X0565462Y0363172D01*
X0565528Y0363189D01*
X0565593Y0363216D01*
X0565668Y0363251D01*
X0565733Y0363294D01*
X0565794Y0363347D01*
X0565799Y0363355D01*
X0565816Y0363373D01*
X0565838Y0363408D01*
X0565864Y0363456D01*
X0565891Y0363508D01*
X0565912Y0363574D01*
X0565930Y0363648D01*
X0565934Y0363731D01*
Y0363757D01*
X0565930Y0363775D01*
X0565926Y0363827D01*
X0565908Y0363889D01*
X0565886Y0363963D01*
X0565851Y0364037D01*
X0565799Y0364116D01*
X0565768Y0364151D01*
X0565733Y0364186D01*
X0565729Y0364190D01*
X0565725Y0364194D01*
X0565711Y0364203D01*
X0565698Y0364216D01*
X0565650Y0364247D01*
X0565589Y0364282D01*
X0565515Y0364313D01*
X0565423Y0364343D01*
X0565314Y0364365D01*
X0565257Y0364374D01*
X0565196D01*
X0565191D01*
X0565183D01*
X0565165D01*
X0565143Y0364369D01*
X0565117D01*
X0565087Y0364365D01*
X0565017Y0364352D01*
X0564933Y0364330D01*
X0564851Y0364299D01*
X0564772Y0364256D01*
X0564698Y0364194D01*
X0564693D01*
X0564689Y0364186D01*
X0564667Y0364164D01*
X0564636Y0364125D01*
X0564601Y0364072D01*
X0564571Y0364002D01*
X0564540Y0363924D01*
X0564518Y0363832D01*
X0564510Y0363779D01*
Y0363696D01*
X0564514Y0363661D01*
X0564518Y0363618D01*
X0564532Y0363565D01*
X0564545Y0363513D01*
X0564566Y0363456D01*
X0564593Y0363399D01*
X0564597Y0363395D01*
X0564606Y0363377D01*
X0564628Y0363351D01*
X0564649Y0363316D01*
X0564680Y0363281D01*
X0564719Y0363246D01*
X0564759Y0363207D01*
X0564807Y0363176D01*
X0564759Y0362827D01*
X0563203Y0363120D01*
Y0364623D01*
X0563557D01*
Y0363412D01*
X0564374Y0363251D01*
X0564370Y0363255D01*
X0564365Y0363264D01*
X0564357Y0363277D01*
X0564344Y0363299D01*
X0564330Y0363325D01*
X0564313Y0363355D01*
X0564278Y0363425D01*
X0564243Y0363513D01*
X0564213Y0363609D01*
X0564191Y0363714D01*
X0564182Y0363766D01*
Y0363862D01*
X0564186Y0363889D01*
X0564191Y0363924D01*
X0564195Y0363963D01*
X0564204Y0364007D01*
X0564217Y0364055D01*
X0564247Y0364159D01*
X0564269Y0364216D01*
X0564300Y0364273D01*
X0564330Y0364330D01*
X0564365Y0364387D01*
X0564409Y0364439D01*
X0564457Y0364492D01*
X0564462Y0364496D01*
X0564470Y0364505D01*
X0564483Y0364518D01*
X0564505Y0364535D01*
X0564536Y0364557D01*
X0564566Y0364579D01*
X0564606Y0364605D01*
X0564649Y0364632D01*
X0564698Y0364653D01*
X0564750Y0364680D01*
X0564811Y0364701D01*
X0564872Y0364723D01*
X0564938Y0364741D01*
X0565012Y0364754D01*
X0565087Y0364763D01*
X0565165Y0364767D01*
X0565169D01*
X0565183D01*
X0565204D01*
X0565235Y0364763D01*
D02*
G37*
G36*
X0565279Y0361310D02*
X0564907D01*
Y0362460D01*
X0565279D01*
Y0361310D01*
D02*
G37*
G36*
X0566188Y0360620D02*
X0565558Y0360222D01*
X0565554D01*
X0565545Y0360213D01*
X0565532Y0360205D01*
X0565515Y0360192D01*
X0565467Y0360161D01*
X0565406Y0360122D01*
X0565340Y0360074D01*
X0565270Y0360026D01*
X0565204Y0359977D01*
X0565143Y0359934D01*
X0565139Y0359929D01*
X0565121Y0359916D01*
X0565095Y0359894D01*
X0565065Y0359864D01*
X0564999Y0359798D01*
X0564968Y0359763D01*
X0564942Y0359728D01*
X0564938Y0359724D01*
X0564933Y0359715D01*
X0564925Y0359698D01*
X0564912Y0359671D01*
X0564899Y0359645D01*
X0564886Y0359615D01*
X0564864Y0359545D01*
Y0359540D01*
X0564859Y0359532D01*
Y0359514D01*
X0564855Y0359492D01*
X0564851Y0359462D01*
Y0359427D01*
X0564846Y0359379D01*
Y0358863D01*
X0566188D01*
Y0358461D01*
X0563164D01*
Y0359864D01*
X0563168Y0359899D01*
Y0359938D01*
X0563172Y0360030D01*
X0563186Y0360126D01*
X0563199Y0360231D01*
X0563221Y0360327D01*
X0563234Y0360375D01*
X0563247Y0360414D01*
Y0360419D01*
X0563251Y0360423D01*
X0563264Y0360449D01*
X0563282Y0360489D01*
X0563312Y0360537D01*
X0563352Y0360589D01*
X0563404Y0360646D01*
X0563465Y0360699D01*
X0563535Y0360751D01*
X0563540D01*
X0563544Y0360755D01*
X0563570Y0360773D01*
X0563614Y0360790D01*
X0563671Y0360817D01*
X0563736Y0360838D01*
X0563815Y0360860D01*
X0563898Y0360873D01*
X0563990Y0360878D01*
X0563994D01*
X0564003D01*
X0564020D01*
X0564042Y0360873D01*
X0564073D01*
X0564103Y0360869D01*
X0564178Y0360851D01*
X0564265Y0360825D01*
X0564357Y0360790D01*
X0564448Y0360738D01*
X0564492Y0360703D01*
X0564536Y0360668D01*
X0564540Y0360664D01*
X0564545Y0360659D01*
X0564558Y0360646D01*
X0564571Y0360629D01*
X0564588Y0360607D01*
X0564606Y0360580D01*
X0564628Y0360545D01*
X0564654Y0360511D01*
X0564676Y0360467D01*
X0564698Y0360419D01*
X0564724Y0360366D01*
X0564746Y0360310D01*
X0564763Y0360244D01*
X0564785Y0360178D01*
X0564798Y0360104D01*
X0564811Y0360026D01*
X0564816Y0360034D01*
X0564824Y0360052D01*
X0564842Y0360078D01*
X0564859Y0360113D01*
X0564907Y0360192D01*
X0564938Y0360231D01*
X0564964Y0360266D01*
X0564973Y0360275D01*
X0564995Y0360296D01*
X0565030Y0360331D01*
X0565073Y0360375D01*
X0565135Y0360423D01*
X0565200Y0360480D01*
X0565279Y0360537D01*
X0565366Y0360598D01*
X0566188Y0361118D01*
Y0360620D01*
D02*
G37*
G36*
X0565427Y0357897D02*
X0565488Y0357889D01*
X0565558Y0357871D01*
X0565633Y0357849D01*
X0565711Y0357814D01*
X0565794Y0357766D01*
X0565799D01*
X0565803Y0357762D01*
X0565829Y0357740D01*
X0565869Y0357709D01*
X0565912Y0357666D01*
X0565965Y0357609D01*
X0566022Y0357539D01*
X0566074Y0357460D01*
X0566122Y0357368D01*
Y0357364D01*
X0566126Y0357355D01*
X0566131Y0357342D01*
X0566140Y0357325D01*
X0566148Y0357299D01*
X0566161Y0357268D01*
X0566179Y0357198D01*
X0566201Y0357115D01*
X0566223Y0357015D01*
X0566236Y0356905D01*
X0566240Y0356787D01*
Y0356717D01*
X0566236Y0356682D01*
Y0356643D01*
X0566231Y0356599D01*
X0566227Y0356547D01*
X0566210Y0356438D01*
X0566192Y0356324D01*
X0566161Y0356210D01*
X0566122Y0356101D01*
Y0356097D01*
X0566118Y0356088D01*
X0566109Y0356075D01*
X0566100Y0356058D01*
X0566074Y0356005D01*
X0566035Y0355944D01*
X0565982Y0355874D01*
X0565921Y0355800D01*
X0565847Y0355730D01*
X0565764Y0355664D01*
X0565760D01*
X0565751Y0355656D01*
X0565738Y0355651D01*
X0565720Y0355638D01*
X0565698Y0355629D01*
X0565672Y0355616D01*
X0565606Y0355586D01*
X0565523Y0355555D01*
X0565432Y0355529D01*
X0565327Y0355511D01*
X0565218Y0355503D01*
X0565183Y0355878D01*
X0565187D01*
X0565191D01*
X0565204Y0355883D01*
X0565222D01*
X0565261Y0355891D01*
X0565318Y0355905D01*
X0565375Y0355922D01*
X0565440Y0355940D01*
X0565502Y0355970D01*
X0565558Y0356001D01*
X0565563Y0356005D01*
X0565580Y0356018D01*
X0565611Y0356040D01*
X0565641Y0356075D01*
X0565681Y0356119D01*
X0565720Y0356167D01*
X0565760Y0356232D01*
X0565794Y0356302D01*
Y0356307D01*
X0565799Y0356311D01*
X0565803Y0356324D01*
X0565807Y0356337D01*
X0565821Y0356381D01*
X0565838Y0356438D01*
X0565856Y0356508D01*
X0565869Y0356586D01*
X0565877Y0356674D01*
X0565882Y0356770D01*
Y0356809D01*
X0565877Y0356853D01*
X0565873Y0356905D01*
X0565864Y0356966D01*
X0565856Y0357036D01*
X0565838Y0357106D01*
X0565816Y0357172D01*
X0565812Y0357181D01*
X0565803Y0357203D01*
X0565786Y0357233D01*
X0565768Y0357272D01*
X0565738Y0357312D01*
X0565707Y0357355D01*
X0565672Y0357399D01*
X0565628Y0357434D01*
X0565624Y0357438D01*
X0565606Y0357447D01*
X0565585Y0357460D01*
X0565550Y0357478D01*
X0565515Y0357495D01*
X0565471Y0357508D01*
X0565423Y0357517D01*
X0565371Y0357522D01*
X0565366D01*
X0565344D01*
X0565318Y0357517D01*
X0565283Y0357513D01*
X0565248Y0357500D01*
X0565204Y0357487D01*
X0565161Y0357465D01*
X0565121Y0357434D01*
X0565117Y0357430D01*
X0565104Y0357417D01*
X0565087Y0357399D01*
X0565060Y0357368D01*
X0565034Y0357334D01*
X0565003Y0357285D01*
X0564973Y0357229D01*
X0564947Y0357163D01*
X0564942Y0357159D01*
X0564938Y0357137D01*
X0564925Y0357102D01*
X0564920Y0357080D01*
X0564912Y0357049D01*
X0564899Y0357019D01*
X0564890Y0356980D01*
X0564877Y0356936D01*
X0564864Y0356884D01*
X0564851Y0356831D01*
X0564833Y0356770D01*
X0564816Y0356700D01*
X0564798Y0356626D01*
Y0356621D01*
X0564794Y0356608D01*
X0564789Y0356586D01*
X0564781Y0356560D01*
X0564772Y0356525D01*
X0564763Y0356486D01*
X0564737Y0356398D01*
X0564706Y0356302D01*
X0564676Y0356202D01*
X0564645Y0356114D01*
X0564628Y0356075D01*
X0564610Y0356040D01*
Y0356036D01*
X0564606Y0356031D01*
X0564588Y0356005D01*
X0564566Y0355966D01*
X0564532Y0355922D01*
X0564492Y0355870D01*
X0564444Y0355817D01*
X0564387Y0355765D01*
X0564326Y0355721D01*
X0564317Y0355717D01*
X0564295Y0355704D01*
X0564260Y0355686D01*
X0564217Y0355669D01*
X0564160Y0355651D01*
X0564094Y0355634D01*
X0564025Y0355621D01*
X0563950Y0355616D01*
X0563946D01*
X0563941D01*
X0563928D01*
X0563911D01*
X0563867Y0355625D01*
X0563810Y0355634D01*
X0563745Y0355647D01*
X0563671Y0355669D01*
X0563596Y0355699D01*
X0563522Y0355743D01*
X0563518D01*
X0563513Y0355747D01*
X0563487Y0355769D01*
X0563452Y0355800D01*
X0563408Y0355839D01*
X0563360Y0355891D01*
X0563308Y0355957D01*
X0563260Y0356036D01*
X0563216Y0356123D01*
Y0356128D01*
X0563212Y0356136D01*
X0563207Y0356149D01*
X0563199Y0356167D01*
X0563190Y0356189D01*
X0563181Y0356219D01*
X0563164Y0356285D01*
X0563146Y0356368D01*
X0563129Y0356464D01*
X0563116Y0356564D01*
X0563111Y0356678D01*
Y0356735D01*
X0563116Y0356766D01*
Y0356796D01*
X0563124Y0356879D01*
X0563137Y0356971D01*
X0563159Y0357067D01*
X0563186Y0357172D01*
X0563221Y0357268D01*
Y0357272D01*
X0563225Y0357281D01*
X0563234Y0357294D01*
X0563242Y0357312D01*
X0563264Y0357355D01*
X0563304Y0357412D01*
X0563347Y0357478D01*
X0563404Y0357543D01*
X0563470Y0357605D01*
X0563544Y0357661D01*
X0563548D01*
X0563553Y0357666D01*
X0563566Y0357674D01*
X0563579Y0357683D01*
X0563623Y0357705D01*
X0563679Y0357731D01*
X0563749Y0357762D01*
X0563832Y0357784D01*
X0563920Y0357805D01*
X0564016Y0357814D01*
X0564046Y0357430D01*
X0564042D01*
X0564033D01*
X0564020Y0357425D01*
X0563998Y0357421D01*
X0563950Y0357408D01*
X0563885Y0357390D01*
X0563815Y0357364D01*
X0563745Y0357325D01*
X0563679Y0357277D01*
X0563618Y0357216D01*
X0563614Y0357207D01*
X0563596Y0357185D01*
X0563570Y0357141D01*
X0563544Y0357084D01*
X0563518Y0357010D01*
X0563491Y0356923D01*
X0563474Y0356814D01*
X0563470Y0356691D01*
Y0356630D01*
X0563474Y0356604D01*
X0563478Y0356569D01*
X0563487Y0356490D01*
X0563505Y0356403D01*
X0563526Y0356315D01*
X0563561Y0356232D01*
X0563583Y0356197D01*
X0563605Y0356162D01*
X0563609Y0356154D01*
X0563627Y0356136D01*
X0563658Y0356110D01*
X0563693Y0356084D01*
X0563740Y0356053D01*
X0563793Y0356027D01*
X0563854Y0356010D01*
X0563924Y0356001D01*
X0563933D01*
X0563950D01*
X0563981Y0356005D01*
X0564016Y0356014D01*
X0564059Y0356027D01*
X0564103Y0356049D01*
X0564147Y0356075D01*
X0564191Y0356114D01*
X0564195Y0356119D01*
X0564208Y0356141D01*
X0564221Y0356158D01*
X0564230Y0356175D01*
X0564243Y0356202D01*
X0564260Y0356232D01*
X0564274Y0356272D01*
X0564291Y0356315D01*
X0564309Y0356363D01*
X0564330Y0356420D01*
X0564348Y0356481D01*
X0564370Y0356551D01*
X0564387Y0356630D01*
X0564409Y0356717D01*
Y0356722D01*
X0564413Y0356739D01*
X0564418Y0356766D01*
X0564427Y0356796D01*
X0564435Y0356835D01*
X0564448Y0356884D01*
X0564462Y0356931D01*
X0564475Y0356984D01*
X0564505Y0357098D01*
X0564536Y0357207D01*
X0564553Y0357259D01*
X0564571Y0357307D01*
X0564584Y0357351D01*
X0564601Y0357386D01*
Y0357390D01*
X0564606Y0357399D01*
X0564614Y0357412D01*
X0564623Y0357430D01*
X0564649Y0357478D01*
X0564684Y0357535D01*
X0564733Y0357600D01*
X0564785Y0357666D01*
X0564846Y0357727D01*
X0564912Y0357779D01*
X0564920Y0357784D01*
X0564942Y0357801D01*
X0564982Y0357819D01*
X0565034Y0357845D01*
X0565095Y0357867D01*
X0565169Y0357889D01*
X0565252Y0357902D01*
X0565340Y0357906D01*
X0565344D01*
X0565349D01*
X0565362D01*
X0565379D01*
X0565427Y0357897D01*
D02*
G37*
G36*
X0565392Y0355118D02*
X0565423Y0355114D01*
X0565462Y0355109D01*
X0565506Y0355100D01*
X0565554Y0355087D01*
X0565655Y0355057D01*
X0565711Y0355035D01*
X0565764Y0355004D01*
X0565821Y0354974D01*
X0565873Y0354939D01*
X0565926Y0354895D01*
X0565978Y0354847D01*
X0565982Y0354843D01*
X0565991Y0354834D01*
X0566004Y0354821D01*
X0566017Y0354799D01*
X0566039Y0354768D01*
X0566061Y0354738D01*
X0566083Y0354698D01*
X0566109Y0354655D01*
X0566135Y0354607D01*
X0566157Y0354550D01*
X0566179Y0354489D01*
X0566201Y0354428D01*
X0566214Y0354358D01*
X0566227Y0354283D01*
X0566236Y0354209D01*
X0566240Y0354126D01*
Y0354082D01*
X0566236Y0354052D01*
X0566231Y0354012D01*
X0566227Y0353969D01*
X0566218Y0353921D01*
X0566205Y0353868D01*
X0566175Y0353750D01*
X0566153Y0353689D01*
X0566131Y0353632D01*
X0566100Y0353571D01*
X0566065Y0353510D01*
X0566026Y0353453D01*
X0565978Y0353401D01*
X0565974Y0353396D01*
X0565965Y0353387D01*
X0565952Y0353374D01*
X0565930Y0353357D01*
X0565904Y0353339D01*
X0565873Y0353313D01*
X0565838Y0353291D01*
X0565794Y0353265D01*
X0565751Y0353239D01*
X0565698Y0353217D01*
X0565589Y0353173D01*
X0565523Y0353156D01*
X0565458Y0353143D01*
X0565388Y0353134D01*
X0565318Y0353130D01*
X0565314D01*
X0565305D01*
X0565287D01*
X0565270Y0353134D01*
X0565244D01*
X0565213Y0353138D01*
X0565143Y0353147D01*
X0565065Y0353165D01*
X0564986Y0353191D01*
X0564903Y0353230D01*
X0564824Y0353278D01*
X0564820D01*
X0564816Y0353287D01*
X0564794Y0353304D01*
X0564759Y0353339D01*
X0564715Y0353387D01*
X0564671Y0353449D01*
X0564623Y0353523D01*
X0564584Y0353606D01*
X0564553Y0353707D01*
Y0353702D01*
X0564549Y0353698D01*
X0564545Y0353685D01*
X0564536Y0353667D01*
X0564518Y0353628D01*
X0564492Y0353575D01*
X0564457Y0353519D01*
X0564413Y0353462D01*
X0564365Y0353409D01*
X0564313Y0353361D01*
X0564304Y0353357D01*
X0564287Y0353344D01*
X0564252Y0353326D01*
X0564208Y0353309D01*
X0564151Y0353287D01*
X0564086Y0353270D01*
X0564011Y0353256D01*
X0563933Y0353252D01*
X0563928D01*
X0563920D01*
X0563902D01*
X0563876Y0353256D01*
X0563850Y0353261D01*
X0563815Y0353265D01*
X0563740Y0353283D01*
X0563653Y0353309D01*
X0563561Y0353352D01*
X0563513Y0353379D01*
X0563465Y0353409D01*
X0563421Y0353449D01*
X0563378Y0353488D01*
X0563373Y0353492D01*
X0563369Y0353501D01*
X0563356Y0353514D01*
X0563343Y0353532D01*
X0563325Y0353554D01*
X0563308Y0353584D01*
X0563286Y0353619D01*
X0563264Y0353654D01*
X0563242Y0353698D01*
X0563221Y0353746D01*
X0563203Y0353798D01*
X0563186Y0353855D01*
X0563159Y0353977D01*
X0563155Y0354047D01*
X0563151Y0354117D01*
Y0354157D01*
X0563155Y0354183D01*
X0563159Y0354218D01*
X0563164Y0354257D01*
X0563168Y0354301D01*
X0563181Y0354345D01*
X0563207Y0354449D01*
X0563247Y0354554D01*
X0563273Y0354607D01*
X0563304Y0354659D01*
X0563343Y0354707D01*
X0563382Y0354755D01*
X0563386Y0354760D01*
X0563391Y0354764D01*
X0563404Y0354777D01*
X0563421Y0354795D01*
X0563448Y0354812D01*
X0563474Y0354834D01*
X0563540Y0354878D01*
X0563623Y0354921D01*
X0563719Y0354961D01*
X0563828Y0354991D01*
X0563885Y0354996D01*
X0563946Y0355000D01*
X0563950D01*
X0563955D01*
X0563981D01*
X0564020Y0354996D01*
X0564068Y0354987D01*
X0564129Y0354974D01*
X0564191Y0354952D01*
X0564252Y0354926D01*
X0564313Y0354886D01*
X0564322Y0354882D01*
X0564339Y0354865D01*
X0564365Y0354838D01*
X0564400Y0354803D01*
X0564440Y0354755D01*
X0564479Y0354698D01*
X0564518Y0354633D01*
X0564553Y0354554D01*
Y0354559D01*
X0564558Y0354567D01*
X0564562Y0354580D01*
X0564571Y0354598D01*
X0564593Y0354650D01*
X0564623Y0354712D01*
X0564667Y0354777D01*
X0564715Y0354847D01*
X0564776Y0354913D01*
X0564846Y0354974D01*
X0564851D01*
X0564855Y0354978D01*
X0564881Y0354996D01*
X0564925Y0355022D01*
X0564982Y0355048D01*
X0565052Y0355074D01*
X0565135Y0355100D01*
X0565226Y0355118D01*
X0565327Y0355122D01*
X0565331D01*
X0565344D01*
X0565366D01*
X0565392Y0355118D01*
D02*
G37*
G36*
X0563500Y0352763D02*
X0563509Y0352754D01*
X0563526Y0352736D01*
X0563553Y0352719D01*
X0563583Y0352693D01*
X0563618Y0352658D01*
X0563662Y0352623D01*
X0563714Y0352583D01*
X0563767Y0352544D01*
X0563828Y0352496D01*
X0563898Y0352448D01*
X0563968Y0352400D01*
X0564046Y0352347D01*
X0564129Y0352295D01*
X0564221Y0352242D01*
X0564313Y0352190D01*
X0564317Y0352186D01*
X0564335Y0352177D01*
X0564361Y0352164D01*
X0564400Y0352142D01*
X0564448Y0352120D01*
X0564501Y0352094D01*
X0564562Y0352063D01*
X0564632Y0352033D01*
X0564711Y0351998D01*
X0564789Y0351958D01*
X0564877Y0351923D01*
X0564968Y0351889D01*
X0565156Y0351819D01*
X0565357Y0351753D01*
X0565362D01*
X0565375Y0351749D01*
X0565397Y0351744D01*
X0565423Y0351736D01*
X0565458Y0351727D01*
X0565502Y0351718D01*
X0565550Y0351705D01*
X0565602Y0351696D01*
X0565663Y0351683D01*
X0565729Y0351670D01*
X0565869Y0351648D01*
X0566022Y0351626D01*
X0566188Y0351613D01*
Y0351233D01*
X0566183D01*
X0566170D01*
X0566153D01*
X0566126Y0351237D01*
X0566092D01*
X0566048Y0351242D01*
X0566000Y0351246D01*
X0565947Y0351251D01*
X0565886Y0351259D01*
X0565825Y0351268D01*
X0565751Y0351281D01*
X0565676Y0351294D01*
X0565598Y0351307D01*
X0565510Y0351325D01*
X0565331Y0351368D01*
X0565327D01*
X0565309Y0351373D01*
X0565283Y0351382D01*
X0565244Y0351395D01*
X0565200Y0351408D01*
X0565148Y0351425D01*
X0565087Y0351443D01*
X0565021Y0351469D01*
X0564947Y0351495D01*
X0564872Y0351521D01*
X0564706Y0351587D01*
X0564532Y0351666D01*
X0564357Y0351753D01*
X0564352Y0351758D01*
X0564335Y0351766D01*
X0564313Y0351779D01*
X0564278Y0351797D01*
X0564239Y0351819D01*
X0564191Y0351849D01*
X0564138Y0351880D01*
X0564081Y0351915D01*
X0563955Y0351998D01*
X0563824Y0352085D01*
X0563688Y0352186D01*
X0563561Y0352291D01*
Y0350809D01*
X0563203D01*
Y0352767D01*
X0563496D01*
X0563500Y0352763D01*
D02*
G37*
G36*
X0565279Y0349332D02*
X0564907D01*
Y0350481D01*
X0565279D01*
Y0349332D01*
D02*
G37*
G36*
X0566188Y0348419D02*
X0563164D01*
Y0348821D01*
X0566188D01*
Y0348419D01*
D02*
G37*
G36*
Y0347488D02*
X0564663Y0346413D01*
X0565139Y0345919D01*
X0566188D01*
Y0345517D01*
X0563164D01*
Y0345919D01*
X0564667D01*
X0563164Y0347414D01*
Y0347960D01*
X0564392Y0346693D01*
X0566188Y0348017D01*
Y0347488D01*
D02*
G37*
G36*
X0564763Y0345015D02*
X0564802D01*
X0564851Y0345010D01*
X0564903Y0345001D01*
X0564960Y0344997D01*
X0565087Y0344975D01*
X0565226Y0344940D01*
X0565366Y0344892D01*
X0565436Y0344866D01*
X0565506Y0344831D01*
X0565510D01*
X0565523Y0344822D01*
X0565541Y0344813D01*
X0565567Y0344796D01*
X0565598Y0344779D01*
X0565628Y0344757D01*
X0565711Y0344695D01*
X0565799Y0344621D01*
X0565891Y0344534D01*
X0565978Y0344429D01*
X0566057Y0344307D01*
Y0344302D01*
X0566065Y0344293D01*
X0566074Y0344272D01*
X0566087Y0344245D01*
X0566100Y0344215D01*
X0566113Y0344180D01*
X0566131Y0344136D01*
X0566148Y0344088D01*
X0566166Y0344036D01*
X0566183Y0343979D01*
X0566210Y0343852D01*
X0566231Y0343717D01*
X0566240Y0343572D01*
Y0343529D01*
X0566236Y0343502D01*
Y0343463D01*
X0566227Y0343420D01*
X0566223Y0343371D01*
X0566214Y0343315D01*
X0566188Y0343197D01*
X0566153Y0343070D01*
X0566100Y0342939D01*
X0566070Y0342873D01*
X0566035Y0342808D01*
X0566030Y0342803D01*
X0566026Y0342795D01*
X0566013Y0342777D01*
X0565995Y0342751D01*
X0565978Y0342725D01*
X0565952Y0342694D01*
X0565886Y0342620D01*
X0565807Y0342537D01*
X0565711Y0342449D01*
X0565602Y0342371D01*
X0565475Y0342296D01*
X0565471D01*
X0565458Y0342288D01*
X0565440Y0342279D01*
X0565414Y0342270D01*
X0565379Y0342257D01*
X0565340Y0342244D01*
X0565296Y0342227D01*
X0565248Y0342213D01*
X0565191Y0342196D01*
X0565135Y0342178D01*
X0565003Y0342152D01*
X0564868Y0342135D01*
X0564719Y0342126D01*
X0564715D01*
X0564711D01*
X0564684D01*
X0564645Y0342130D01*
X0564593D01*
X0564532Y0342139D01*
X0564457Y0342148D01*
X0564374Y0342161D01*
X0564287Y0342178D01*
X0564195Y0342196D01*
X0564099Y0342222D01*
X0564003Y0342257D01*
X0563902Y0342296D01*
X0563806Y0342340D01*
X0563710Y0342397D01*
X0563623Y0342458D01*
X0563540Y0342528D01*
X0563535Y0342532D01*
X0563522Y0342546D01*
X0563500Y0342572D01*
X0563474Y0342602D01*
X0563439Y0342642D01*
X0563404Y0342690D01*
X0563365Y0342746D01*
X0563325Y0342812D01*
X0563286Y0342882D01*
X0563247Y0342961D01*
X0563212Y0343048D01*
X0563177Y0343140D01*
X0563151Y0343240D01*
X0563129Y0343345D01*
X0563116Y0343455D01*
X0563111Y0343572D01*
Y0343612D01*
X0563116Y0343642D01*
Y0343682D01*
X0563120Y0343721D01*
X0563129Y0343774D01*
X0563137Y0343826D01*
X0563159Y0343939D01*
X0563194Y0344071D01*
X0563247Y0344197D01*
X0563277Y0344263D01*
X0563312Y0344328D01*
X0563317Y0344333D01*
X0563321Y0344342D01*
X0563334Y0344359D01*
X0563347Y0344385D01*
X0563369Y0344411D01*
X0563395Y0344446D01*
X0563456Y0344521D01*
X0563535Y0344599D01*
X0563631Y0344687D01*
X0563745Y0344770D01*
X0563872Y0344840D01*
X0563876D01*
X0563889Y0344848D01*
X0563907Y0344857D01*
X0563933Y0344866D01*
X0563968Y0344883D01*
X0564007Y0344897D01*
X0564055Y0344914D01*
X0564108Y0344932D01*
X0564164Y0344945D01*
X0564226Y0344962D01*
X0564295Y0344980D01*
X0564365Y0344993D01*
X0564518Y0345010D01*
X0564684Y0345019D01*
X0564689D01*
X0564706D01*
X0564728D01*
X0564763Y0345015D01*
D02*
G37*
%LPC*%
G36*
X0565231Y0381517D02*
X0565226D01*
X0565218D01*
X0565200D01*
X0565178Y0381513D01*
X0565152D01*
X0565121Y0381508D01*
X0565052Y0381495D01*
X0564973Y0381478D01*
X0564890Y0381447D01*
X0564811Y0381403D01*
X0564737Y0381347D01*
X0564728Y0381338D01*
X0564706Y0381316D01*
X0564680Y0381281D01*
X0564645Y0381233D01*
X0564610Y0381172D01*
X0564584Y0381102D01*
X0564562Y0381019D01*
X0564553Y0380927D01*
Y0380901D01*
X0564558Y0380884D01*
X0564562Y0380840D01*
X0564575Y0380779D01*
X0564597Y0380713D01*
X0564632Y0380639D01*
X0564676Y0380569D01*
X0564737Y0380499D01*
X0564746Y0380490D01*
X0564768Y0380473D01*
X0564807Y0380442D01*
X0564864Y0380412D01*
X0564929Y0380381D01*
X0565012Y0380350D01*
X0565104Y0380333D01*
X0565209Y0380324D01*
X0565218D01*
X0565239D01*
X0565279Y0380328D01*
X0565327Y0380333D01*
X0565384Y0380342D01*
X0565445Y0380359D01*
X0565510Y0380377D01*
X0565576Y0380403D01*
X0565585Y0380407D01*
X0565606Y0380420D01*
X0565637Y0380438D01*
X0565676Y0380464D01*
X0565716Y0380495D01*
X0565764Y0380534D01*
X0565803Y0380578D01*
X0565842Y0380630D01*
X0565847Y0380639D01*
X0565856Y0380656D01*
X0565873Y0380687D01*
X0565886Y0380726D01*
X0565904Y0380770D01*
X0565921Y0380822D01*
X0565930Y0380879D01*
X0565934Y0380940D01*
Y0380962D01*
X0565930Y0380980D01*
X0565926Y0381023D01*
X0565912Y0381080D01*
X0565886Y0381141D01*
X0565856Y0381211D01*
X0565807Y0381281D01*
X0565781Y0381316D01*
X0565746Y0381347D01*
X0565742D01*
X0565738Y0381356D01*
X0565711Y0381373D01*
X0565668Y0381399D01*
X0565611Y0381434D01*
X0565537Y0381465D01*
X0565449Y0381491D01*
X0565349Y0381508D01*
X0565231Y0381517D01*
D02*
G37*
G36*
X0563994Y0360467D02*
X0563990D01*
X0563985D01*
X0563959Y0360462D01*
X0563920Y0360458D01*
X0563867Y0360449D01*
X0563815Y0360427D01*
X0563754Y0360401D01*
X0563697Y0360362D01*
X0563640Y0360310D01*
X0563636Y0360301D01*
X0563618Y0360279D01*
X0563596Y0360244D01*
X0563570Y0360187D01*
X0563544Y0360122D01*
X0563522Y0360034D01*
X0563505Y0359934D01*
X0563500Y0359816D01*
Y0358863D01*
X0564501D01*
Y0359763D01*
X0564497Y0359816D01*
X0564492Y0359877D01*
X0564488Y0359947D01*
X0564479Y0360017D01*
X0564466Y0360087D01*
X0564448Y0360148D01*
X0564444Y0360157D01*
X0564435Y0360174D01*
X0564422Y0360200D01*
X0564405Y0360235D01*
X0564378Y0360275D01*
X0564348Y0360314D01*
X0564309Y0360353D01*
X0564265Y0360384D01*
X0564260Y0360388D01*
X0564243Y0360397D01*
X0564217Y0360410D01*
X0564182Y0360427D01*
X0564143Y0360441D01*
X0564099Y0360454D01*
X0564046Y0360462D01*
X0563994Y0360467D01*
D02*
G37*
G36*
X0563941Y0354620D02*
X0563937D01*
X0563933D01*
X0563907D01*
X0563867Y0354611D01*
X0563819Y0354602D01*
X0563767Y0354585D01*
X0563710Y0354559D01*
X0563653Y0354524D01*
X0563596Y0354476D01*
X0563592Y0354471D01*
X0563575Y0354449D01*
X0563553Y0354419D01*
X0563526Y0354380D01*
X0563500Y0354327D01*
X0563478Y0354270D01*
X0563461Y0354200D01*
X0563456Y0354126D01*
Y0354091D01*
X0563465Y0354052D01*
X0563474Y0353999D01*
X0563491Y0353942D01*
X0563513Y0353881D01*
X0563548Y0353824D01*
X0563596Y0353768D01*
X0563601Y0353763D01*
X0563618Y0353746D01*
X0563649Y0353724D01*
X0563688Y0353702D01*
X0563736Y0353676D01*
X0563793Y0353654D01*
X0563854Y0353637D01*
X0563924Y0353632D01*
X0563928D01*
X0563933D01*
X0563959Y0353637D01*
X0563998Y0353641D01*
X0564046Y0353650D01*
X0564103Y0353667D01*
X0564160Y0353689D01*
X0564221Y0353724D01*
X0564274Y0353768D01*
X0564278Y0353772D01*
X0564295Y0353794D01*
X0564317Y0353824D01*
X0564339Y0353864D01*
X0564365Y0353916D01*
X0564387Y0353977D01*
X0564405Y0354047D01*
X0564409Y0354126D01*
Y0354135D01*
X0564405Y0354161D01*
X0564400Y0354200D01*
X0564392Y0354253D01*
X0564374Y0354310D01*
X0564352Y0354366D01*
X0564317Y0354428D01*
X0564274Y0354480D01*
X0564269Y0354484D01*
X0564247Y0354502D01*
X0564221Y0354524D01*
X0564182Y0354550D01*
X0564134Y0354576D01*
X0564077Y0354598D01*
X0564011Y0354615D01*
X0563941Y0354620D01*
D02*
G37*
G36*
X0565331Y0354742D02*
X0565327D01*
X0565318D01*
X0565305D01*
X0565287Y0354738D01*
X0565239Y0354733D01*
X0565174Y0354720D01*
X0565108Y0354698D01*
X0565034Y0354668D01*
X0564960Y0354624D01*
X0564890Y0354563D01*
X0564881Y0354554D01*
X0564864Y0354532D01*
X0564833Y0354493D01*
X0564798Y0354441D01*
X0564768Y0354375D01*
X0564737Y0354296D01*
X0564719Y0354209D01*
X0564711Y0354113D01*
Y0354087D01*
X0564715Y0354069D01*
X0564719Y0354021D01*
X0564733Y0353960D01*
X0564754Y0353890D01*
X0564785Y0353820D01*
X0564829Y0353746D01*
X0564886Y0353680D01*
X0564894Y0353672D01*
X0564916Y0353654D01*
X0564955Y0353628D01*
X0565003Y0353597D01*
X0565069Y0353562D01*
X0565143Y0353536D01*
X0565226Y0353519D01*
X0565318Y0353510D01*
X0565327D01*
X0565344D01*
X0565375Y0353514D01*
X0565414Y0353519D01*
X0565462Y0353527D01*
X0565515Y0353540D01*
X0565567Y0353558D01*
X0565624Y0353580D01*
X0565628Y0353584D01*
X0565650Y0353593D01*
X0565676Y0353610D01*
X0565707Y0353637D01*
X0565746Y0353667D01*
X0565786Y0353707D01*
X0565821Y0353750D01*
X0565856Y0353803D01*
X0565860Y0353811D01*
X0565869Y0353829D01*
X0565882Y0353859D01*
X0565895Y0353899D01*
X0565908Y0353947D01*
X0565921Y0354004D01*
X0565930Y0354065D01*
X0565934Y0354126D01*
Y0354152D01*
X0565930Y0354170D01*
X0565926Y0354222D01*
X0565912Y0354283D01*
X0565891Y0354353D01*
X0565864Y0354428D01*
X0565821Y0354497D01*
X0565764Y0354567D01*
X0565755Y0354576D01*
X0565733Y0354594D01*
X0565694Y0354624D01*
X0565646Y0354655D01*
X0565585Y0354685D01*
X0565510Y0354716D01*
X0565423Y0354733D01*
X0565331Y0354742D01*
D02*
G37*
G36*
X0564680Y0344608D02*
X0564676D01*
X0564663D01*
X0564645D01*
X0564619D01*
X0564588Y0344604D01*
X0564549D01*
X0564510Y0344599D01*
X0564462Y0344591D01*
X0564361Y0344578D01*
X0564256Y0344556D01*
X0564143Y0344525D01*
X0564038Y0344481D01*
X0564033D01*
X0564025Y0344477D01*
X0564011Y0344468D01*
X0563994Y0344460D01*
X0563941Y0344429D01*
X0563880Y0344390D01*
X0563810Y0344337D01*
X0563740Y0344272D01*
X0563671Y0344197D01*
X0563609Y0344114D01*
Y0344110D01*
X0563601Y0344106D01*
X0563596Y0344092D01*
X0563583Y0344071D01*
X0563575Y0344049D01*
X0563561Y0344023D01*
X0563531Y0343957D01*
X0563505Y0343878D01*
X0563478Y0343787D01*
X0563461Y0343682D01*
X0563456Y0343572D01*
Y0343533D01*
X0563461Y0343502D01*
X0563465Y0343463D01*
X0563474Y0343424D01*
X0563483Y0343376D01*
X0563491Y0343323D01*
X0563526Y0343210D01*
X0563553Y0343149D01*
X0563579Y0343087D01*
X0563614Y0343022D01*
X0563653Y0342961D01*
X0563697Y0342899D01*
X0563749Y0342843D01*
X0563754Y0342838D01*
X0563762Y0342830D01*
X0563780Y0342816D01*
X0563806Y0342795D01*
X0563837Y0342773D01*
X0563876Y0342746D01*
X0563924Y0342720D01*
X0563981Y0342690D01*
X0564042Y0342664D01*
X0564116Y0342633D01*
X0564195Y0342607D01*
X0564282Y0342585D01*
X0564378Y0342563D01*
X0564488Y0342550D01*
X0564601Y0342541D01*
X0564724Y0342537D01*
X0564728D01*
X0564746D01*
X0564776D01*
X0564816Y0342541D01*
X0564859Y0342546D01*
X0564912Y0342554D01*
X0564973Y0342563D01*
X0565034Y0342572D01*
X0565174Y0342607D01*
X0565244Y0342633D01*
X0565318Y0342659D01*
X0565388Y0342694D01*
X0565458Y0342733D01*
X0565523Y0342777D01*
X0565585Y0342830D01*
X0565589Y0342834D01*
X0565598Y0342843D01*
X0565615Y0342860D01*
X0565633Y0342882D01*
X0565659Y0342913D01*
X0565685Y0342948D01*
X0565711Y0342987D01*
X0565742Y0343031D01*
X0565773Y0343083D01*
X0565799Y0343140D01*
X0565825Y0343201D01*
X0565851Y0343267D01*
X0565869Y0343337D01*
X0565886Y0343406D01*
X0565895Y0343485D01*
X0565899Y0343568D01*
Y0343590D01*
X0565895Y0343612D01*
Y0343642D01*
X0565891Y0343682D01*
X0565882Y0343725D01*
X0565873Y0343778D01*
X0565860Y0343830D01*
X0565842Y0343892D01*
X0565821Y0343948D01*
X0565799Y0344014D01*
X0565768Y0344075D01*
X0565729Y0344136D01*
X0565690Y0344197D01*
X0565641Y0344258D01*
X0565585Y0344315D01*
X0565580Y0344320D01*
X0565572Y0344328D01*
X0565550Y0344342D01*
X0565523Y0344363D01*
X0565493Y0344385D01*
X0565454Y0344407D01*
X0565406Y0344433D01*
X0565353Y0344464D01*
X0565292Y0344490D01*
X0565222Y0344516D01*
X0565148Y0344538D01*
X0565069Y0344564D01*
X0564982Y0344582D01*
X0564886Y0344595D01*
X0564785Y0344604D01*
X0564680Y0344608D01*
D02*
G37*
%LPD*%
D10*
X0452776Y0364665D02*
G03*
X0452776Y0364665I-0000492J0000000D01*
G01*
X0480315Y0383878D02*
G03*
X0480315Y0383878I-0000492J0000000D01*
G01*
D11*
X0448327Y0356201D02*
G03*
X0448327Y0356201I-0001181J0000000D01*
G01*
X0490256Y0379528D02*
G03*
X0490256Y0379528I-0001181J0000000D01*
G01*
D12*
X0597632Y0379602D02*
G03*
X0597632Y0379602I-0000317J0000000D01*
G01*
X0624010D02*
G03*
X0624010Y0379602I-0000317J0000000D01*
G01*
X0577264Y0320472D02*
G03*
X0577264Y0320472I-0000394J0000000D01*
G01*
D13*
X0470572Y0313147D02*
G03*
X0470572Y0313147I-0000197J0000000D01*
G01*
D14*
X0437756Y0301004D02*
Y0311004D01*
X0457756D01*
Y0301004D02*
Y0311004D01*
X0437756Y0301004D02*
X0457756D01*
X0442335Y0320819D02*
Y0326819D01*
X0453335D01*
Y0320819D02*
Y0326819D01*
X0442335Y0320819D02*
X0453335D01*
X0431791Y0360138D02*
X0451083D01*
X0431791Y0347933D02*
X0451083D01*
Y0360138D01*
X0431791Y0347933D02*
Y0360138D01*
X0485138Y0337402D02*
X0511909D01*
X0485138Y0383465D02*
X0511909D01*
Y0337402D02*
Y0383465D01*
X0485138Y0337402D02*
Y0383465D01*
X0599803Y0382185D02*
X0622441D01*
Y0333366D02*
Y0382185D01*
X0599803Y0333366D02*
X0622441D01*
X0599803D02*
Y0372539D01*
Y0382185D01*
X0626181D02*
X0648819D01*
Y0333366D02*
Y0382185D01*
X0626181Y0333366D02*
X0648819D01*
X0626181D02*
Y0372539D01*
Y0382185D01*
X0469376Y0331147D02*
X0494876D01*
Y0314147D02*
Y0331147D01*
X0469376Y0314147D02*
X0494876D01*
X0469376D02*
Y0331147D01*
X0531785Y0377911D02*
Y0389411D01*
X0526285Y0377911D02*
X0531785D01*
X0526285D02*
Y0389411D01*
X0531785D01*
X0447331Y0382335D02*
Y0388335D01*
X0436331Y0382335D02*
X0447331D01*
X0436331D02*
Y0388335D01*
X0447331D01*
X0422264Y0392185D02*
X0622264D01*
X0422264Y0412185D02*
X0622264D01*
X0422264Y0392185D02*
Y0412185D01*
X0622264Y0392185D02*
Y0412185D01*
X0435785Y0371758D02*
X0447285D01*
X0435785D02*
Y0377258D01*
X0447285D01*
Y0371758D02*
Y0377258D01*
X0533220Y0358968D02*
X0539221D01*
X0533220D02*
Y0369969D01*
X0539221D01*
Y0358968D02*
Y0369969D01*
X0533220Y0381976D02*
X0539221D01*
Y0370976D02*
Y0381976D01*
X0533220Y0370976D02*
X0539221D01*
X0533220D02*
Y0381976D01*
X0532925Y0352744D02*
X0538925D01*
Y0341744D02*
Y0352744D01*
X0532925Y0341744D02*
X0538925D01*
X0532925D02*
Y0352744D01*
X0454480Y0336626D02*
X0460480D01*
X0454480D02*
Y0347626D01*
X0460480D01*
Y0336626D02*
Y0347626D01*
X0503144Y0316789D02*
Y0328289D01*
X0497644Y0316789D02*
X0503144D01*
X0497644D02*
Y0328289D01*
X0503144D01*
X0476337Y0312593D02*
X0487837D01*
Y0307092D02*
Y0312593D01*
X0476337Y0307092D02*
X0487837D01*
X0476337D02*
Y0312593D01*
X0542224Y0323228D02*
Y0390158D01*
Y0323228D02*
X0585925D01*
Y0390158D01*
X0542224D02*
X0585925D01*
X0566752Y0301004D02*
Y0311004D01*
X0586752D01*
Y0301004D02*
Y0311004D01*
X0566752Y0301004D02*
X0586752D01*
X0572354Y0314323D02*
Y0320323D01*
X0583354D01*
Y0314323D02*
Y0320323D01*
X0572354Y0314323D02*
X0583354D01*
X0545000Y0301004D02*
Y0311004D01*
X0565000D01*
Y0301004D02*
Y0311004D01*
X0545000Y0301004D02*
X0565000D01*
X0548634Y0313831D02*
Y0319831D01*
X0559634D01*
Y0313831D02*
Y0319831D01*
X0548634Y0313831D02*
X0559634D01*
X0524528Y0301299D02*
X0534528D01*
X0524528D02*
Y0321299D01*
X0534528D01*
Y0301299D02*
Y0321299D01*
X0416094Y0376095D02*
X0422094D01*
X0416094D02*
Y0387094D01*
X0422094D01*
Y0376095D02*
Y0387094D01*
X0574311Y0340156D02*
X0575885D01*
X0575098D01*
Y0335433D01*
X0574311D01*
X0575885D01*
X0578247D02*
Y0340156D01*
X0581395Y0335433D01*
Y0340156D01*
X0560826Y0339467D02*
X0560039Y0340254D01*
X0558464D01*
X0557677Y0339467D01*
Y0336319D01*
X0558464Y0335531D01*
X0560039D01*
X0560826Y0336319D01*
Y0337893D01*
X0559251D01*
X0562400Y0335531D02*
Y0340254D01*
X0565549Y0335531D01*
Y0340254D01*
X0567123D02*
Y0335531D01*
X0569484D01*
X0570271Y0336319D01*
Y0339467D01*
X0569484Y0340254D01*
X0567123D01*
X0602953Y0388876D02*
Y0384941D01*
X0603740Y0384154D01*
X0605314D01*
X0606101Y0384941D01*
Y0388876D01*
X0607676Y0384154D02*
Y0387302D01*
X0609250Y0388876D01*
X0610824Y0387302D01*
Y0384154D01*
Y0386515D01*
X0607676D01*
X0612398Y0384154D02*
Y0388876D01*
X0614760D01*
X0615547Y0388089D01*
Y0386515D01*
X0614760Y0385728D01*
X0612398D01*
X0613973D02*
X0615547Y0384154D01*
X0617121Y0388876D02*
X0620270D01*
X0618696D01*
Y0384154D01*
X0510432Y0306298D02*
X0509448Y0307282D01*
X0507480D01*
X0506496Y0306298D01*
Y0302362D01*
X0507480Y0301378D01*
X0509448D01*
X0510432Y0302362D01*
Y0304330D01*
X0508464D01*
X0512400Y0301378D02*
Y0307282D01*
X0516335Y0301378D01*
Y0307282D01*
X0518303D02*
Y0301378D01*
X0521255D01*
X0522239Y0302362D01*
Y0306298D01*
X0521255Y0307282D01*
X0518303D01*
X0632382Y0388581D02*
X0633956D01*
X0633169D01*
Y0383858D01*
X0632382D01*
X0633956D01*
X0639466D02*
X0636318D01*
X0639466Y0387007D01*
Y0387794D01*
X0638679Y0388581D01*
X0637105D01*
X0636318Y0387794D01*
X0644189D02*
X0643402Y0388581D01*
X0641828D01*
X0641041Y0387794D01*
Y0384645D01*
X0641828Y0383858D01*
X0643402D01*
X0644189Y0384645D01*
X0506595Y0318207D02*
Y0314271D01*
X0508562Y0312303D01*
X0510530Y0314271D01*
Y0318207D01*
X0512498D02*
X0514466D01*
X0513482D01*
Y0312303D01*
X0512498D01*
X0514466D01*
X0517418D02*
Y0318207D01*
X0521353Y0312303D01*
Y0318207D01*
X0404134Y0329961D02*
Y0332322D01*
Y0331141D01*
X0399411D01*
Y0329961D01*
Y0335864D02*
X0404134D01*
X0401772D01*
X0400592Y0337045D01*
X0399411Y0338226D01*
Y0339406D01*
X0404134Y0342949D02*
X0399411D01*
Y0346491D01*
X0400592Y0347671D01*
X0404134D01*
X0399411Y0351214D02*
Y0353575D01*
X0400592Y0354756D01*
X0404134D01*
Y0351214D01*
X0402953Y0350033D01*
X0401772Y0351214D01*
Y0354756D01*
X0404134Y0357117D02*
Y0360659D01*
X0402953Y0361840D01*
X0401772Y0360659D01*
Y0358298D01*
X0400592Y0357117D01*
X0399411Y0358298D01*
Y0361840D01*
X0404134Y0364201D02*
X0402953D01*
Y0365382D01*
X0404134D01*
Y0364201D01*
Y0373647D02*
Y0371286D01*
X0402953Y0370105D01*
X0400592D01*
X0399411Y0371286D01*
Y0373647D01*
X0400592Y0374828D01*
X0401772D01*
Y0370105D01*
X0399411Y0377189D02*
X0402953D01*
X0404134Y0378370D01*
Y0381912D01*
X0399411D01*
X0545275Y0340353D02*
X0543701D01*
X0542913Y0339566D01*
Y0336417D01*
X0543701Y0335630D01*
X0545275D01*
X0546062Y0336417D01*
Y0339566D01*
X0545275Y0340353D01*
X0547636D02*
Y0336417D01*
X0548423Y0335630D01*
X0549998D01*
X0550785Y0336417D01*
Y0340353D01*
X0552359D02*
X0555508D01*
X0553933D01*
Y0335630D01*
D15*
X0446541Y0316581D02*
X0445885Y0317237D01*
X0444573D01*
X0443917Y0316581D01*
Y0313957D01*
X0444573Y0313301D01*
X0445885D01*
X0446541Y0313957D01*
X0447853Y0313301D02*
Y0315925D01*
X0449165Y0317237D01*
X0450477Y0315925D01*
Y0313301D01*
Y0315269D01*
X0447853D01*
X0451789Y0313301D02*
Y0317237D01*
X0454413Y0313301D01*
Y0317237D01*
X0460157Y0307499D02*
Y0303563D01*
Y0305531D01*
X0462781D01*
Y0307499D01*
Y0303563D01*
X0431417Y0307597D02*
Y0303661D01*
X0434041D01*
X0431595Y0312992D02*
Y0316928D01*
X0433562D01*
X0434218Y0316272D01*
Y0314960D01*
X0433562Y0314304D01*
X0431595D01*
X0435530Y0316272D02*
X0436186Y0316928D01*
X0437498D01*
X0438154Y0316272D01*
Y0315616D01*
X0437498Y0314960D01*
X0438154Y0314304D01*
Y0313648D01*
X0437498Y0312992D01*
X0436186D01*
X0435530Y0313648D01*
Y0314304D01*
X0436186Y0314960D01*
X0435530Y0315616D01*
Y0316272D01*
X0436186Y0314960D02*
X0437498D01*
X0433169Y0321850D02*
Y0325786D01*
X0435137D01*
X0435793Y0325130D01*
Y0323818D01*
X0435137Y0323162D01*
X0433169D01*
X0434481D02*
X0435793Y0321850D01*
X0439729Y0325786D02*
X0438417Y0325130D01*
X0437105Y0323818D01*
Y0322506D01*
X0437761Y0321850D01*
X0439073D01*
X0439729Y0322506D01*
Y0323162D01*
X0439073Y0323818D01*
X0437105D01*
X0423917Y0360137D02*
Y0356857D01*
X0424573Y0356201D01*
X0425885D01*
X0426541Y0356857D01*
Y0360137D01*
X0430477Y0356201D02*
X0427853D01*
X0430477Y0358825D01*
Y0359481D01*
X0429821Y0360137D01*
X0428509D01*
X0427853Y0359481D01*
X0485532Y0389369D02*
Y0386089D01*
X0486188Y0385433D01*
X0487499D01*
X0488155Y0386089D01*
Y0389369D01*
X0489467Y0385433D02*
X0490779D01*
X0490123D01*
Y0389369D01*
X0489467Y0388713D01*
X0469587Y0336219D02*
X0472210Y0332283D01*
Y0336219D02*
X0469587Y0332283D01*
X0473522D02*
X0474834D01*
X0474178D01*
Y0336219D01*
X0473522Y0335563D01*
X0522801Y0389697D02*
X0522145Y0390353D01*
X0520833D01*
X0520177Y0389697D01*
Y0387073D01*
X0520833Y0386417D01*
X0522145D01*
X0522801Y0387073D01*
X0524113Y0386417D02*
X0525425D01*
X0524769D01*
Y0390353D01*
X0524113Y0389697D01*
X0429134Y0372342D02*
Y0376278D01*
X0431102D01*
X0431758Y0375622D01*
Y0374310D01*
X0431102Y0373654D01*
X0429134D01*
X0430446D02*
X0431758Y0372342D01*
X0433070D02*
X0434381D01*
X0433726D01*
Y0376278D01*
X0433070Y0375622D01*
X0416437Y0388484D02*
Y0392420D01*
X0418405D01*
X0419061Y0391764D01*
Y0390452D01*
X0418405Y0389796D01*
X0416437D01*
X0420373Y0388484D02*
X0421685D01*
X0421029D01*
Y0392420D01*
X0420373Y0391764D01*
X0430970Y0387040D02*
X0430314Y0387696D01*
X0429002D01*
X0428346Y0387040D01*
Y0384416D01*
X0429002Y0383760D01*
X0430314D01*
X0430970Y0384416D01*
X0434906Y0383760D02*
X0432282D01*
X0434906Y0386384D01*
Y0387040D01*
X0434250Y0387696D01*
X0432938D01*
X0432282Y0387040D01*
X0531102Y0358563D02*
X0527167D01*
Y0360531D01*
X0527823Y0361187D01*
X0529135D01*
X0529790Y0360531D01*
Y0358563D01*
Y0359875D02*
X0531102Y0361187D01*
X0527823Y0362499D02*
X0527167Y0363155D01*
Y0364467D01*
X0527823Y0365123D01*
X0528478D01*
X0529135Y0364467D01*
Y0363811D01*
Y0364467D01*
X0529790Y0365123D01*
X0530446D01*
X0531102Y0364467D01*
Y0363155D01*
X0530446Y0362499D01*
X0531004Y0368799D02*
X0527068D01*
Y0370767D01*
X0527724Y0371423D01*
X0529036D01*
X0529692Y0370767D01*
Y0368799D01*
Y0370111D02*
X0531004Y0371423D01*
Y0375359D02*
Y0372735D01*
X0528380Y0375359D01*
X0527724D01*
X0527068Y0374703D01*
Y0373391D01*
X0527724Y0372735D01*
X0531693Y0342520D02*
X0527757D01*
Y0344488D01*
X0528413Y0345144D01*
X0529725D01*
X0530381Y0344488D01*
Y0342520D01*
Y0343832D02*
X0531693Y0345144D01*
Y0348423D02*
X0527757D01*
X0529725Y0346455D01*
Y0349079D01*
X0459449Y0348917D02*
X0455513D01*
Y0350885D01*
X0456169Y0351541D01*
X0457481D01*
X0458137Y0350885D01*
Y0348917D01*
Y0350229D02*
X0459449Y0351541D01*
X0455513Y0355477D02*
Y0352853D01*
X0457481D01*
X0456825Y0354165D01*
Y0354821D01*
X0457481Y0355477D01*
X0458793D01*
X0459449Y0354821D01*
Y0353509D01*
X0458793Y0352853D01*
X0506071Y0324179D02*
X0505415Y0323523D01*
Y0322211D01*
X0506071Y0321555D01*
X0508694D01*
X0509350Y0322211D01*
Y0323523D01*
X0508694Y0324179D01*
X0509350Y0327459D02*
X0505415D01*
X0507382Y0325491D01*
Y0328115D01*
X0470340Y0310465D02*
X0469684Y0311121D01*
X0468372D01*
X0467717Y0310465D01*
Y0307841D01*
X0468372Y0307185D01*
X0469684D01*
X0470340Y0307841D01*
X0471652Y0310465D02*
X0472308Y0311121D01*
X0473620D01*
X0474276Y0310465D01*
Y0309809D01*
X0473620Y0309153D01*
X0472964D01*
X0473620D01*
X0474276Y0308497D01*
Y0307841D01*
X0473620Y0307185D01*
X0472308D01*
X0471652Y0307841D01*
X0587106Y0389664D02*
Y0386384D01*
X0587762Y0385728D01*
X0589074D01*
X0589730Y0386384D01*
Y0389664D01*
X0591042Y0389008D02*
X0591698Y0389664D01*
X0593010D01*
X0593666Y0389008D01*
Y0388352D01*
X0593010Y0387696D01*
X0592354D01*
X0593010D01*
X0593666Y0387040D01*
Y0386384D01*
X0593010Y0385728D01*
X0591698D01*
X0591042Y0386384D01*
X0593110Y0302362D02*
X0589175D01*
Y0304330D01*
X0589830Y0304986D01*
X0591142D01*
X0591798Y0304330D01*
Y0302362D01*
X0589830Y0306298D02*
X0589175Y0306954D01*
Y0308266D01*
X0589830Y0308922D01*
X0590486D01*
X0591142Y0308266D01*
Y0307610D01*
Y0308266D01*
X0591798Y0308922D01*
X0592454D01*
X0593110Y0308266D01*
Y0306954D01*
X0592454Y0306298D01*
X0600394Y0327658D02*
Y0331593D01*
X0602362D01*
X0603018Y0330937D01*
Y0329625D01*
X0602362Y0328969D01*
X0600394D01*
X0606953Y0331593D02*
X0604329D01*
Y0329625D01*
X0605641Y0330281D01*
X0606297D01*
X0606953Y0329625D01*
Y0328313D01*
X0606297Y0327658D01*
X0604985D01*
X0604329Y0328313D01*
X0626575Y0327362D02*
Y0331298D01*
X0628543D01*
X0629199Y0330642D01*
Y0329330D01*
X0628543Y0328674D01*
X0626575D01*
X0632478Y0327362D02*
Y0331298D01*
X0630511Y0329330D01*
X0633134D01*
X0585138Y0315256D02*
Y0319192D01*
X0587106D01*
X0587762Y0318536D01*
Y0317224D01*
X0587106Y0316568D01*
X0585138D01*
X0586450D02*
X0587762Y0315256D01*
X0589074Y0319192D02*
X0591697D01*
Y0318536D01*
X0589074Y0315912D01*
Y0315256D01*
X0542421Y0302362D02*
X0538485D01*
Y0304330D01*
X0539142Y0304986D01*
X0540453D01*
X0541109Y0304330D01*
Y0302362D01*
X0538485Y0308922D02*
X0539142Y0307610D01*
X0540453Y0306298D01*
X0541765D01*
X0542421Y0306954D01*
Y0308266D01*
X0541765Y0308922D01*
X0541109D01*
X0540453Y0308266D01*
Y0306298D01*
X0539665Y0315059D02*
Y0318995D01*
X0541633D01*
X0542289Y0318339D01*
Y0317027D01*
X0541633Y0316371D01*
X0539665D01*
X0540977D02*
X0542289Y0315059D01*
X0543601Y0318339D02*
X0544257Y0318995D01*
X0545569D01*
X0546225Y0318339D01*
Y0317683D01*
X0545569Y0317027D01*
X0546225Y0316371D01*
Y0315715D01*
X0545569Y0315059D01*
X0544257D01*
X0543601Y0315715D01*
Y0316371D01*
X0544257Y0317027D01*
X0543601Y0317683D01*
Y0318339D01*
X0544257Y0317027D02*
X0545569D01*
X0526870Y0322244D02*
Y0326180D01*
X0528838D01*
X0529494Y0325524D01*
Y0324212D01*
X0528838Y0323556D01*
X0526870D01*
X0530806Y0326180D02*
X0533430D01*
Y0325524D01*
X0530806Y0322900D01*
Y0322244D01*
X0414764Y0376969D02*
X0410828D01*
Y0378936D01*
X0411484Y0379592D01*
X0412796D01*
X0413452Y0378936D01*
Y0376969D01*
Y0378280D02*
X0414764Y0379592D01*
X0414108Y0380904D02*
X0414764Y0381560D01*
Y0382872D01*
X0414108Y0383528D01*
X0411484D01*
X0410828Y0382872D01*
Y0381560D01*
X0411484Y0380904D01*
X0412140D01*
X0412796Y0381560D01*
Y0383528D01*
M02*
