M48
;Layer_Color=9474304
;FILE_FORMAT=2:5
INCH
;TYPE=PLATED
T1F00S00C0.01968
T2F00S00C0.02756
T3F00S00C0.02800
T4F00S00C0.03543
T5F00S00C0.03937
T6F00S00C0.04331
T7F00S00C0.10827
;TYPE=NON_PLATED
T8F00S00C0.06496
T9F00S00C0.13110
T10F00S00C0.13504
%
T01
X0462697Y0338976
X0443504Y0358661
X0449311Y0377165
X0486713Y0340433
X0533957Y0387402
T02
X0420748Y0258071
X0428740
X0436732
X0444724
X0440945Y0265118
X0432953
X0424961Y0265079
X0448937Y0265118
T03
X0497244Y0311910
X0418701Y0371358
X0497146Y0386811
X0524114Y0382874
X0542520Y0375295
X0533465Y0329429
T04
X0529528Y0306299
X0550000Y0306004
X0560000
X0571752
X0581752
X0452756
X0442756
X0447264Y0397185
X0457264
X0467264
Y0407185
X0457264
X0447264
X0437264
Y0397185
X0427264
Y0407185
X0477264
X0487264
X0497264
X0507264
X0517264
X0527264
X0537264
X0547264
X0557264
X0567264
X0577264
X0587264
X0597264
X0607264
X0617264
Y0397185
X0607264
X0597264
X0587264
X0577264
X0567264
X0557264
X0547264
X0537264
X0527264
X0517264
X0507264
X0497264
X0487264
X0477264
X0529528Y0316299
T05
X0554075Y0329173
X0564075Y0329134
X0574075
T06
X0609055Y0343012
Y0352854
Y0362697
Y0372539
X0635433
Y0362697
Y0352854
Y0343012
T07
X0636346Y0311500
X0408000
Y0402051
X0636346
T08
X0402441Y0261575
X0467244
T09
X0409921Y0248110
T10
X0459764Y0247795
M30
