G04*
G04 #@! TF.GenerationSoftware,Altium Limited,Altium Designer,18.1.9 (240)*
G04*
G04 Layer_Physical_Order=2*
G04 Layer_Color=16711680*
%FSAX25Y25*%
%MOIN*%
G70*
G01*
G75*
%ADD12C,0.01000*%
%ADD41C,0.02000*%
%ADD42C,0.01575*%
%ADD43R,0.05906X0.05906*%
%ADD44C,0.05906*%
%ADD45C,0.23622*%
%ADD46C,0.06496*%
%ADD47C,0.13110*%
%ADD48C,0.13504*%
%ADD49C,0.03819*%
%ADD50R,0.06496X0.06496*%
%ADD51C,0.05906*%
%ADD52C,0.05910*%
%ADD53R,0.05906X0.05906*%
%ADD54C,0.05000*%
%ADD55C,0.03150*%
G36*
X0630082Y0413824D02*
X0630223Y0413324D01*
X0628793Y0412448D01*
X0627260Y0411138D01*
X0625950Y0409605D01*
X0624896Y0407885D01*
X0624125Y0406022D01*
X0623654Y0404062D01*
X0623496Y0402051D01*
X0623654Y0400041D01*
X0624125Y0398080D01*
X0624896Y0396217D01*
X0625950Y0394498D01*
X0627260Y0392964D01*
X0628793Y0391655D01*
X0630512Y0390601D01*
X0632375Y0389829D01*
X0634336Y0389359D01*
X0636346Y0389201D01*
X0638357Y0389359D01*
X0640317Y0389829D01*
X0642180Y0390601D01*
X0643900Y0391655D01*
X0645433Y0392964D01*
X0646743Y0394498D01*
X0647619Y0395928D01*
X0648119Y0395786D01*
Y0317765D01*
X0647619Y0317624D01*
X0646743Y0319053D01*
X0645433Y0320587D01*
X0643900Y0321896D01*
X0642180Y0322950D01*
X0640317Y0323722D01*
X0638357Y0324192D01*
X0636346Y0324351D01*
X0634336Y0324192D01*
X0632375Y0323722D01*
X0630512Y0322950D01*
X0628793Y0321896D01*
X0627260Y0320587D01*
X0625950Y0319053D01*
X0624896Y0317334D01*
X0624125Y0315471D01*
X0623654Y0313510D01*
X0623496Y0311500D01*
X0623654Y0309490D01*
X0624125Y0307529D01*
X0624896Y0305666D01*
X0625950Y0303947D01*
X0627260Y0302413D01*
X0628793Y0301104D01*
X0630223Y0300227D01*
X0630082Y0299728D01*
X0487008Y0299728D01*
X0486996Y0299725D01*
X0486983Y0299727D01*
X0486211Y0299718D01*
X0486093Y0299693D01*
X0485973Y0299701D01*
X0484442Y0299499D01*
X0484316Y0299457D01*
X0484184Y0299448D01*
X0482692Y0299048D01*
X0482573Y0298990D01*
X0482443Y0298964D01*
X0481016Y0298372D01*
X0480906Y0298299D01*
X0480781Y0298256D01*
X0479443Y0297484D01*
X0479343Y0297396D01*
X0479224Y0297338D01*
X0477998Y0296397D01*
X0477911Y0296298D01*
X0477801Y0296224D01*
X0476709Y0295132D01*
X0476635Y0295022D01*
X0476536Y0294935D01*
X0475595Y0293709D01*
X0475536Y0293590D01*
X0475449Y0293491D01*
X0474677Y0292153D01*
X0474634Y0292027D01*
X0474561Y0291917D01*
X0473969Y0290490D01*
X0473944Y0290360D01*
X0473885Y0290241D01*
X0473485Y0288749D01*
X0473477Y0288617D01*
X0473434Y0288491D01*
X0473232Y0286960D01*
X0473239Y0286860D01*
X0473216Y0286763D01*
X0473191Y0285991D01*
X0473196Y0285958D01*
X0473190Y0285925D01*
Y0239075D01*
X0473190Y0238432D01*
X0473022Y0237158D01*
X0472689Y0235917D01*
X0472198Y0234729D01*
X0471555Y0233616D01*
X0470773Y0232597D01*
X0469864Y0231688D01*
X0468844Y0230906D01*
X0467731Y0230263D01*
X0466544Y0229771D01*
X0465303Y0229438D01*
X0464028Y0229271D01*
X0463386Y0229271D01*
X0405389D01*
X0404115Y0229438D01*
X0402873Y0229771D01*
X0401686Y0230263D01*
X0400573Y0230906D01*
X0399553Y0231688D01*
X0398645Y0232597D01*
X0397862Y0233616D01*
X0397220Y0234729D01*
X0396728Y0235917D01*
X0396395Y0237158D01*
X0396228Y0238432D01*
Y0239075D01*
Y0305235D01*
X0396727Y0305376D01*
X0397604Y0303947D01*
X0398913Y0302413D01*
X0400447Y0301104D01*
X0402166Y0300050D01*
X0404029Y0299278D01*
X0405990Y0298808D01*
X0408000Y0298649D01*
X0410010Y0298808D01*
X0411971Y0299278D01*
X0413834Y0300050D01*
X0415553Y0301104D01*
X0417087Y0302413D01*
X0418396Y0303947D01*
X0419450Y0305666D01*
X0420222Y0307529D01*
X0420692Y0309490D01*
X0420851Y0311500D01*
X0420692Y0313510D01*
X0420222Y0315471D01*
X0419450Y0317334D01*
X0418396Y0319053D01*
X0417087Y0320587D01*
X0415553Y0321896D01*
X0413834Y0322950D01*
X0411971Y0323722D01*
X0410010Y0324192D01*
X0408000Y0324351D01*
Y0389201D01*
X0410010Y0389359D01*
X0411971Y0389829D01*
X0413834Y0390601D01*
X0415553Y0391655D01*
X0417087Y0392964D01*
X0418396Y0394498D01*
X0419450Y0396217D01*
X0420222Y0398080D01*
X0420692Y0400041D01*
X0420851Y0402051D01*
X0420692Y0404062D01*
X0420222Y0406022D01*
X0419450Y0407885D01*
X0418396Y0409605D01*
X0417087Y0411138D01*
X0415553Y0412448D01*
X0414124Y0413324D01*
X0414265Y0413824D01*
X0630082Y0413824D01*
D02*
G37*
%LPC*%
G36*
X0587764Y0410097D02*
Y0407685D01*
X0590176D01*
X0590140Y0407956D01*
X0589843Y0408674D01*
X0589370Y0409291D01*
X0588753Y0409764D01*
X0588035Y0410062D01*
X0587764Y0410097D01*
D02*
G37*
G36*
X0586764D02*
X0586493Y0410062D01*
X0585775Y0409764D01*
X0585158Y0409291D01*
X0584685Y0408674D01*
X0584387Y0407956D01*
X0584351Y0407685D01*
X0586764D01*
Y0410097D01*
D02*
G37*
G36*
X0567764D02*
Y0407685D01*
X0570176D01*
X0570141Y0407956D01*
X0569843Y0408674D01*
X0569370Y0409291D01*
X0568753Y0409764D01*
X0568035Y0410062D01*
X0567764Y0410097D01*
D02*
G37*
G36*
X0566764D02*
X0566493Y0410062D01*
X0565775Y0409764D01*
X0565158Y0409291D01*
X0564685Y0408674D01*
X0564387Y0407956D01*
X0564351Y0407685D01*
X0566764D01*
Y0410097D01*
D02*
G37*
G36*
X0517764D02*
Y0407685D01*
X0520176D01*
X0520141Y0407956D01*
X0519843Y0408674D01*
X0519370Y0409291D01*
X0518753Y0409764D01*
X0518035Y0410062D01*
X0517764Y0410097D01*
D02*
G37*
G36*
X0516764D02*
X0516493Y0410062D01*
X0515775Y0409764D01*
X0515158Y0409291D01*
X0514685Y0408674D01*
X0514387Y0407956D01*
X0514351Y0407685D01*
X0516764D01*
Y0410097D01*
D02*
G37*
G36*
X0487764D02*
Y0407685D01*
X0490176D01*
X0490140Y0407956D01*
X0489843Y0408674D01*
X0489370Y0409291D01*
X0488753Y0409764D01*
X0488035Y0410062D01*
X0487764Y0410097D01*
D02*
G37*
G36*
X0486764D02*
X0486493Y0410062D01*
X0485775Y0409764D01*
X0485158Y0409291D01*
X0484685Y0408674D01*
X0484387Y0407956D01*
X0484351Y0407685D01*
X0486764D01*
Y0410097D01*
D02*
G37*
G36*
X0447764D02*
Y0407685D01*
X0450176D01*
X0450140Y0407956D01*
X0449843Y0408674D01*
X0449370Y0409291D01*
X0448753Y0409764D01*
X0448035Y0410062D01*
X0447764Y0410097D01*
D02*
G37*
G36*
X0446764D02*
X0446493Y0410062D01*
X0445775Y0409764D01*
X0445158Y0409291D01*
X0444685Y0408674D01*
X0444387Y0407956D01*
X0444351Y0407685D01*
X0446764D01*
Y0410097D01*
D02*
G37*
G36*
X0590176Y0406685D02*
X0587764D01*
Y0404273D01*
X0588035Y0404308D01*
X0588753Y0404606D01*
X0589370Y0405079D01*
X0589843Y0405696D01*
X0590140Y0406414D01*
X0590176Y0406685D01*
D02*
G37*
G36*
X0586764D02*
X0584351D01*
X0584387Y0406414D01*
X0584685Y0405696D01*
X0585158Y0405079D01*
X0585775Y0404606D01*
X0586493Y0404308D01*
X0586764Y0404273D01*
Y0406685D01*
D02*
G37*
G36*
X0570176D02*
X0567764D01*
Y0404273D01*
X0568035Y0404308D01*
X0568753Y0404606D01*
X0569370Y0405079D01*
X0569843Y0405696D01*
X0570141Y0406414D01*
X0570176Y0406685D01*
D02*
G37*
G36*
X0566764D02*
X0564351D01*
X0564387Y0406414D01*
X0564685Y0405696D01*
X0565158Y0405079D01*
X0565775Y0404606D01*
X0566493Y0404308D01*
X0566764Y0404273D01*
Y0406685D01*
D02*
G37*
G36*
X0520176D02*
X0517764D01*
Y0404273D01*
X0518035Y0404308D01*
X0518753Y0404606D01*
X0519370Y0405079D01*
X0519843Y0405696D01*
X0520141Y0406414D01*
X0520176Y0406685D01*
D02*
G37*
G36*
X0516764D02*
X0514351D01*
X0514387Y0406414D01*
X0514685Y0405696D01*
X0515158Y0405079D01*
X0515775Y0404606D01*
X0516493Y0404308D01*
X0516764Y0404273D01*
Y0406685D01*
D02*
G37*
G36*
X0490176D02*
X0487764D01*
Y0404273D01*
X0488035Y0404308D01*
X0488753Y0404606D01*
X0489370Y0405079D01*
X0489843Y0405696D01*
X0490140Y0406414D01*
X0490176Y0406685D01*
D02*
G37*
G36*
X0486764D02*
X0484351D01*
X0484387Y0406414D01*
X0484685Y0405696D01*
X0485158Y0405079D01*
X0485775Y0404606D01*
X0486493Y0404308D01*
X0486764Y0404273D01*
Y0406685D01*
D02*
G37*
G36*
X0450176D02*
X0447764D01*
Y0404273D01*
X0448035Y0404308D01*
X0448753Y0404606D01*
X0449370Y0405079D01*
X0449843Y0405696D01*
X0450140Y0406414D01*
X0450176Y0406685D01*
D02*
G37*
G36*
X0446764D02*
X0444351D01*
X0444387Y0406414D01*
X0444685Y0405696D01*
X0445158Y0405079D01*
X0445775Y0404606D01*
X0446493Y0404308D01*
X0446764Y0404273D01*
Y0406685D01*
D02*
G37*
G36*
X0617264Y0411172D02*
X0616232Y0411036D01*
X0615270Y0410638D01*
X0614445Y0410004D01*
X0613811Y0409178D01*
X0613413Y0408217D01*
X0613277Y0407185D01*
X0613413Y0406153D01*
X0613811Y0405192D01*
X0614445Y0404366D01*
X0615270Y0403732D01*
X0616232Y0403334D01*
X0617264Y0403198D01*
X0618296Y0403334D01*
X0619257Y0403732D01*
X0620083Y0404366D01*
X0620716Y0405192D01*
X0621115Y0406153D01*
X0621251Y0407185D01*
X0621115Y0408217D01*
X0620716Y0409178D01*
X0620083Y0410004D01*
X0619257Y0410638D01*
X0618296Y0411036D01*
X0617264Y0411172D01*
D02*
G37*
G36*
X0607264D02*
X0606232Y0411036D01*
X0605270Y0410638D01*
X0604445Y0410004D01*
X0603811Y0409178D01*
X0603413Y0408217D01*
X0603277Y0407185D01*
X0603413Y0406153D01*
X0603811Y0405192D01*
X0604445Y0404366D01*
X0605270Y0403732D01*
X0606232Y0403334D01*
X0607264Y0403198D01*
X0608296Y0403334D01*
X0609257Y0403732D01*
X0610083Y0404366D01*
X0610716Y0405192D01*
X0611115Y0406153D01*
X0611251Y0407185D01*
X0611115Y0408217D01*
X0610716Y0409178D01*
X0610083Y0410004D01*
X0609257Y0410638D01*
X0608296Y0411036D01*
X0607264Y0411172D01*
D02*
G37*
G36*
X0597264D02*
X0596232Y0411036D01*
X0595270Y0410638D01*
X0594445Y0410004D01*
X0593811Y0409178D01*
X0593413Y0408217D01*
X0593277Y0407185D01*
X0593413Y0406153D01*
X0593811Y0405192D01*
X0594445Y0404366D01*
X0595270Y0403732D01*
X0596232Y0403334D01*
X0597264Y0403198D01*
X0598296Y0403334D01*
X0599257Y0403732D01*
X0600083Y0404366D01*
X0600716Y0405192D01*
X0601115Y0406153D01*
X0601251Y0407185D01*
X0601115Y0408217D01*
X0600716Y0409178D01*
X0600083Y0410004D01*
X0599257Y0410638D01*
X0598296Y0411036D01*
X0597264Y0411172D01*
D02*
G37*
G36*
X0577264D02*
X0576232Y0411036D01*
X0575270Y0410638D01*
X0574445Y0410004D01*
X0573811Y0409178D01*
X0573413Y0408217D01*
X0573277Y0407185D01*
X0573413Y0406153D01*
X0573811Y0405192D01*
X0574445Y0404366D01*
X0575270Y0403732D01*
X0576232Y0403334D01*
X0577264Y0403198D01*
X0578296Y0403334D01*
X0579257Y0403732D01*
X0580083Y0404366D01*
X0580717Y0405192D01*
X0581115Y0406153D01*
X0581251Y0407185D01*
X0581115Y0408217D01*
X0580717Y0409178D01*
X0580083Y0410004D01*
X0579257Y0410638D01*
X0578296Y0411036D01*
X0577264Y0411172D01*
D02*
G37*
G36*
X0557264D02*
X0556232Y0411036D01*
X0555270Y0410638D01*
X0554445Y0410004D01*
X0553811Y0409178D01*
X0553413Y0408217D01*
X0553277Y0407185D01*
X0553413Y0406153D01*
X0553811Y0405192D01*
X0554445Y0404366D01*
X0555270Y0403732D01*
X0556232Y0403334D01*
X0557264Y0403198D01*
X0558296Y0403334D01*
X0559257Y0403732D01*
X0560083Y0404366D01*
X0560716Y0405192D01*
X0561115Y0406153D01*
X0561251Y0407185D01*
X0561115Y0408217D01*
X0560716Y0409178D01*
X0560083Y0410004D01*
X0559257Y0410638D01*
X0558296Y0411036D01*
X0557264Y0411172D01*
D02*
G37*
G36*
X0547264D02*
X0546232Y0411036D01*
X0545270Y0410638D01*
X0544445Y0410004D01*
X0543811Y0409178D01*
X0543413Y0408217D01*
X0543277Y0407185D01*
X0543413Y0406153D01*
X0543811Y0405192D01*
X0544445Y0404366D01*
X0545270Y0403732D01*
X0546232Y0403334D01*
X0547264Y0403198D01*
X0548296Y0403334D01*
X0549257Y0403732D01*
X0550083Y0404366D01*
X0550716Y0405192D01*
X0551115Y0406153D01*
X0551251Y0407185D01*
X0551115Y0408217D01*
X0550716Y0409178D01*
X0550083Y0410004D01*
X0549257Y0410638D01*
X0548296Y0411036D01*
X0547264Y0411172D01*
D02*
G37*
G36*
X0537264D02*
X0536232Y0411036D01*
X0535270Y0410638D01*
X0534445Y0410004D01*
X0533811Y0409178D01*
X0533413Y0408217D01*
X0533277Y0407185D01*
X0533413Y0406153D01*
X0533811Y0405192D01*
X0534445Y0404366D01*
X0535270Y0403732D01*
X0536232Y0403334D01*
X0537264Y0403198D01*
X0538296Y0403334D01*
X0539257Y0403732D01*
X0540083Y0404366D01*
X0540717Y0405192D01*
X0541115Y0406153D01*
X0541251Y0407185D01*
X0541115Y0408217D01*
X0540717Y0409178D01*
X0540083Y0410004D01*
X0539257Y0410638D01*
X0538296Y0411036D01*
X0537264Y0411172D01*
D02*
G37*
G36*
X0527264D02*
X0526232Y0411036D01*
X0525270Y0410638D01*
X0524445Y0410004D01*
X0523811Y0409178D01*
X0523413Y0408217D01*
X0523277Y0407185D01*
X0523413Y0406153D01*
X0523811Y0405192D01*
X0524445Y0404366D01*
X0525270Y0403732D01*
X0526232Y0403334D01*
X0527264Y0403198D01*
X0528296Y0403334D01*
X0529257Y0403732D01*
X0530083Y0404366D01*
X0530717Y0405192D01*
X0531115Y0406153D01*
X0531251Y0407185D01*
X0531115Y0408217D01*
X0530717Y0409178D01*
X0530083Y0410004D01*
X0529257Y0410638D01*
X0528296Y0411036D01*
X0527264Y0411172D01*
D02*
G37*
G36*
X0507264D02*
X0506232Y0411036D01*
X0505270Y0410638D01*
X0504445Y0410004D01*
X0503811Y0409178D01*
X0503413Y0408217D01*
X0503277Y0407185D01*
X0503413Y0406153D01*
X0503811Y0405192D01*
X0504445Y0404366D01*
X0505270Y0403732D01*
X0506232Y0403334D01*
X0507264Y0403198D01*
X0508296Y0403334D01*
X0509257Y0403732D01*
X0510083Y0404366D01*
X0510716Y0405192D01*
X0511115Y0406153D01*
X0511251Y0407185D01*
X0511115Y0408217D01*
X0510716Y0409178D01*
X0510083Y0410004D01*
X0509257Y0410638D01*
X0508296Y0411036D01*
X0507264Y0411172D01*
D02*
G37*
G36*
X0497264D02*
X0496232Y0411036D01*
X0495270Y0410638D01*
X0494445Y0410004D01*
X0493811Y0409178D01*
X0493413Y0408217D01*
X0493277Y0407185D01*
X0493413Y0406153D01*
X0493811Y0405192D01*
X0494445Y0404366D01*
X0495270Y0403732D01*
X0496232Y0403334D01*
X0497264Y0403198D01*
X0498296Y0403334D01*
X0499257Y0403732D01*
X0500083Y0404366D01*
X0500716Y0405192D01*
X0501115Y0406153D01*
X0501251Y0407185D01*
X0501115Y0408217D01*
X0500716Y0409178D01*
X0500083Y0410004D01*
X0499257Y0410638D01*
X0498296Y0411036D01*
X0497264Y0411172D01*
D02*
G37*
G36*
X0477264D02*
X0476232Y0411036D01*
X0475270Y0410638D01*
X0474445Y0410004D01*
X0473811Y0409178D01*
X0473413Y0408217D01*
X0473277Y0407185D01*
X0473413Y0406153D01*
X0473811Y0405192D01*
X0474445Y0404366D01*
X0475270Y0403732D01*
X0476232Y0403334D01*
X0477264Y0403198D01*
X0478296Y0403334D01*
X0479257Y0403732D01*
X0480083Y0404366D01*
X0480717Y0405192D01*
X0481115Y0406153D01*
X0481251Y0407185D01*
X0481115Y0408217D01*
X0480717Y0409178D01*
X0480083Y0410004D01*
X0479257Y0410638D01*
X0478296Y0411036D01*
X0477264Y0411172D01*
D02*
G37*
G36*
X0437264D02*
X0436232Y0411036D01*
X0435270Y0410638D01*
X0434445Y0410004D01*
X0433811Y0409178D01*
X0433413Y0408217D01*
X0433277Y0407185D01*
X0433413Y0406153D01*
X0433811Y0405192D01*
X0434445Y0404366D01*
X0435270Y0403732D01*
X0436232Y0403334D01*
X0437264Y0403198D01*
X0438296Y0403334D01*
X0439257Y0403732D01*
X0440083Y0404366D01*
X0440717Y0405192D01*
X0441115Y0406153D01*
X0441251Y0407185D01*
X0441115Y0408217D01*
X0440717Y0409178D01*
X0440083Y0410004D01*
X0439257Y0410638D01*
X0438296Y0411036D01*
X0437264Y0411172D01*
D02*
G37*
G36*
X0427264D02*
X0426232Y0411036D01*
X0425270Y0410638D01*
X0424445Y0410004D01*
X0423811Y0409178D01*
X0423413Y0408217D01*
X0423277Y0407185D01*
X0423413Y0406153D01*
X0423811Y0405192D01*
X0424445Y0404366D01*
X0425270Y0403732D01*
X0426232Y0403334D01*
X0427264Y0403198D01*
X0428296Y0403334D01*
X0429257Y0403732D01*
X0430083Y0404366D01*
X0430717Y0405192D01*
X0431115Y0406153D01*
X0431251Y0407185D01*
X0431115Y0408217D01*
X0430717Y0409178D01*
X0430083Y0410004D01*
X0429257Y0410638D01*
X0428296Y0411036D01*
X0427264Y0411172D01*
D02*
G37*
G36*
X0617764Y0400097D02*
Y0397685D01*
X0620176D01*
X0620141Y0397956D01*
X0619843Y0398674D01*
X0619370Y0399291D01*
X0618753Y0399764D01*
X0618035Y0400062D01*
X0617764Y0400097D01*
D02*
G37*
G36*
X0616764D02*
X0616493Y0400062D01*
X0615775Y0399764D01*
X0615158Y0399291D01*
X0614685Y0398674D01*
X0614387Y0397956D01*
X0614351Y0397685D01*
X0616764D01*
Y0400097D01*
D02*
G37*
G36*
X0547764D02*
Y0397685D01*
X0550176D01*
X0550140Y0397956D01*
X0549843Y0398674D01*
X0549370Y0399291D01*
X0548753Y0399764D01*
X0548035Y0400062D01*
X0547764Y0400097D01*
D02*
G37*
G36*
X0546764D02*
X0546493Y0400062D01*
X0545775Y0399764D01*
X0545158Y0399291D01*
X0544685Y0398674D01*
X0544387Y0397956D01*
X0544351Y0397685D01*
X0546764D01*
Y0400097D01*
D02*
G37*
G36*
X0467764D02*
Y0397685D01*
X0470176D01*
X0470141Y0397956D01*
X0469843Y0398674D01*
X0469370Y0399291D01*
X0468753Y0399764D01*
X0468035Y0400062D01*
X0467764Y0400097D01*
D02*
G37*
G36*
X0466764D02*
X0466493Y0400062D01*
X0465775Y0399764D01*
X0465158Y0399291D01*
X0464685Y0398674D01*
X0464387Y0397956D01*
X0464351Y0397685D01*
X0466764D01*
Y0400097D01*
D02*
G37*
G36*
X0620176Y0396685D02*
X0617764D01*
Y0394273D01*
X0618035Y0394308D01*
X0618753Y0394606D01*
X0619370Y0395079D01*
X0619843Y0395696D01*
X0620141Y0396414D01*
X0620176Y0396685D01*
D02*
G37*
G36*
X0616764D02*
X0614351D01*
X0614387Y0396414D01*
X0614685Y0395696D01*
X0615158Y0395079D01*
X0615775Y0394606D01*
X0616493Y0394308D01*
X0616764Y0394273D01*
Y0396685D01*
D02*
G37*
G36*
X0550176D02*
X0547764D01*
Y0394273D01*
X0548035Y0394308D01*
X0548753Y0394606D01*
X0549370Y0395079D01*
X0549843Y0395696D01*
X0550140Y0396414D01*
X0550176Y0396685D01*
D02*
G37*
G36*
X0546764D02*
X0544351D01*
X0544387Y0396414D01*
X0544685Y0395696D01*
X0545158Y0395079D01*
X0545775Y0394606D01*
X0546493Y0394308D01*
X0546764Y0394273D01*
Y0396685D01*
D02*
G37*
G36*
X0470176D02*
X0467764D01*
Y0394273D01*
X0468035Y0394308D01*
X0468753Y0394606D01*
X0469370Y0395079D01*
X0469843Y0395696D01*
X0470141Y0396414D01*
X0470176Y0396685D01*
D02*
G37*
G36*
X0466764D02*
X0464351D01*
X0464387Y0396414D01*
X0464685Y0395696D01*
X0465158Y0395079D01*
X0465775Y0394606D01*
X0466493Y0394308D01*
X0466764Y0394273D01*
Y0396685D01*
D02*
G37*
G36*
X0447264Y0401172D02*
X0446232Y0401036D01*
X0445270Y0400638D01*
X0444445Y0400004D01*
X0443811Y0399179D01*
X0443413Y0398217D01*
X0443277Y0397185D01*
X0443413Y0396153D01*
X0443811Y0395192D01*
X0443845Y0395148D01*
Y0393402D01*
X0443345Y0393251D01*
X0443312Y0393300D01*
X0440923Y0395689D01*
X0441115Y0396153D01*
X0441251Y0397185D01*
X0441115Y0398217D01*
X0440717Y0399179D01*
X0440083Y0400004D01*
X0439257Y0400638D01*
X0438296Y0401036D01*
X0437264Y0401172D01*
X0436232Y0401036D01*
X0435270Y0400638D01*
X0434445Y0400004D01*
X0433811Y0399179D01*
X0433413Y0398217D01*
X0433277Y0397185D01*
X0433413Y0396153D01*
X0433811Y0395192D01*
X0434445Y0394366D01*
X0435270Y0393732D01*
X0436232Y0393334D01*
X0437264Y0393198D01*
X0438296Y0393334D01*
X0438760Y0393526D01*
X0440701Y0391585D01*
Y0368597D01*
X0440817Y0368011D01*
X0441149Y0367515D01*
X0458072Y0350592D01*
X0458568Y0350260D01*
X0459154Y0350144D01*
X0573481D01*
X0593308Y0330316D01*
X0593805Y0329985D01*
X0594390Y0329868D01*
X0631595D01*
X0632180Y0329985D01*
X0632676Y0330316D01*
X0642617Y0340257D01*
X0642948Y0340753D01*
X0643065Y0341339D01*
Y0356594D01*
X0642948Y0357180D01*
X0642617Y0357676D01*
X0639318Y0360975D01*
X0639572Y0361588D01*
X0639718Y0362697D01*
X0639572Y0363806D01*
X0639144Y0364839D01*
X0638463Y0365727D01*
X0637575Y0366407D01*
X0636542Y0366835D01*
X0635433Y0366982D01*
X0634324Y0366835D01*
X0633291Y0366407D01*
X0632403Y0365727D01*
X0631722Y0364839D01*
X0631294Y0363806D01*
X0631148Y0362697D01*
X0631294Y0361588D01*
X0631722Y0360555D01*
X0632403Y0359667D01*
X0633291Y0358986D01*
X0634324Y0358558D01*
X0635433Y0358412D01*
X0636542Y0358558D01*
X0637155Y0358812D01*
X0640006Y0355961D01*
Y0354221D01*
X0639506Y0354122D01*
X0639144Y0354997D01*
X0638463Y0355884D01*
X0637575Y0356565D01*
X0636542Y0356993D01*
X0635433Y0357139D01*
X0634324Y0356993D01*
X0633291Y0356565D01*
X0632403Y0355884D01*
X0631722Y0354997D01*
X0631294Y0353963D01*
X0631148Y0352854D01*
X0631294Y0351745D01*
X0631548Y0351132D01*
X0616493Y0336077D01*
X0597897D01*
X0578605Y0355369D01*
X0578109Y0355700D01*
X0577524Y0355817D01*
X0461417D01*
X0446903Y0370330D01*
Y0392882D01*
X0447264Y0393198D01*
X0448296Y0393334D01*
X0449257Y0393732D01*
X0450083Y0394366D01*
X0450716Y0395192D01*
X0451115Y0396153D01*
X0451251Y0397185D01*
X0451115Y0398217D01*
X0450716Y0399179D01*
X0450083Y0400004D01*
X0449257Y0400638D01*
X0448296Y0401036D01*
X0447264Y0401172D01*
D02*
G37*
G36*
X0431216Y0401138D02*
X0423311D01*
Y0393232D01*
X0431216D01*
Y0401138D01*
D02*
G37*
G36*
X0607264Y0401172D02*
X0606232Y0401036D01*
X0605270Y0400638D01*
X0604445Y0400004D01*
X0603811Y0399179D01*
X0603413Y0398217D01*
X0603277Y0397185D01*
X0603413Y0396153D01*
X0603811Y0395192D01*
X0604445Y0394366D01*
X0605270Y0393732D01*
X0606232Y0393334D01*
X0607264Y0393198D01*
X0608296Y0393334D01*
X0609257Y0393732D01*
X0610083Y0394366D01*
X0610716Y0395192D01*
X0611115Y0396153D01*
X0611251Y0397185D01*
X0611115Y0398217D01*
X0610716Y0399179D01*
X0610083Y0400004D01*
X0609257Y0400638D01*
X0608296Y0401036D01*
X0607264Y0401172D01*
D02*
G37*
G36*
X0597264D02*
X0596232Y0401036D01*
X0595270Y0400638D01*
X0594445Y0400004D01*
X0593811Y0399179D01*
X0593413Y0398217D01*
X0593277Y0397185D01*
X0593413Y0396153D01*
X0593811Y0395192D01*
X0594445Y0394366D01*
X0595270Y0393732D01*
X0596232Y0393334D01*
X0597264Y0393198D01*
X0598296Y0393334D01*
X0599257Y0393732D01*
X0600083Y0394366D01*
X0600716Y0395192D01*
X0601115Y0396153D01*
X0601251Y0397185D01*
X0601115Y0398217D01*
X0600716Y0399179D01*
X0600083Y0400004D01*
X0599257Y0400638D01*
X0598296Y0401036D01*
X0597264Y0401172D01*
D02*
G37*
G36*
X0587264D02*
X0586232Y0401036D01*
X0585270Y0400638D01*
X0584445Y0400004D01*
X0583811Y0399179D01*
X0583413Y0398217D01*
X0583277Y0397185D01*
X0583413Y0396153D01*
X0583811Y0395192D01*
X0584445Y0394366D01*
X0585270Y0393732D01*
X0586232Y0393334D01*
X0587264Y0393198D01*
X0588296Y0393334D01*
X0589257Y0393732D01*
X0590083Y0394366D01*
X0590717Y0395192D01*
X0591115Y0396153D01*
X0591251Y0397185D01*
X0591115Y0398217D01*
X0590717Y0399179D01*
X0590083Y0400004D01*
X0589257Y0400638D01*
X0588296Y0401036D01*
X0587264Y0401172D01*
D02*
G37*
G36*
X0577264D02*
X0576232Y0401036D01*
X0575270Y0400638D01*
X0574445Y0400004D01*
X0573811Y0399179D01*
X0573413Y0398217D01*
X0573277Y0397185D01*
X0573413Y0396153D01*
X0573811Y0395192D01*
X0574445Y0394366D01*
X0575270Y0393732D01*
X0576232Y0393334D01*
X0577264Y0393198D01*
X0578296Y0393334D01*
X0579257Y0393732D01*
X0580083Y0394366D01*
X0580717Y0395192D01*
X0581115Y0396153D01*
X0581251Y0397185D01*
X0581115Y0398217D01*
X0580717Y0399179D01*
X0580083Y0400004D01*
X0579257Y0400638D01*
X0578296Y0401036D01*
X0577264Y0401172D01*
D02*
G37*
G36*
X0567264D02*
X0566232Y0401036D01*
X0565270Y0400638D01*
X0564445Y0400004D01*
X0563811Y0399179D01*
X0563413Y0398217D01*
X0563277Y0397185D01*
X0563413Y0396153D01*
X0563811Y0395192D01*
X0564445Y0394366D01*
X0565270Y0393732D01*
X0566232Y0393334D01*
X0567264Y0393198D01*
X0568296Y0393334D01*
X0569257Y0393732D01*
X0570083Y0394366D01*
X0570716Y0395192D01*
X0571115Y0396153D01*
X0571251Y0397185D01*
X0571115Y0398217D01*
X0570716Y0399179D01*
X0570083Y0400004D01*
X0569257Y0400638D01*
X0568296Y0401036D01*
X0567264Y0401172D01*
D02*
G37*
G36*
X0557264D02*
X0556232Y0401036D01*
X0555270Y0400638D01*
X0554445Y0400004D01*
X0553811Y0399179D01*
X0553413Y0398217D01*
X0553277Y0397185D01*
X0553413Y0396153D01*
X0553811Y0395192D01*
X0554445Y0394366D01*
X0555270Y0393732D01*
X0556232Y0393334D01*
X0557264Y0393198D01*
X0558296Y0393334D01*
X0559257Y0393732D01*
X0560083Y0394366D01*
X0560716Y0395192D01*
X0561115Y0396153D01*
X0561251Y0397185D01*
X0561115Y0398217D01*
X0560716Y0399179D01*
X0560083Y0400004D01*
X0559257Y0400638D01*
X0558296Y0401036D01*
X0557264Y0401172D01*
D02*
G37*
G36*
X0537264D02*
X0536232Y0401036D01*
X0535270Y0400638D01*
X0534445Y0400004D01*
X0533811Y0399179D01*
X0533413Y0398217D01*
X0533277Y0397185D01*
X0533413Y0396153D01*
X0533811Y0395192D01*
X0534445Y0394366D01*
X0535270Y0393732D01*
X0536232Y0393334D01*
X0537264Y0393198D01*
X0538296Y0393334D01*
X0539257Y0393732D01*
X0540083Y0394366D01*
X0540717Y0395192D01*
X0541115Y0396153D01*
X0541251Y0397185D01*
X0541115Y0398217D01*
X0540717Y0399179D01*
X0540083Y0400004D01*
X0539257Y0400638D01*
X0538296Y0401036D01*
X0537264Y0401172D01*
D02*
G37*
G36*
X0527264D02*
X0526232Y0401036D01*
X0525270Y0400638D01*
X0524445Y0400004D01*
X0523811Y0399179D01*
X0523413Y0398217D01*
X0523277Y0397185D01*
X0523413Y0396153D01*
X0523811Y0395192D01*
X0524445Y0394366D01*
X0525270Y0393732D01*
X0526232Y0393334D01*
X0527264Y0393198D01*
X0528296Y0393334D01*
X0529257Y0393732D01*
X0530083Y0394366D01*
X0530717Y0395192D01*
X0531115Y0396153D01*
X0531251Y0397185D01*
X0531115Y0398217D01*
X0530717Y0399179D01*
X0530083Y0400004D01*
X0529257Y0400638D01*
X0528296Y0401036D01*
X0527264Y0401172D01*
D02*
G37*
G36*
X0517264D02*
X0516232Y0401036D01*
X0515270Y0400638D01*
X0514445Y0400004D01*
X0513811Y0399179D01*
X0513413Y0398217D01*
X0513277Y0397185D01*
X0513413Y0396153D01*
X0513811Y0395192D01*
X0514445Y0394366D01*
X0515270Y0393732D01*
X0516232Y0393334D01*
X0517264Y0393198D01*
X0518296Y0393334D01*
X0519257Y0393732D01*
X0520083Y0394366D01*
X0520716Y0395192D01*
X0521115Y0396153D01*
X0521251Y0397185D01*
X0521115Y0398217D01*
X0520716Y0399179D01*
X0520083Y0400004D01*
X0519257Y0400638D01*
X0518296Y0401036D01*
X0517264Y0401172D01*
D02*
G37*
G36*
X0507264D02*
X0506232Y0401036D01*
X0505270Y0400638D01*
X0504445Y0400004D01*
X0503811Y0399179D01*
X0503413Y0398217D01*
X0503277Y0397185D01*
X0503413Y0396153D01*
X0503811Y0395192D01*
X0504445Y0394366D01*
X0505270Y0393732D01*
X0506232Y0393334D01*
X0507264Y0393198D01*
X0508296Y0393334D01*
X0509257Y0393732D01*
X0510083Y0394366D01*
X0510716Y0395192D01*
X0511115Y0396153D01*
X0511251Y0397185D01*
X0511115Y0398217D01*
X0510716Y0399179D01*
X0510083Y0400004D01*
X0509257Y0400638D01*
X0508296Y0401036D01*
X0507264Y0401172D01*
D02*
G37*
G36*
X0497264D02*
X0496232Y0401036D01*
X0495270Y0400638D01*
X0494445Y0400004D01*
X0493811Y0399179D01*
X0493413Y0398217D01*
X0493277Y0397185D01*
X0493413Y0396153D01*
X0493811Y0395192D01*
X0494445Y0394366D01*
X0495270Y0393732D01*
X0496232Y0393334D01*
X0497264Y0393198D01*
X0498296Y0393334D01*
X0499257Y0393732D01*
X0500083Y0394366D01*
X0500716Y0395192D01*
X0501115Y0396153D01*
X0501251Y0397185D01*
X0501115Y0398217D01*
X0500716Y0399179D01*
X0500083Y0400004D01*
X0499257Y0400638D01*
X0498296Y0401036D01*
X0497264Y0401172D01*
D02*
G37*
G36*
X0487264D02*
X0486232Y0401036D01*
X0485270Y0400638D01*
X0484445Y0400004D01*
X0483811Y0399179D01*
X0483413Y0398217D01*
X0483277Y0397185D01*
X0483413Y0396153D01*
X0483811Y0395192D01*
X0484445Y0394366D01*
X0485270Y0393732D01*
X0486232Y0393334D01*
X0487264Y0393198D01*
X0488296Y0393334D01*
X0489257Y0393732D01*
X0490083Y0394366D01*
X0490717Y0395192D01*
X0491115Y0396153D01*
X0491251Y0397185D01*
X0491115Y0398217D01*
X0490717Y0399179D01*
X0490083Y0400004D01*
X0489257Y0400638D01*
X0488296Y0401036D01*
X0487264Y0401172D01*
D02*
G37*
G36*
X0534457Y0388908D02*
Y0387902D01*
X0535463D01*
X0535440Y0388016D01*
X0535092Y0388537D01*
X0534571Y0388885D01*
X0534457Y0388908D01*
D02*
G37*
G36*
X0533457D02*
X0533342Y0388885D01*
X0532821Y0388537D01*
X0532473Y0388016D01*
X0532450Y0387902D01*
X0533457D01*
Y0388908D01*
D02*
G37*
G36*
X0535463Y0386902D02*
X0534457D01*
Y0385895D01*
X0534571Y0385918D01*
X0535092Y0386266D01*
X0535440Y0386787D01*
X0535463Y0386902D01*
D02*
G37*
G36*
X0533457D02*
X0532450D01*
X0532473Y0386787D01*
X0532821Y0386266D01*
X0533342Y0385918D01*
X0533457Y0385895D01*
Y0386902D01*
D02*
G37*
G36*
X0449811Y0378672D02*
Y0377665D01*
X0450817D01*
X0450794Y0377780D01*
X0450446Y0378301D01*
X0449926Y0378649D01*
X0449811Y0378672D01*
D02*
G37*
G36*
X0448811D02*
X0448697Y0378649D01*
X0448176Y0378301D01*
X0447828Y0377780D01*
X0447805Y0377665D01*
X0448811D01*
Y0378672D01*
D02*
G37*
G36*
X0467264Y0411172D02*
X0466232Y0411036D01*
X0465270Y0410638D01*
X0464445Y0410004D01*
X0463811Y0409178D01*
X0463413Y0408217D01*
X0463277Y0407185D01*
X0463413Y0406153D01*
X0463811Y0405192D01*
X0464445Y0404366D01*
X0465270Y0403732D01*
X0466232Y0403334D01*
X0467264Y0403198D01*
X0467536Y0403234D01*
X0470813Y0399957D01*
Y0377574D01*
X0470351Y0377383D01*
X0463734Y0384000D01*
Y0400630D01*
X0463618Y0401215D01*
X0463286Y0401711D01*
X0460321Y0404676D01*
X0460716Y0405192D01*
X0461115Y0406153D01*
X0461251Y0407185D01*
X0461115Y0408217D01*
X0460716Y0409178D01*
X0460083Y0410004D01*
X0459257Y0410638D01*
X0458296Y0411036D01*
X0457264Y0411172D01*
X0456232Y0411036D01*
X0455270Y0410638D01*
X0454445Y0410004D01*
X0453811Y0409178D01*
X0453413Y0408217D01*
X0453277Y0407185D01*
X0453413Y0406153D01*
X0453811Y0405192D01*
X0454445Y0404366D01*
X0455270Y0403732D01*
X0456232Y0403334D01*
X0457264Y0403198D01*
X0457449Y0403223D01*
X0459886Y0400785D01*
X0459556Y0400409D01*
X0459257Y0400638D01*
X0458296Y0401036D01*
X0457264Y0401172D01*
X0456232Y0401036D01*
X0455270Y0400638D01*
X0454445Y0400004D01*
X0453811Y0399179D01*
X0453413Y0398217D01*
X0453277Y0397185D01*
X0453413Y0396153D01*
X0453811Y0395192D01*
X0454445Y0394366D01*
X0455270Y0393732D01*
X0456232Y0393334D01*
X0457264Y0393198D01*
X0458296Y0393334D01*
X0459257Y0393732D01*
X0460083Y0394366D01*
X0460202Y0394521D01*
X0460675Y0394360D01*
Y0383366D01*
X0460792Y0382781D01*
X0461123Y0382285D01*
X0475395Y0368013D01*
X0475891Y0367682D01*
X0476476Y0367565D01*
X0582083D01*
X0589371Y0360277D01*
X0589867Y0359945D01*
X0590453Y0359829D01*
X0605901D01*
X0606025Y0359667D01*
X0606913Y0358986D01*
X0607946Y0358558D01*
X0609055Y0358412D01*
X0610164Y0358558D01*
X0611198Y0358986D01*
X0612085Y0359667D01*
X0612269Y0359907D01*
X0612742Y0359746D01*
Y0358704D01*
X0610777Y0356739D01*
X0610164Y0356993D01*
X0609055Y0357139D01*
X0607946Y0356993D01*
X0606913Y0356565D01*
X0606025Y0355884D01*
X0605344Y0354997D01*
X0604916Y0353963D01*
X0604770Y0352854D01*
X0604916Y0351745D01*
X0605344Y0350712D01*
X0606025Y0349825D01*
X0606913Y0349144D01*
X0607946Y0348716D01*
X0609055Y0348570D01*
X0610164Y0348716D01*
X0611198Y0349144D01*
X0612085Y0349825D01*
X0612766Y0350712D01*
X0613194Y0351745D01*
X0613340Y0352854D01*
X0613194Y0353963D01*
X0612940Y0354576D01*
X0615353Y0356989D01*
X0615685Y0357486D01*
X0615801Y0358071D01*
Y0364764D01*
X0615685Y0365349D01*
X0615353Y0365845D01*
X0613187Y0368011D01*
X0613303Y0368291D01*
X0613303D01*
Y0370717D01*
X0631185D01*
Y0368291D01*
X0639681D01*
Y0376787D01*
X0631185D01*
Y0374362D01*
X0613303D01*
Y0376787D01*
X0607283D01*
X0606997Y0376979D01*
X0606299Y0377118D01*
X0606299Y0377118D01*
X0545533D01*
X0545016Y0377792D01*
X0544285Y0378352D01*
X0543433Y0378705D01*
X0542520Y0378825D01*
X0541678Y0378715D01*
X0536230Y0384163D01*
X0535638Y0384558D01*
X0534941Y0384697D01*
X0534941Y0384696D01*
X0527127D01*
X0526610Y0385370D01*
X0525879Y0385931D01*
X0525028Y0386284D01*
X0524114Y0386404D01*
X0523272Y0386293D01*
X0521466Y0388100D01*
X0520875Y0388495D01*
X0520177Y0388633D01*
X0520177Y0388633D01*
X0500159D01*
X0499642Y0389307D01*
X0498911Y0389868D01*
X0498059Y0390221D01*
X0497146Y0390341D01*
X0496232Y0390221D01*
X0495381Y0389868D01*
X0494649Y0389307D01*
X0494088Y0388576D01*
X0493736Y0387725D01*
X0493615Y0386811D01*
X0493736Y0385897D01*
X0494088Y0385046D01*
X0494649Y0384315D01*
X0495381Y0383754D01*
X0496232Y0383401D01*
X0497146Y0383281D01*
X0498059Y0383401D01*
X0498911Y0383754D01*
X0499642Y0384315D01*
X0500159Y0384989D01*
X0519422D01*
X0520695Y0383716D01*
X0520584Y0382874D01*
X0520704Y0381960D01*
X0521057Y0381109D01*
X0521618Y0380378D01*
X0522349Y0379817D01*
X0523201Y0379464D01*
X0524114Y0379344D01*
X0525028Y0379464D01*
X0525879Y0379817D01*
X0526610Y0380378D01*
X0527127Y0381052D01*
X0534186D01*
X0539100Y0376137D01*
X0538989Y0375295D01*
X0539110Y0374382D01*
X0539462Y0373530D01*
X0539660Y0373273D01*
X0539439Y0372825D01*
X0478551D01*
X0473872Y0377504D01*
Y0394335D01*
X0474345Y0394495D01*
X0474445Y0394366D01*
X0475270Y0393732D01*
X0476232Y0393334D01*
X0477264Y0393198D01*
X0478296Y0393334D01*
X0479257Y0393732D01*
X0480083Y0394366D01*
X0480717Y0395192D01*
X0481115Y0396153D01*
X0481251Y0397185D01*
X0481115Y0398217D01*
X0480717Y0399179D01*
X0480083Y0400004D01*
X0479257Y0400638D01*
X0478296Y0401036D01*
X0477264Y0401172D01*
X0476232Y0401036D01*
X0475270Y0400638D01*
X0474445Y0400004D01*
X0474345Y0399875D01*
X0473872Y0400035D01*
Y0400591D01*
X0473756Y0401176D01*
X0473424Y0401672D01*
X0470364Y0404732D01*
X0470716Y0405192D01*
X0471115Y0406153D01*
X0471251Y0407185D01*
X0471115Y0408217D01*
X0470716Y0409178D01*
X0470083Y0410004D01*
X0469257Y0410638D01*
X0468296Y0411036D01*
X0467264Y0411172D01*
D02*
G37*
G36*
X0450817Y0376665D02*
X0449811D01*
Y0375659D01*
X0449926Y0375682D01*
X0450446Y0376030D01*
X0450794Y0376551D01*
X0450817Y0376665D01*
D02*
G37*
G36*
X0448811D02*
X0447805D01*
X0447828Y0376551D01*
X0448176Y0376030D01*
X0448697Y0375682D01*
X0448811Y0375659D01*
Y0376665D01*
D02*
G37*
G36*
X0444004Y0360168D02*
Y0359161D01*
X0445010D01*
X0444987Y0359276D01*
X0444639Y0359797D01*
X0444118Y0360145D01*
X0444004Y0360168D01*
D02*
G37*
G36*
X0443004D02*
X0442889Y0360145D01*
X0442369Y0359797D01*
X0442021Y0359276D01*
X0441998Y0359161D01*
X0443004D01*
Y0360168D01*
D02*
G37*
G36*
X0445010Y0358161D02*
X0444004D01*
Y0357155D01*
X0444118Y0357178D01*
X0444639Y0357526D01*
X0444987Y0358047D01*
X0445010Y0358161D01*
D02*
G37*
G36*
X0443004D02*
X0441998D01*
X0442021Y0358047D01*
X0442369Y0357526D01*
X0442889Y0357178D01*
X0443004Y0357155D01*
Y0358161D01*
D02*
G37*
G36*
X0609555Y0346222D02*
Y0343512D01*
X0612265D01*
X0612219Y0343860D01*
X0611892Y0344650D01*
X0611372Y0345328D01*
X0610693Y0345849D01*
X0609903Y0346176D01*
X0609555Y0346222D01*
D02*
G37*
G36*
X0608555D02*
X0608207Y0346176D01*
X0607417Y0345849D01*
X0606739Y0345328D01*
X0606218Y0344650D01*
X0605891Y0343860D01*
X0605845Y0343512D01*
X0608555D01*
Y0346222D01*
D02*
G37*
G36*
X0487213Y0341939D02*
Y0340933D01*
X0488219D01*
X0488196Y0341048D01*
X0487848Y0341568D01*
X0487327Y0341916D01*
X0487213Y0341939D01*
D02*
G37*
G36*
X0486213D02*
X0486098Y0341916D01*
X0485577Y0341568D01*
X0485229Y0341048D01*
X0485206Y0340933D01*
X0486213D01*
Y0341939D01*
D02*
G37*
G36*
X0612265Y0342512D02*
X0609555D01*
Y0339802D01*
X0609903Y0339847D01*
X0610693Y0340175D01*
X0611372Y0340695D01*
X0611892Y0341374D01*
X0612219Y0342164D01*
X0612265Y0342512D01*
D02*
G37*
G36*
X0608555D02*
X0605845D01*
X0605891Y0342164D01*
X0606218Y0341374D01*
X0606739Y0340695D01*
X0607417Y0340175D01*
X0608207Y0339847D01*
X0608555Y0339802D01*
Y0342512D01*
D02*
G37*
G36*
X0463197Y0340483D02*
Y0339476D01*
X0464203D01*
X0464180Y0339591D01*
X0463832Y0340112D01*
X0463311Y0340460D01*
X0463197Y0340483D01*
D02*
G37*
G36*
X0462197D02*
X0462082Y0340460D01*
X0461561Y0340112D01*
X0461213Y0339591D01*
X0461191Y0339476D01*
X0462197D01*
Y0340483D01*
D02*
G37*
G36*
X0488219Y0339933D02*
X0487213D01*
Y0338927D01*
X0487327Y0338950D01*
X0487848Y0339298D01*
X0488196Y0339819D01*
X0488219Y0339933D01*
D02*
G37*
G36*
X0486213D02*
X0485206D01*
X0485229Y0339819D01*
X0485577Y0339298D01*
X0486098Y0338950D01*
X0486213Y0338927D01*
Y0339933D01*
D02*
G37*
G36*
X0464203Y0338476D02*
X0463197D01*
Y0337470D01*
X0463311Y0337493D01*
X0463832Y0337841D01*
X0464180Y0338362D01*
X0464203Y0338476D01*
D02*
G37*
G36*
X0462197D02*
X0461191D01*
X0461213Y0338362D01*
X0461561Y0337841D01*
X0462082Y0337493D01*
X0462197Y0337470D01*
Y0338476D01*
D02*
G37*
G36*
X0564575Y0332048D02*
Y0329634D01*
X0566989D01*
X0566954Y0329905D01*
X0566656Y0330624D01*
X0566182Y0331241D01*
X0565565Y0331715D01*
X0564846Y0332013D01*
X0564575Y0332048D01*
D02*
G37*
G36*
X0563575D02*
X0563303Y0332013D01*
X0562585Y0331715D01*
X0561968Y0331241D01*
X0561494Y0330624D01*
X0561196Y0329905D01*
X0561160Y0329634D01*
X0563575D01*
Y0332048D01*
D02*
G37*
G36*
X0566989Y0328634D02*
X0564575D01*
Y0326219D01*
X0564846Y0326255D01*
X0565565Y0326553D01*
X0566182Y0327027D01*
X0566656Y0327644D01*
X0566954Y0328362D01*
X0566989Y0328634D01*
D02*
G37*
G36*
X0563575D02*
X0561160D01*
X0561196Y0328362D01*
X0561494Y0327644D01*
X0561968Y0327027D01*
X0562585Y0326553D01*
X0563303Y0326255D01*
X0563575Y0326219D01*
Y0328634D01*
D02*
G37*
G36*
X0554075Y0333160D02*
X0553043Y0333024D01*
X0552081Y0332626D01*
X0551256Y0331992D01*
X0550622Y0331167D01*
X0550224Y0330205D01*
X0550088Y0329173D01*
X0550224Y0328141D01*
X0550622Y0327180D01*
X0551256Y0326354D01*
X0552081Y0325721D01*
X0553043Y0325322D01*
X0554075Y0325186D01*
X0555107Y0325322D01*
X0556068Y0325721D01*
X0556894Y0326354D01*
X0557527Y0327180D01*
X0557926Y0328141D01*
X0558062Y0329173D01*
X0557926Y0330205D01*
X0557527Y0331167D01*
X0556894Y0331992D01*
X0556068Y0332626D01*
X0555107Y0333024D01*
X0554075Y0333160D01*
D02*
G37*
G36*
X0418701Y0374888D02*
X0417787Y0374768D01*
X0416936Y0374415D01*
X0416205Y0373854D01*
X0415644Y0373123D01*
X0415291Y0372272D01*
X0415171Y0371358D01*
X0415291Y0370445D01*
X0415644Y0369593D01*
X0416205Y0368862D01*
X0416662Y0368511D01*
Y0328051D01*
X0416817Y0327271D01*
X0417259Y0326609D01*
X0423847Y0320022D01*
Y0308957D01*
X0424002Y0308176D01*
X0424444Y0307515D01*
X0434385Y0297574D01*
X0435046Y0297132D01*
X0435827Y0296977D01*
X0465650D01*
X0466430Y0297132D01*
X0467092Y0297574D01*
X0474565Y0305047D01*
X0475866D01*
X0476073Y0304547D01*
X0466767Y0295241D01*
X0466325Y0294580D01*
X0466170Y0293799D01*
Y0280471D01*
X0458899Y0273201D01*
X0446988D01*
X0446208Y0273045D01*
X0445546Y0272603D01*
X0440990Y0268047D01*
X0440945Y0268053D01*
X0440185Y0267953D01*
X0439478Y0267659D01*
X0438870Y0267193D01*
X0438404Y0266585D01*
X0438110Y0265878D01*
X0438010Y0265118D01*
X0438110Y0264359D01*
X0438404Y0263651D01*
X0438776Y0263166D01*
Y0260735D01*
X0438327Y0260514D01*
X0438200Y0260612D01*
X0437492Y0260905D01*
X0436732Y0261005D01*
X0435973Y0260905D01*
X0435265Y0260612D01*
X0434657Y0260146D01*
X0434191Y0259538D01*
X0433898Y0258830D01*
X0433798Y0258071D01*
X0433898Y0257311D01*
X0434191Y0256604D01*
X0434657Y0255996D01*
X0435265Y0255529D01*
X0435973Y0255236D01*
X0436732Y0255136D01*
X0437492Y0255236D01*
X0437962Y0255431D01*
X0438245Y0255007D01*
X0437443Y0254205D01*
X0433916D01*
X0431350Y0256770D01*
X0431575Y0257311D01*
X0431675Y0258071D01*
X0431575Y0258830D01*
X0431282Y0259538D01*
X0430815Y0260146D01*
X0430207Y0260612D01*
X0429500Y0260905D01*
X0428740Y0261005D01*
X0427981Y0260905D01*
X0427273Y0260612D01*
X0426665Y0260146D01*
X0426199Y0259538D01*
X0425906Y0258830D01*
X0425806Y0258071D01*
X0425906Y0257311D01*
X0426199Y0256604D01*
X0426665Y0255996D01*
X0426825Y0255873D01*
X0426856Y0255716D01*
X0427298Y0255054D01*
X0431629Y0250723D01*
X0432291Y0250281D01*
X0433071Y0250126D01*
X0438287D01*
X0439068Y0250281D01*
X0439729Y0250723D01*
X0442257Y0253251D01*
X0442699Y0253913D01*
X0442854Y0254693D01*
Y0255279D01*
X0443354Y0255489D01*
X0443965Y0255236D01*
X0444724Y0255136D01*
X0445484Y0255236D01*
X0446192Y0255529D01*
X0446800Y0255996D01*
X0447266Y0256604D01*
X0447559Y0257311D01*
X0447659Y0258071D01*
X0447559Y0258830D01*
X0447266Y0259538D01*
X0446800Y0260146D01*
X0446192Y0260612D01*
X0445484Y0260905D01*
X0444724Y0261005D01*
X0443965Y0260905D01*
X0443354Y0260652D01*
X0442854Y0260863D01*
Y0262916D01*
X0443020Y0263043D01*
X0443486Y0263651D01*
X0443779Y0264359D01*
X0443879Y0265118D01*
X0443874Y0265163D01*
X0447833Y0269122D01*
X0459744D01*
X0460525Y0269278D01*
X0461186Y0269720D01*
X0469651Y0278184D01*
X0469651Y0278184D01*
X0470093Y0278846D01*
X0470248Y0279626D01*
X0470248Y0279626D01*
Y0292955D01*
X0478601Y0301307D01*
X0510827D01*
X0511607Y0301463D01*
X0512269Y0301905D01*
X0524624Y0314260D01*
X0525575D01*
Y0312347D01*
X0533480D01*
Y0317368D01*
X0551770Y0335658D01*
X0569037D01*
X0571741Y0332953D01*
X0571702Y0332298D01*
X0571254Y0331954D01*
X0570620Y0331128D01*
X0570222Y0330166D01*
X0570086Y0329134D01*
X0570222Y0328101D01*
X0570620Y0327139D01*
X0571254Y0326313D01*
X0572080Y0325679D01*
X0573042Y0325281D01*
X0574075Y0325145D01*
X0575107Y0325281D01*
X0576069Y0325679D01*
X0576895Y0326313D01*
X0577529Y0327139D01*
X0577928Y0328101D01*
X0578064Y0329134D01*
X0577928Y0330166D01*
X0577529Y0331128D01*
X0576895Y0331954D01*
X0576114Y0332554D01*
Y0333504D01*
X0575959Y0334284D01*
X0575517Y0334946D01*
X0571324Y0339139D01*
X0570662Y0339581D01*
X0569882Y0339736D01*
X0550925D01*
X0550145Y0339581D01*
X0549483Y0339139D01*
X0530596Y0320252D01*
X0525575D01*
Y0318338D01*
X0523779D01*
X0522999Y0318183D01*
X0522338Y0317741D01*
X0522338Y0317741D01*
X0509982Y0305386D01*
X0508977D01*
X0508770Y0305886D01*
X0530168Y0327284D01*
X0530719Y0327258D01*
X0530968Y0326933D01*
X0531700Y0326372D01*
X0532551Y0326019D01*
X0533465Y0325899D01*
X0534378Y0326019D01*
X0535230Y0326372D01*
X0535961Y0326933D01*
X0536522Y0327664D01*
X0536874Y0328516D01*
X0536995Y0329429D01*
X0536874Y0330343D01*
X0536522Y0331194D01*
X0535961Y0331925D01*
X0535230Y0332486D01*
X0534378Y0332839D01*
X0533465Y0332959D01*
X0532551Y0332839D01*
X0531700Y0332486D01*
X0530968Y0331925D01*
X0530618Y0331468D01*
X0529429D01*
X0528649Y0331313D01*
X0527987Y0330871D01*
X0527987Y0330871D01*
X0506242Y0309126D01*
X0498432D01*
X0498326Y0309626D01*
X0499047Y0310107D01*
X0499599Y0310934D01*
X0499694Y0311409D01*
X0494795D01*
X0494889Y0310934D01*
X0495442Y0310107D01*
X0496162Y0309626D01*
X0496056Y0309126D01*
X0473721D01*
X0472940Y0308971D01*
X0472278Y0308528D01*
X0464805Y0301055D01*
X0436671D01*
X0427925Y0309801D01*
Y0320866D01*
X0427770Y0321646D01*
X0427328Y0322308D01*
X0420740Y0328896D01*
Y0368511D01*
X0421197Y0368862D01*
X0421758Y0369593D01*
X0422111Y0370445D01*
X0422231Y0371358D01*
X0422111Y0372272D01*
X0421758Y0373123D01*
X0421197Y0373854D01*
X0420466Y0374415D01*
X0419615Y0374768D01*
X0418701Y0374888D01*
D02*
G37*
G36*
X0497744Y0314359D02*
Y0312409D01*
X0499694D01*
X0499599Y0312885D01*
X0499047Y0313712D01*
X0498219Y0314264D01*
X0497744Y0314359D01*
D02*
G37*
G36*
X0496744D02*
X0496269Y0314264D01*
X0495442Y0313712D01*
X0494889Y0312885D01*
X0494795Y0312409D01*
X0496744D01*
Y0314359D01*
D02*
G37*
G36*
X0530028Y0309212D02*
Y0306799D01*
X0532440D01*
X0532404Y0307070D01*
X0532107Y0307788D01*
X0531634Y0308405D01*
X0531017Y0308878D01*
X0530298Y0309176D01*
X0530028Y0309212D01*
D02*
G37*
G36*
X0529028Y0309212D02*
X0528757Y0309176D01*
X0528039Y0308878D01*
X0527422Y0308405D01*
X0526948Y0307788D01*
X0526651Y0307070D01*
X0526615Y0306799D01*
X0529028D01*
Y0309212D01*
D02*
G37*
G36*
X0550500Y0308916D02*
Y0306504D01*
X0552912D01*
X0552877Y0306775D01*
X0552579Y0307493D01*
X0552106Y0308110D01*
X0551489Y0308583D01*
X0550771Y0308881D01*
X0550500Y0308916D01*
D02*
G37*
G36*
X0572252Y0308916D02*
Y0306504D01*
X0574664D01*
X0574629Y0306775D01*
X0574331Y0307493D01*
X0573858Y0308110D01*
X0573241Y0308583D01*
X0572523Y0308881D01*
X0572252Y0308916D01*
D02*
G37*
G36*
X0571252Y0308916D02*
X0570981Y0308881D01*
X0570263Y0308583D01*
X0569646Y0308110D01*
X0569173Y0307493D01*
X0568875Y0306775D01*
X0568840Y0306504D01*
X0571252D01*
Y0308916D01*
D02*
G37*
G36*
X0549500D02*
X0549229Y0308881D01*
X0548511Y0308583D01*
X0547894Y0308110D01*
X0547421Y0307493D01*
X0547123Y0306775D01*
X0547088Y0306504D01*
X0549500D01*
Y0308916D01*
D02*
G37*
G36*
X0532440Y0305799D02*
X0530028D01*
Y0303387D01*
X0530298Y0303422D01*
X0531017Y0303720D01*
X0531634Y0304193D01*
X0532107Y0304810D01*
X0532404Y0305528D01*
X0532440Y0305799D01*
D02*
G37*
G36*
X0529028D02*
X0526615D01*
X0526651Y0305528D01*
X0526948Y0304810D01*
X0527422Y0304193D01*
X0528039Y0303720D01*
X0528757Y0303422D01*
X0529028Y0303387D01*
Y0305799D01*
D02*
G37*
G36*
X0571252Y0305504D02*
X0568840D01*
X0568875Y0305233D01*
X0569173Y0304515D01*
X0569646Y0303898D01*
X0570263Y0303425D01*
X0570981Y0303127D01*
X0571252Y0303092D01*
Y0305504D01*
D02*
G37*
G36*
X0552912D02*
X0550500D01*
Y0303092D01*
X0550771Y0303127D01*
X0551489Y0303425D01*
X0552106Y0303898D01*
X0552579Y0304515D01*
X0552877Y0305233D01*
X0552912Y0305504D01*
D02*
G37*
G36*
X0549500D02*
X0547088D01*
X0547123Y0305233D01*
X0547421Y0304515D01*
X0547894Y0303898D01*
X0548511Y0303425D01*
X0549229Y0303127D01*
X0549500Y0303092D01*
Y0305504D01*
D02*
G37*
G36*
X0574664D02*
X0572252D01*
Y0303092D01*
X0572523Y0303127D01*
X0573241Y0303425D01*
X0573858Y0303898D01*
X0574331Y0304515D01*
X0574629Y0305233D01*
X0574664Y0305504D01*
D02*
G37*
G36*
X0585705Y0309957D02*
X0577799D01*
Y0302051D01*
X0585705D01*
Y0309957D01*
D02*
G37*
G36*
X0563953D02*
X0556047D01*
Y0302051D01*
X0563953D01*
Y0309957D01*
D02*
G37*
G36*
X0456709D02*
X0448803D01*
Y0302051D01*
X0456709D01*
Y0309957D01*
D02*
G37*
G36*
X0442756Y0309991D02*
X0441724Y0309855D01*
X0440763Y0309457D01*
X0439937Y0308823D01*
X0439303Y0307997D01*
X0438905Y0307036D01*
X0438769Y0306004D01*
X0438905Y0304972D01*
X0439303Y0304011D01*
X0439937Y0303185D01*
X0440763Y0302551D01*
X0441724Y0302153D01*
X0442756Y0302017D01*
X0443788Y0302153D01*
X0444749Y0302551D01*
X0445575Y0303185D01*
X0446209Y0304011D01*
X0446607Y0304972D01*
X0446743Y0306004D01*
X0446607Y0307036D01*
X0446209Y0307997D01*
X0445575Y0308823D01*
X0444749Y0309457D01*
X0443788Y0309855D01*
X0442756Y0309991D01*
D02*
G37*
G36*
X0425461Y0266926D02*
Y0265579D01*
X0426808D01*
X0426759Y0265824D01*
X0426337Y0266455D01*
X0425706Y0266877D01*
X0425461Y0266926D01*
D02*
G37*
G36*
X0424461D02*
X0424216Y0266877D01*
X0423584Y0266455D01*
X0423162Y0265824D01*
X0423113Y0265579D01*
X0424461D01*
Y0266926D01*
D02*
G37*
G36*
X0426808Y0264579D02*
X0425461D01*
Y0263231D01*
X0425706Y0263280D01*
X0426337Y0263702D01*
X0426759Y0264334D01*
X0426808Y0264579D01*
D02*
G37*
G36*
X0424461D02*
X0423113D01*
X0423162Y0264334D01*
X0423584Y0263702D01*
X0424216Y0263280D01*
X0424461Y0263231D01*
Y0264579D01*
D02*
G37*
G36*
X0448937Y0268053D02*
X0448177Y0267953D01*
X0447470Y0267659D01*
X0446862Y0267193D01*
X0446396Y0266585D01*
X0446102Y0265878D01*
X0446002Y0265118D01*
X0446102Y0264359D01*
X0446396Y0263651D01*
X0446862Y0263043D01*
X0447470Y0262577D01*
X0448177Y0262283D01*
X0448937Y0262184D01*
X0449696Y0262283D01*
X0450404Y0262577D01*
X0451012Y0263043D01*
X0451478Y0263651D01*
X0451772Y0264359D01*
X0451872Y0265118D01*
X0451772Y0265878D01*
X0451478Y0266585D01*
X0451012Y0267193D01*
X0450404Y0267659D01*
X0449696Y0267953D01*
X0448937Y0268053D01*
D02*
G37*
G36*
X0432953D02*
X0432193Y0267953D01*
X0431486Y0267659D01*
X0430878Y0267193D01*
X0430411Y0266585D01*
X0430118Y0265878D01*
X0430018Y0265118D01*
X0430118Y0264359D01*
X0430411Y0263651D01*
X0430878Y0263043D01*
X0431486Y0262577D01*
X0432193Y0262283D01*
X0432953Y0262184D01*
X0433712Y0262283D01*
X0434420Y0262577D01*
X0435028Y0263043D01*
X0435494Y0263651D01*
X0435787Y0264359D01*
X0435887Y0265118D01*
X0435787Y0265878D01*
X0435494Y0266585D01*
X0435028Y0267193D01*
X0434420Y0267659D01*
X0433712Y0267953D01*
X0432953Y0268053D01*
D02*
G37*
G36*
X0421248Y0259918D02*
Y0258571D01*
X0422595D01*
X0422547Y0258816D01*
X0422125Y0259448D01*
X0421493Y0259870D01*
X0421248Y0259918D01*
D02*
G37*
G36*
X0420248D02*
X0420003Y0259870D01*
X0419371Y0259448D01*
X0418949Y0258816D01*
X0418901Y0258571D01*
X0420248D01*
Y0259918D01*
D02*
G37*
G36*
X0467244Y0265860D02*
X0466135Y0265714D01*
X0465102Y0265285D01*
X0464214Y0264604D01*
X0463533Y0263717D01*
X0463105Y0262684D01*
X0462959Y0261575D01*
X0463105Y0260466D01*
X0463533Y0259433D01*
X0464214Y0258545D01*
X0465102Y0257864D01*
X0466135Y0257436D01*
X0467244Y0257290D01*
X0468353Y0257436D01*
X0469386Y0257864D01*
X0470274Y0258545D01*
X0470955Y0259433D01*
X0471383Y0260466D01*
X0471529Y0261575D01*
X0471383Y0262684D01*
X0470955Y0263717D01*
X0470274Y0264604D01*
X0469386Y0265285D01*
X0468353Y0265714D01*
X0467244Y0265860D01*
D02*
G37*
G36*
X0402441D02*
X0401332Y0265714D01*
X0400299Y0265285D01*
X0399411Y0264604D01*
X0398730Y0263717D01*
X0398302Y0262684D01*
X0398156Y0261575D01*
X0398302Y0260466D01*
X0398730Y0259433D01*
X0399411Y0258545D01*
X0400299Y0257864D01*
X0401332Y0257436D01*
X0402441Y0257290D01*
X0403550Y0257436D01*
X0404583Y0257864D01*
X0405471Y0258545D01*
X0406152Y0259433D01*
X0406580Y0260466D01*
X0406726Y0261575D01*
X0406580Y0262684D01*
X0406152Y0263717D01*
X0405471Y0264604D01*
X0404583Y0265285D01*
X0403550Y0265714D01*
X0402441Y0265860D01*
D02*
G37*
G36*
X0422595Y0257571D02*
X0421248D01*
Y0256224D01*
X0421493Y0256272D01*
X0422125Y0256694D01*
X0422547Y0257326D01*
X0422595Y0257571D01*
D02*
G37*
G36*
X0420248D02*
X0418901D01*
X0418949Y0257326D01*
X0419371Y0256694D01*
X0420003Y0256272D01*
X0420248Y0256224D01*
Y0257571D01*
D02*
G37*
G36*
X0409921Y0255702D02*
X0408440Y0255556D01*
X0407016Y0255124D01*
X0405703Y0254422D01*
X0404553Y0253478D01*
X0403609Y0252328D01*
X0402908Y0251015D01*
X0402476Y0249591D01*
X0402330Y0248110D01*
X0402476Y0246629D01*
X0402908Y0245205D01*
X0403609Y0243893D01*
X0404553Y0242742D01*
X0405703Y0241798D01*
X0407016Y0241096D01*
X0408440Y0240664D01*
X0409921Y0240519D01*
X0411402Y0240664D01*
X0412826Y0241096D01*
X0414139Y0241798D01*
X0415289Y0242742D01*
X0416233Y0243893D01*
X0416935Y0245205D01*
X0417367Y0246629D01*
X0417513Y0248110D01*
X0417367Y0249591D01*
X0416935Y0251015D01*
X0416233Y0252328D01*
X0415289Y0253478D01*
X0414139Y0254422D01*
X0412826Y0255124D01*
X0411402Y0255556D01*
X0409921Y0255702D01*
D02*
G37*
G36*
X0459764Y0255585D02*
X0458244Y0255435D01*
X0456783Y0254992D01*
X0455436Y0254272D01*
X0454256Y0253303D01*
X0453287Y0252123D01*
X0452567Y0250776D01*
X0452124Y0249315D01*
X0451974Y0247795D01*
X0452124Y0246276D01*
X0452567Y0244814D01*
X0453287Y0243468D01*
X0454256Y0242287D01*
X0455436Y0241319D01*
X0456783Y0240599D01*
X0458244Y0240156D01*
X0459764Y0240006D01*
X0461283Y0240156D01*
X0462745Y0240599D01*
X0464091Y0241319D01*
X0465272Y0242287D01*
X0466241Y0243468D01*
X0466960Y0244814D01*
X0467404Y0246276D01*
X0467553Y0247795D01*
X0467404Y0249315D01*
X0466960Y0250776D01*
X0466241Y0252123D01*
X0465272Y0253303D01*
X0464091Y0254272D01*
X0462745Y0254992D01*
X0461283Y0255435D01*
X0459764Y0255585D01*
D02*
G37*
%LPD*%
G36*
X0640006Y0351487D02*
Y0341972D01*
X0630961Y0332927D01*
X0618301D01*
X0618149Y0333427D01*
X0618207Y0333466D01*
X0633711Y0348970D01*
X0634324Y0348716D01*
X0635433Y0348570D01*
X0636542Y0348716D01*
X0637575Y0349144D01*
X0638463Y0349825D01*
X0639144Y0350712D01*
X0639506Y0351587D01*
X0640006Y0351487D01*
D02*
G37*
G36*
X0596182Y0333466D02*
X0596240Y0333427D01*
X0596089Y0332927D01*
X0595023D01*
X0575693Y0352258D01*
X0575900Y0352758D01*
X0576890D01*
X0596182Y0333466D01*
D02*
G37*
%LPC*%
G36*
X0635933Y0346222D02*
Y0343512D01*
X0638643D01*
X0638597Y0343860D01*
X0638270Y0344650D01*
X0637750Y0345328D01*
X0637071Y0345849D01*
X0636281Y0346176D01*
X0635933Y0346222D01*
D02*
G37*
G36*
X0634933Y0346222D02*
X0634585Y0346176D01*
X0633795Y0345849D01*
X0633117Y0345328D01*
X0632596Y0344650D01*
X0632269Y0343860D01*
X0632223Y0343512D01*
X0634933D01*
Y0346222D01*
D02*
G37*
G36*
X0638643Y0342512D02*
X0635933D01*
Y0339802D01*
X0636281Y0339847D01*
X0637071Y0340175D01*
X0637750Y0340695D01*
X0638270Y0341374D01*
X0638597Y0342164D01*
X0638643Y0342512D01*
D02*
G37*
G36*
X0634933D02*
X0632223D01*
X0632269Y0342164D01*
X0632596Y0341374D01*
X0633117Y0340695D01*
X0633795Y0340175D01*
X0634585Y0339847D01*
X0634933Y0339802D01*
Y0342512D01*
D02*
G37*
%LPD*%
G36*
X0604807Y0369147D02*
X0600732D01*
X0597440Y0372440D01*
X0596944Y0372771D01*
X0596358Y0372888D01*
X0546143D01*
X0545865Y0373388D01*
X0545918Y0373473D01*
X0604807D01*
Y0369147D01*
D02*
G37*
G36*
X0599017Y0366537D02*
X0599513Y0366205D01*
X0600098Y0366089D01*
X0605729D01*
X0605920Y0365589D01*
X0605344Y0364839D01*
X0604916Y0363806D01*
X0604796Y0362888D01*
X0591086D01*
X0584607Y0369367D01*
X0584798Y0369829D01*
X0595725D01*
X0599017Y0366537D01*
D02*
G37*
D12*
X0472342Y0376870D02*
X0477917Y0371295D01*
X0544176D01*
X0544240Y0371358D02*
X0596358D01*
X0544176Y0371295D02*
X0544240Y0371358D01*
X0459154Y0351673D02*
X0574114D01*
X0442230Y0368597D02*
X0459154Y0351673D01*
X0442230Y0368597D02*
Y0392218D01*
X0574114Y0351673D02*
X0594390Y0331398D01*
X0635433Y0362697D02*
X0641535Y0356594D01*
Y0341339D02*
Y0356594D01*
X0631595Y0331398D02*
X0641535Y0341339D01*
X0594390Y0331398D02*
X0631595D01*
X0617126Y0334547D02*
X0635433Y0352854D01*
X0597264Y0334547D02*
X0617126D01*
X0577524Y0354287D02*
X0597264Y0334547D01*
X0609055Y0352854D02*
X0614272Y0358071D01*
Y0364764D01*
X0611417Y0367618D02*
X0614272Y0364764D01*
X0600098Y0367618D02*
X0611417D01*
X0596358Y0371358D02*
X0600098Y0367618D01*
X0607717Y0361358D02*
X0609055Y0362697D01*
X0590453Y0361358D02*
X0607717D01*
X0582717Y0369094D02*
X0590453Y0361358D01*
X0476476Y0369094D02*
X0582717D01*
X0462205Y0383366D02*
X0476476Y0369094D01*
X0462205Y0383366D02*
Y0400630D01*
X0472342Y0376870D02*
Y0400591D01*
X0457264Y0405571D02*
X0462205Y0400630D01*
X0457264Y0405571D02*
Y0407185D01*
X0467264Y0405669D02*
X0472342Y0400591D01*
X0467264Y0405669D02*
Y0407185D01*
X0445374Y0395295D02*
X0447264Y0397185D01*
X0445374Y0369696D02*
Y0395295D01*
Y0369696D02*
X0460783Y0354287D01*
X0437264Y0397185D02*
X0442230Y0392218D01*
X0460783Y0354287D02*
X0577524D01*
X0449311Y0376673D02*
Y0377165D01*
X0462697Y0338681D02*
Y0338976D01*
D41*
X0529429Y0329429D02*
X0533465D01*
X0507087Y0307087D02*
X0529429Y0329429D01*
X0473721Y0307087D02*
X0507087D01*
X0465650Y0299016D02*
X0473721Y0307087D01*
X0435827Y0299016D02*
X0465650D01*
X0425886Y0308957D02*
X0435827Y0299016D01*
X0425886Y0308957D02*
Y0320866D01*
X0418701Y0328051D02*
X0425886Y0320866D01*
X0418701Y0328051D02*
Y0371358D01*
X0428740Y0256496D02*
X0433071Y0252165D01*
X0440815Y0254693D02*
Y0265118D01*
X0438287Y0252165D02*
X0440815Y0254693D01*
X0433071Y0252165D02*
X0438287D01*
X0428740Y0256496D02*
Y0258071D01*
X0574075Y0329134D02*
Y0333504D01*
X0569882Y0337697D02*
X0574075Y0333504D01*
X0550925Y0337697D02*
X0569882D01*
X0529528Y0316299D02*
X0550925Y0337697D01*
X0523779Y0316299D02*
X0529528D01*
X0510827Y0303346D02*
X0523779Y0316299D01*
X0477756Y0303346D02*
X0510827D01*
X0468209Y0293799D02*
X0477756Y0303346D01*
X0468209Y0279626D02*
Y0293799D01*
X0459744Y0271161D02*
X0468209Y0279626D01*
X0446988Y0271161D02*
X0459744D01*
X0440945Y0265118D02*
X0446988Y0271161D01*
X0440815Y0265118D02*
X0440945D01*
D42*
X0609055Y0372539D02*
X0635433D01*
X0606299Y0375295D02*
X0609055Y0372539D01*
X0542520Y0375295D02*
X0606299D01*
X0534941Y0382874D02*
X0542520Y0375295D01*
X0524114Y0382874D02*
X0534941D01*
X0520177Y0386811D02*
X0524114Y0382874D01*
X0497146Y0386811D02*
X0520177D01*
D43*
X0452756Y0306004D02*
D03*
X0427264Y0397185D02*
D03*
X0581752Y0306004D02*
D03*
X0560000D02*
D03*
D44*
X0442756D02*
D03*
X0617264Y0407185D02*
D03*
Y0397185D02*
D03*
X0607264Y0407185D02*
D03*
Y0397185D02*
D03*
X0597264Y0407185D02*
D03*
Y0397185D02*
D03*
X0587264Y0407185D02*
D03*
Y0397185D02*
D03*
X0577264Y0407185D02*
D03*
Y0397185D02*
D03*
X0567264Y0407185D02*
D03*
Y0397185D02*
D03*
X0557264Y0407185D02*
D03*
Y0397185D02*
D03*
X0547264Y0407185D02*
D03*
Y0397185D02*
D03*
X0537264Y0407185D02*
D03*
Y0397185D02*
D03*
X0527264Y0407185D02*
D03*
Y0397185D02*
D03*
X0517264Y0407185D02*
D03*
Y0397185D02*
D03*
X0507264Y0407185D02*
D03*
Y0397185D02*
D03*
X0497264Y0407185D02*
D03*
Y0397185D02*
D03*
X0487264Y0407185D02*
D03*
Y0397185D02*
D03*
X0477264Y0407185D02*
D03*
Y0397185D02*
D03*
X0467264Y0407185D02*
D03*
Y0397185D02*
D03*
X0457264Y0407185D02*
D03*
Y0397185D02*
D03*
X0447264Y0407185D02*
D03*
Y0397185D02*
D03*
X0437264Y0407185D02*
D03*
Y0397185D02*
D03*
X0427264Y0407185D02*
D03*
X0571752Y0306004D02*
D03*
X0550000D02*
D03*
X0529528Y0306299D02*
D03*
D45*
X0636346Y0402051D02*
D03*
Y0311500D02*
D03*
X0408000D02*
D03*
Y0402051D02*
D03*
D46*
X0402441Y0261575D02*
D03*
X0467244D02*
D03*
X0609055Y0343012D02*
D03*
Y0352854D02*
D03*
Y0362697D02*
D03*
X0635433Y0343012D02*
D03*
Y0352854D02*
D03*
Y0362697D02*
D03*
D47*
X0409921Y0248110D02*
D03*
D48*
X0459764Y0247795D02*
D03*
D49*
X0424961Y0265079D02*
D03*
X0432953Y0265118D02*
D03*
X0440945D02*
D03*
X0448937D02*
D03*
X0420748Y0258071D02*
D03*
X0428740D02*
D03*
X0436732D02*
D03*
X0444724D02*
D03*
D50*
X0609055Y0372539D02*
D03*
X0635433D02*
D03*
D51*
X0554075Y0329173D02*
D03*
D52*
X0564075Y0329134D02*
D03*
X0574075D02*
D03*
D53*
X0529528Y0316299D02*
D03*
D54*
X0542520Y0375295D02*
D03*
X0524114Y0382874D02*
D03*
X0497146Y0386811D02*
D03*
X0497244Y0311910D02*
D03*
X0533465Y0329429D02*
D03*
X0418701Y0371358D02*
D03*
D55*
X0533957Y0387402D02*
D03*
X0449311Y0377165D02*
D03*
X0443504Y0358661D02*
D03*
X0486713Y0340433D02*
D03*
X0462697Y0338976D02*
D03*
M02*
