G04*
G04 #@! TF.GenerationSoftware,Altium Limited,Altium Designer,18.1.9 (240)*
G04*
G04 Layer_Color=8421504*
%FSAX25Y25*%
%MOIN*%
G70*
G01*
G75*
%ADD16R,0.02362X0.03543*%
%ADD17R,0.02362X0.05906*%
%ADD18R,0.07480X0.02559*%
%ADD19R,0.07087X0.04724*%
%ADD20R,0.03150X0.03150*%
%ADD21R,0.03150X0.03150*%
%ADD22R,0.03543X0.02362*%
D16*
X0450787Y0323819D02*
D03*
X0444882D02*
D03*
X0438878Y0385335D02*
D03*
X0444783D02*
D03*
X0580807Y0317323D02*
D03*
X0574902D02*
D03*
X0557087Y0316831D02*
D03*
X0551181D02*
D03*
D17*
X0448937Y0364665D02*
D03*
X0443937D02*
D03*
X0438937D02*
D03*
X0433937D02*
D03*
X0448937Y0343406D02*
D03*
X0443937D02*
D03*
X0438937D02*
D03*
X0433937D02*
D03*
D18*
X0517224Y0340433D02*
D03*
Y0345433D02*
D03*
Y0350433D02*
D03*
Y0355433D02*
D03*
Y0360433D02*
D03*
Y0365433D02*
D03*
Y0370433D02*
D03*
Y0375433D02*
D03*
Y0380433D02*
D03*
X0479823Y0340433D02*
D03*
Y0345433D02*
D03*
Y0350433D02*
D03*
Y0355433D02*
D03*
Y0360433D02*
D03*
Y0365433D02*
D03*
Y0370433D02*
D03*
Y0375433D02*
D03*
Y0380433D02*
D03*
D19*
X0490100Y0327372D02*
D03*
Y0317923D02*
D03*
X0474352Y0327372D02*
D03*
Y0317923D02*
D03*
D20*
X0529035Y0386614D02*
D03*
Y0380709D02*
D03*
X0500394Y0325492D02*
D03*
Y0319587D02*
D03*
D21*
X0444488Y0374508D02*
D03*
X0438583D02*
D03*
X0479134Y0309842D02*
D03*
X0485039D02*
D03*
D22*
X0536221Y0367421D02*
D03*
Y0361516D02*
D03*
Y0373524D02*
D03*
Y0379429D02*
D03*
X0535925Y0344291D02*
D03*
Y0350197D02*
D03*
X0457480Y0345079D02*
D03*
Y0339173D02*
D03*
X0419095Y0384547D02*
D03*
Y0378642D02*
D03*
M02*
