G04*
G04 #@! TF.GenerationSoftware,Altium Limited,Altium Designer,18.1.9 (240)*
G04*
G04 Layer_Color=16711935*
%FSAX25Y25*%
%MOIN*%
G70*
G01*
G75*
%ADD30R,0.06706X0.06706*%
%ADD31C,0.06706*%
%ADD32C,0.24422*%
%ADD33C,0.07296*%
%ADD34C,0.13910*%
%ADD35C,0.14304*%
%ADD36C,0.04619*%
%ADD37R,0.07296X0.07296*%
%ADD38C,0.06706*%
%ADD39C,0.06710*%
%ADD40R,0.06706X0.06706*%
D30*
X0452756Y0306004D02*
D03*
X0427264Y0397185D02*
D03*
X0581752Y0306004D02*
D03*
X0560000D02*
D03*
D31*
X0442756D02*
D03*
X0617264Y0407185D02*
D03*
Y0397185D02*
D03*
X0607264Y0407185D02*
D03*
Y0397185D02*
D03*
X0597264Y0407185D02*
D03*
Y0397185D02*
D03*
X0587264Y0407185D02*
D03*
Y0397185D02*
D03*
X0577264Y0407185D02*
D03*
Y0397185D02*
D03*
X0567264Y0407185D02*
D03*
Y0397185D02*
D03*
X0557264Y0407185D02*
D03*
Y0397185D02*
D03*
X0547264Y0407185D02*
D03*
Y0397185D02*
D03*
X0537264Y0407185D02*
D03*
Y0397185D02*
D03*
X0527264Y0407185D02*
D03*
Y0397185D02*
D03*
X0517264Y0407185D02*
D03*
Y0397185D02*
D03*
X0507264Y0407185D02*
D03*
Y0397185D02*
D03*
X0497264Y0407185D02*
D03*
Y0397185D02*
D03*
X0487264Y0407185D02*
D03*
Y0397185D02*
D03*
X0477264Y0407185D02*
D03*
Y0397185D02*
D03*
X0467264Y0407185D02*
D03*
Y0397185D02*
D03*
X0457264Y0407185D02*
D03*
Y0397185D02*
D03*
X0447264Y0407185D02*
D03*
Y0397185D02*
D03*
X0437264Y0407185D02*
D03*
Y0397185D02*
D03*
X0427264Y0407185D02*
D03*
X0571752Y0306004D02*
D03*
X0550000D02*
D03*
X0529528Y0306299D02*
D03*
D32*
X0636346Y0402051D02*
D03*
Y0311500D02*
D03*
X0408000D02*
D03*
Y0402051D02*
D03*
D33*
X0402441Y0261575D02*
D03*
X0467244D02*
D03*
X0609055Y0343012D02*
D03*
Y0352854D02*
D03*
Y0362697D02*
D03*
X0635433Y0343012D02*
D03*
Y0352854D02*
D03*
Y0362697D02*
D03*
D34*
X0409921Y0248110D02*
D03*
D35*
X0459764Y0247795D02*
D03*
D36*
X0424961Y0265079D02*
D03*
X0432953Y0265118D02*
D03*
X0440945D02*
D03*
X0448937D02*
D03*
X0420748Y0258071D02*
D03*
X0428740D02*
D03*
X0436732D02*
D03*
X0444724D02*
D03*
D37*
X0609055Y0372539D02*
D03*
X0635433D02*
D03*
D38*
X0554075Y0329173D02*
D03*
D39*
X0564075Y0329134D02*
D03*
X0574075D02*
D03*
D40*
X0529528Y0316299D02*
D03*
M02*
